<?xml version="1.0" encoding="utf-8"?>
<!-- Generator: Adobe Illustrator 27.5.0, SVG Export Plug-In . SVG Version: 6.00 Build 0)  -->
<svg version="1.1" id="Layer_1" xmlns="http://www.w3.org/2000/svg" xmlns:xlink="http://www.w3.org/1999/xlink" x="0px" y="0px"
	 viewBox="0 0 800 800" style="enable-background:new 0 0 800 800;" xml:space="preserve">
<style type="text/css">
	.st0{fill:#402415;}
	.st1{fill:#FFFFFF;}
</style>
<rect y="-5.1" class="st0" width="800" height="809.5"/>
<g>
	<path class="st1" d="M342.3,521.2c0-5.4-0.2-10.2,0.1-15c0.2-3.1-1-4.2-4-4.5c-12.9-1.3-25.7-3-38.6-4.3
		c-31.9-3.3-62.7-11.4-92.9-22c-19.4-6.8-37.9-15.6-53.4-29.3c-5.5-4.9-10.4-11-14.2-17.3c-6.6-11.1-6.2-23,1.5-33.4
		c5.6-7.6,12.2-14.9,19.8-20.6c14.3-10.8,30.3-18.8,47.7-24c5.9-1.8,11.5-4.3,18.4-6.9c-6.2,5.2-11.8,9.1-16.5,13.9
		c-13,13.5-12.9,27.1-0.6,41.2c10.3,11.9,23.8,18.7,38,24.3c29.4,11.6,60.1,18.3,91.5,21.3c0.9,0.1,1.8,0,3.2,0c0-4.4,0-8.5,0-13.6
		c26.2,15.2,51.6,30,77.7,45.2C394,491.2,368.5,506,342.3,521.2z"/>
	<path class="st1" d="M415.7,447.4c2,0,3.9,0,5.9,0c44.2-1.1,87.5-7.5,129-23.1c8.6-3.2,17-7.5,24.7-12.6
		c6.6-4.3,12.7-9.8,17.7-15.8c9.4-11.2,8.8-25.3-1.2-36.1c-5.4-5.7-11.9-10.4-18.2-15.8c4.8,1.8,9.5,3.8,14.3,5.3
		c18,5.5,34.6,13.8,50.3,24.2c9.5,6.2,16.8,14.3,22.4,23.9c6.8,11.6,5.7,23.3-1.4,34.4c-5.9,9.3-13.8,16.7-23.1,22.7
		c-19.2,12.4-40.2,20.6-62,27.4C539.6,492.6,504,498,468,501c-16.7,1.4-33.4,2.4-50.2,3.6c-0.4,0-0.8-0.2-2.2-0.6
		c16.2-9.2,31.7-18,48.6-27.7c-16.9-9.8-32.8-18.9-48.6-28.1C415.7,448,415.7,447.7,415.7,447.4z"/>
	<path class="st1" d="M385.2,325.8c6-5.6,12.8-9.3,21.2-9.9c19.1-1.3,34.6,17,36.8,32.7c3.2,22.6-6.6,42.3-25.5,48.8
		c-20.5,7.1-42-0.2-52.3-24.4c-6.3-14.8-6.1-30.6-5.4-46.2c0.5-11.2,2.3-22.2,7.7-32.3c9.5-17.6,27.5-26.4,47.1-22.6
		c11.6,2.3,23.5,14.6,25.7,26.5c0.5,2.7-0.4,4-3,4.3c-5.5,0.8-11,1.7-16.6,2.2c-0.9,0.1-2.7-1.3-2.9-2.2
		c-1.6-7.3-5.3-12.4-13.2-12.8c-7.1-0.4-14.5,4.6-17,13.1c-2.2,7.2-2.7,14.8-4,22.3C384.3,325.4,384.7,325.6,385.2,325.8z
		 M420.5,357.5c-0.4-3.5-0.7-7.1-1.4-10.7c-1.6-9.2-6.5-12-14.9-13.9c-5.4-1.2-13.8,4.5-16,10.7c-3.6,9.9-3.1,19.8,2.8,28.8
		c3.9,5.9,10.6,8.9,16.8,7.5c6.8-1.5,10.8-5.7,11.6-12.8C419.7,364,420.1,360.8,420.5,357.5z"/>
	<path class="st1" d="M540.9,332.6c-1.9,12.7-3,25.7-6,38.1c-5.8,24-28.7,35.1-51.5,25.8c-10.5-4.3-16.7-12.8-20-23.2
		c-5.8-17.9-7.6-36.3-4.4-54.9c1.4-8.3,3.3-16.6,6.2-24.5c5.3-14.7,16.3-22.4,32-22.9c15.4-0.6,26.7,6.3,34.3,19.4
		c5.3,9.2,6.3,19.7,7.5,30c0.4,4,0.6,8,0.8,12C540,332.5,540.5,332.6,540.9,332.6z M515.6,334.9c-0.6,0-1.1-0.1-1.7-0.1
		c0-6.4,0.6-12.9-0.2-19.2c-0.8-6.4-2.2-12.9-4.5-18.9c-2.2-5.9-9.2-8.1-14.8-5.8c-6.5,2.7-8.9,8.3-10.2,14.7
		c-3.1,16.5-2.4,33.1-1.4,49.7c0.3,4.6,1.2,9.2,2.4,13.6c1.7,6.2,7.8,11.3,12.9,11.2c6.5,0,11.4-3.5,12.8-11.2
		C513.1,357.7,514.1,346.2,515.6,334.9z"/>
	<path class="st1" d="M291.7,340.2c0.9-6,1.6-11.4,2.6-16.6c0.2-0.8,1.7-1.5,2.8-1.9c3-1,6.3-1.4,9.1-2.7c11-5,12.2-19.7,2.4-26.6
		c-6.3-4.5-15.8-2.7-20.2,4.1c-2.2,3.3-3.6,7-5.4,10.6c-6.4-1-12.8-2.1-19.8-3.3c1.4-11.3,6-20.1,15.6-26.3
		c17.6-11.3,41.4-7.5,53.8,8.8c9.6,12.7,7.7,27.9-4.6,37.9c-2.3,1.9-4.5,3.8-7.2,6.1c4,1.8,7.5,2.9,10.4,4.9
		c12.3,8.5,16.4,24.2,10.5,38.9c-11.3,28.3-52.2,35.2-71.5,11.7c-4.1-5-6.3-11.7-9.1-17.7c-1-2.2-0.2-3.7,2.5-3.9
		c5.7-0.5,11.4-1.3,17.2-1.5c1.3,0,3.3,1.6,3.8,2.9c3.2,10.2,10.6,15.6,20.1,14.5c8.3-1,15.3-9.7,15.6-19.8
		c0.5-15.4-10.6-24.3-22.8-20.6C295.9,340.1,294.2,340,291.7,340.2z"/>
	<path class="st1" d="M555.1,280.4c0-8.9,7.8-17.1,16.5-17.2c9.2-0.1,17.2,8,17.3,17.5c0,8.6-7.9,16.7-16.4,16.8
		C562.6,297.6,555.1,290.3,555.1,280.4z M572.1,270.1c-5.1,0-10.3,5.4-10.3,10.7c0,4.3,6.1,10.2,10.5,10.1c4.3-0.1,9.9-5.8,10-10.1
		C582.3,276.6,576.1,270.1,572.1,270.1z"/>
</g>
</svg>
