<svg xmlns="http://www.w3.org/2000/svg" width="69.63" height="69.63" viewBox="0 0 69.63 69.63">
  <g id="Bt_Bancas" transform="translate(-1630.61 -857.796)">
    <path id="Trazado_509" data-name="Trazado 509" d="M1665.425,927.426a34.815,34.815,0,1,1,34.815-34.815A34.855,34.855,0,0,1,1665.425,927.426Zm0-65.032a30.217,30.217,0,1,0,30.217,30.217A30.251,30.251,0,0,0,1665.425,862.394Z" fill="#d2ad5d"/>
    <path id="Trazado_510" data-name="Trazado 510" d="M1649.63,881.4h31.534c0-.355,0-.709,0-1.064.01-.594.222-.868.659-.869.463,0,.7.289.705.895q.006,4.322,0,8.641v.714c.242.039.461.06.673.11a2.955,2.955,0,0,1,2.251,2.843c.021,2.6.012,5.2.007,7.808,0,.6-.262.85-.859.859-.446.007-.893,0-1.4,0,0,1.071,0,2.089,0,3.108a3.8,3.8,0,0,1-.02.675.88.88,0,0,1-.227.444,3.077,3.077,0,0,1-2.189-.026,1.273,1.273,0,0,1-.237-.7c-.026-.954-.011-1.908-.011-2.863v-.6H1650.33c0,.276,0,.563,0,.85,0,.9.005,1.8-.012,2.707-.011.571-.236.781-.8.792-.364.007-.729.008-1.093,0-.565-.014-.782-.225-.787-.8-.009-.989,0-1.979,0-2.968v-.621c-.517,0-.98.007-1.443,0-.541-.01-.8-.258-.8-.8-.007-2.654-.022-5.31,0-7.964a2.814,2.814,0,0,1,2.565-2.8c.084-.01.166-.03.317-.059V889.1q0-4.242,0-8.485c0-.156,0-.312,0-.468a.618.618,0,0,1,.633-.677.637.637,0,0,1,.707.666C1649.655,880.549,1649.63,880.962,1649.63,881.4Zm29.725,8.27a2.964,2.964,0,0,0-2.926-3q-2.7-.055-5.4-.005a2.972,2.972,0,0,0-2.962,3Zm-16.665.01a2.95,2.95,0,0,0-2.884-3c-1.838-.051-3.679-.057-5.517,0a2.893,2.893,0,0,0-2.861,3Z" fill="#d2ad5d"/>
  </g>
</svg>
