<svg xmlns="http://www.w3.org/2000/svg" width="69.63" height="69.63" viewBox="0 0 69.63 69.63">
  <g id="Bt_comedor" transform="translate(-1685.202 -765.474)">
    <path id="Trazado_100" data-name="Trazado 100" d="M1720.017,835.1a34.815,34.815,0,1,1,34.815-34.815A34.854,34.854,0,0,1,1720.017,835.1Zm0-65.032a30.217,30.217,0,1,0,30.217,30.217A30.251,30.251,0,0,0,1720.017,770.072Z" fill="#402414"/>
    <g id="Grupo_55" data-name="Grupo 55">
      <path id="Trazado_101" data-name="Trazado 101" d="M1743.654,789.854c-.247,1.039-.508,2.075-.74,3.118-.6,2.7-1.182,5.4-1.779,8.092a1.682,1.682,0,0,1-1.736,1.415c-.12.005-.24.013-.415.024.073.19.128.344.191.494q1.533,3.625,3.069,7.25a1.953,1.953,0,0,1,.149,1.473,1.552,1.552,0,0,1-1.392,1.038,1.522,1.522,0,0,1-1.576-.973c-.543-1.236-1.057-2.486-1.582-3.73-.46-1.089-.934-2.172-1.37-3.27a.511.511,0,0,0-.582-.365c-1.37.014-2.739.016-4.109,0a.552.552,0,0,0-.6.411c-.937,2.253-1.9,4.5-2.842,6.747a1.673,1.673,0,0,1-1.306,1.168,1.578,1.578,0,0,1-1.7-2.235c.472-1.183.986-2.349,1.481-3.523q.868-2.057,1.734-4.116c.047-.111.085-.226.136-.361-.255-.02-.485-.026-.711-.059a1.589,1.589,0,0,1,.211-3.169c1.4-.008,2.8,0,4.2,0h5.876c.423-1.924.837-3.809,1.254-5.694.334-1.513.661-3.028,1.013-4.537a1.528,1.528,0,0,1,1.385-1.223,1.57,1.57,0,0,1,1.648,1c.03.068.067.134.1.2Z" fill="#402414"/>
      <path id="Trazado_102" data-name="Trazado 102" d="M1701.778,799.276h.565q4.755,0,9.51,0a1.588,1.588,0,0,1,1.575,1.119,1.536,1.536,0,0,1-.679,1.8,7.267,7.267,0,0,1-1.381.386c.479,1.139.978,2.325,1.478,3.51.614,1.457,1.238,2.91,1.843,4.37a1.58,1.58,0,0,1-.5,2.013,1.547,1.547,0,0,1-2.248-.459,16.634,16.634,0,0,1-.779-1.717c-.774-1.822-1.55-3.644-2.3-5.475a.55.55,0,0,0-.606-.409c-1.369.019-2.739.022-4.109,0a.544.544,0,0,0-.594.417q-1.414,3.4-2.861,6.789a1.633,1.633,0,0,1-1.977,1.094,1.6,1.6,0,0,1-1-2.26c.73-1.757,1.48-3.507,2.221-5.26.37-.874.738-1.75,1.131-2.682-.176-.015-.3-.031-.43-.036a1.686,1.686,0,0,1-1.737-1.416q-1.077-4.876-2.144-9.756c-.109-.495-.222-.988-.327-1.484a1.62,1.62,0,0,1,1.15-1.974,1.571,1.571,0,0,1,1.945,1.24c.69,3.037,1.351,6.081,2.024,9.122C1701.614,798.541,1701.688,798.87,1701.778,799.276Z" fill="#402414"/>
      <path id="Trazado_103" data-name="Trazado 103" d="M1721.628,795.891V809.61c.359,0,.695-.022,1.027.005a1.531,1.531,0,0,1,1.424,1.577,1.505,1.505,0,0,1-1.443,1.556q-2.629.045-5.26,0a1.5,1.5,0,0,1-1.427-1.524,1.531,1.531,0,0,1,1.393-1.6c.333-.029.671-.005,1.044-.005V795.891h-.532c-2.585,0-5.169,0-7.753,0a1.609,1.609,0,0,1-1.754-1.186,1.582,1.582,0,0,1,1.341-1.98c.153-.015.307-.014.461-.014q9.876,0,19.752,0a1.612,1.612,0,0,1,1.756,1.112,1.56,1.56,0,0,1-1.294,2.038,5.331,5.331,0,0,1-.644.031q-3.762,0-7.523,0Z" fill="#402414"/>
    </g>
  </g>
</svg>
