<svg xmlns="http://www.w3.org/2000/svg" width="69.674" height="69.674" viewBox="0 0 69.674 69.674">
  <g id="Bt_Chimenea" transform="translate(-1356.307 -857.774)">
    <path id="Trazado_164" data-name="Trazado 164" d="M1391.144,927.448a34.837,34.837,0,1,1,34.837-34.837A34.877,34.877,0,0,1,1391.144,927.448Zm0-65.073a30.236,30.236,0,1,0,30.236,30.236A30.271,30.271,0,0,0,1391.144,862.375Z" fill="#402414"/>
    <g id="Grupo_114" data-name="Grupo 114">
      <path id="Trazado_165" data-name="Trazado 165" d="M1413.134,878.522c.02.792.058,1.585.045,2.376a.826.826,0,0,1-.3.523q-1.451,1.227-2.939,2.409a1.107,1.107,0,0,1-.639.2q-18.122.013-36.244,0a1.2,1.2,0,0,1-.689-.24c-.962-.757-1.914-1.528-2.836-2.332a1.222,1.222,0,0,1-.354-.753c-.064-.724-.054-1.454-.073-2.182Z" fill="#402414"/>
      <path id="Trazado_166" data-name="Trazado 166" d="M1409.541,885.4v3.649h-11.42V885.4Z" fill="#402414"/>
      <path id="Trazado_167" data-name="Trazado 167" d="M1373.087,889.09V885.4h11.467c0,1.1.028,2.193-.033,3.278-.008.15-.456.392-.7.4-2.449.03-4.9.018-7.347.018Z" fill="#402414"/>
      <path id="Trazado_168" data-name="Trazado 168" d="M1385.893,888.573v-3.164h10.833v3.213A24.2,24.2,0,0,0,1385.893,888.573Z" fill="#402414"/>
      <path id="Trazado_169" data-name="Trazado 169" d="M1401.045,890.42h8.487v3.6c-1.667,0-3.295,0-4.923-.007a.406.406,0,0,1-.3-.176A9.154,9.154,0,0,0,1401.045,890.42Z" fill="#402414"/>
      <path id="Trazado_170" data-name="Trazado 170" d="M1373.1,890.426h8.136a14.066,14.066,0,0,0-1.381,1.122,11.087,11.087,0,0,0-1.5,1.834,1.125,1.125,0,0,1-1.148.654c-1.349-.045-2.7-.014-4.1-.014Z" fill="#402414"/>
      <path id="Trazado_171" data-name="Trazado 171" d="M1409.507,898.949h-4.54v-3.592h4.54Z" fill="#402414"/>
      <path id="Trazado_172" data-name="Trazado 172" d="M1409.534,903.922h-4.5v-3.55h4.5Z" fill="#402414"/>
      <path id="Trazado_173" data-name="Trazado 173" d="M1377.4,898.951h-4.3v-3.6h4.3Z" fill="#402414"/>
      <path id="Trazado_174" data-name="Trazado 174" d="M1405.029,908.743V905.3h4.478v3.442Z" fill="#402414"/>
      <path id="Trazado_175" data-name="Trazado 175" d="M1377.335,900.358v3.561h-4.243v-3.561Z" fill="#402414"/>
      <path id="Trazado_176" data-name="Trazado 176" d="M1377.33,905.292v3.446h-4.223v-3.446Z" fill="#402414"/>
      <path id="Trazado_177" data-name="Trazado 177" d="M1403.436,896.676a5.019,5.019,0,0,0-1.26-3.238,8.336,8.336,0,0,0-3.021-2.254,19.807,19.807,0,0,0-12.16-1.23,13.127,13.127,0,0,0-5.489,2.246,5.872,5.872,0,0,0-2.595,5.049c.05,3.592.014,7.184.013,10.776v.72h24.522S1403.454,900.59,1403.436,896.676Zm-6.322,6.385a3.679,3.679,0,0,1-.977,2.332,6.969,6.969,0,0,1-3.6,1.911c.061-.057.123-.113.182-.172a3.746,3.746,0,0,0,1.038-3.894c-.138-.51-.352-1-.531-1.5l-.074.015c-.031.256-.049.514-.094.767a3.81,3.81,0,0,1-.817,1.826,1.609,1.609,0,0,1-1.2.645,1.122,1.122,0,0,1-1.309-1.194c-.014-.264,0-.53,0-.779a2.8,2.8,0,0,0-.619,4.387,4.915,4.915,0,0,1-3.424-2.311,4.292,4.292,0,0,1-.017-3.808,25.8,25.8,0,0,1,1.283-2.36,5.5,5.5,0,0,0,.826-1.735c.094-.544.116-1.1.172-1.668a3.089,3.089,0,0,1,1.542,1.877,3.722,3.722,0,0,1,.01,1.126,1.437,1.437,0,0,0,.3,1.206,1.106,1.106,0,0,0,1.213.386,1.175,1.175,0,0,0,.75-1.086,2.932,2.932,0,0,0-.181-.813,11.659,11.659,0,0,1-.467-1.289,4.5,4.5,0,0,1,.556-3.086,5.262,5.262,0,0,1,1.616-1.811c.058-.042.121-.079.207-.134-.037.452-.079.875-.1,1.3a9.1,9.1,0,0,0,.237,2.825,6.252,6.252,0,0,0,1.083,2.028c.55.773,1.121,1.532,1.648,2.321A4.166,4.166,0,0,1,1397.114,903.061Z" fill="#402414"/>
    </g>
  </g>
</svg>
