<svg xmlns="http://www.w3.org/2000/svg" width="69.63" height="69.631" viewBox="0 0 69.63 69.631">
  <g id="Bt_Fogata" transform="translate(-1301.042 -790.288)">
    <path id="Trazado_557" data-name="Trazado 557" d="M1335.857,790.288a34.815,34.815,0,1,0,34.815,34.815A34.855,34.855,0,0,0,1335.857,790.288Zm0,65.033a30.217,30.217,0,1,1,30.217-30.218A30.252,30.252,0,0,1,1335.857,855.321Z" fill="#d2ad5d"/>
    <path id="Trazado_558" data-name="Trazado 558" d="M1338.152,827.075a6.769,6.769,0,0,0,1.462-3.263c.033-.184.058-.369.079-.553l.023.059a18.371,18.371,0,0,1,.605,1.752,6.225,6.225,0,0,1-1.72,6.456c-.071.07-.143.137-.216.2l-.79.738.928-.215a12.224,12.224,0,0,0,6.336-3.362,6.6,6.6,0,0,0,1.752-4.173,7.467,7.467,0,0,0-1.343-4.792c-.616-.923-1.277-1.835-1.916-2.717-.31-.428-.62-.855-.926-1.286a10.377,10.377,0,0,1-1.825-3.406,15.343,15.343,0,0,1-.4-4.786c.029-.5.072-.99.116-1.5l.1-1.245-.567.364c-.088.055-.163.1-.234.152a9.354,9.354,0,0,0-2.858,3.205,7.935,7.935,0,0,0-.983,5.486,7.678,7.678,0,0,0,.485,1.415c.115.273.233.556.326.835a4.81,4.81,0,0,1,.3,1.327,1.764,1.764,0,0,1-1.122,1.622,1.658,1.658,0,0,1-1.813-.6,2.218,2.218,0,0,1-.45-1.879,6.652,6.652,0,0,0-.022-2.017,5.583,5.583,0,0,0-2.764-3.394l-.354-.237-.042.425c-.029.3-.053.6-.077.9-.055.676-.106,1.314-.216,1.95a6.769,6.769,0,0,1-1.039,2.31c-.12.2-.24.395-.354.595q-.234.408-.472.815a33.646,33.646,0,0,0-1.748,3.272,7.585,7.585,0,0,0,.035,6.776c1.184,2.33,3.277,3.328,6.055,4.11l.847.238-.588-.655a4.563,4.563,0,0,1-1.274-3.794,4.963,4.963,0,0,1,1.888-3.108c0,.287-.006.581.01.874a2.171,2.171,0,0,0,2.518,2.3A3.005,3.005,0,0,0,1338.152,827.075Z" fill="#d2ad5d"/>
    <path id="Trazado_559" data-name="Trazado 559" d="M1334.678,833.94l-.013-.187-.182-.045c-.19-.046-.37-.093-.543-.138a11.282,11.282,0,0,0-1.166-.26,1.29,1.29,0,0,0-.995.214l-.109.109c-1.159,1.161-2.359,2.361-3.456,3.629a1.587,1.587,0,0,0,.21,2.618,22.608,22.608,0,0,0,2.175,1.535c.321.207.641.415.957.629l.065.045h.721l.056-.032c.159-.086.321-.166.482-.247a6.207,6.207,0,0,0,1.137-.669c.68-.54,1.008-1,1-1.4-.019-1.433-.128-2.886-.232-4.291Q1334.73,834.7,1334.678,833.94Z" fill="#d2ad5d"/>
    <path id="Trazado_560" data-name="Trazado 560" d="M1329.7,833.707l.221-.093-.078-.226a2.146,2.146,0,0,0-2.436-1.706c-1.749.1-3.6.122-5.645.057a1.607,1.607,0,0,0-1.807,1.3,2.181,2.181,0,0,1-.139.327c-.028.059-.057.117-.083.175l-.022.923.145.38c.092.212.186.423.293.626a2.123,2.123,0,0,0,1.791,1.315,1.693,1.693,0,0,0,.6-.112c1.746-.657,3.488-1.4,5.173-2.121Q1328.707,834.127,1329.7,833.707Z" fill="#d2ad5d"/>
    <path id="Trazado_561" data-name="Trazado 561" d="M1343.214,836.533c-.3-.219-.6-.428-.907-.637a14.244,14.244,0,0,1-1.882-1.446c-1.206-1.165-2.518-.95-4.037-.7l-.291.048.089.28c.169.541.332,1.076.494,1.607.446,1.461.866,2.84,1.383,4.209a1.992,1.992,0,0,0,1.584,1.043l.125,0a5.316,5.316,0,0,0,3.711-1.595,1.757,1.757,0,0,0,.6-1.394A1.958,1.958,0,0,0,1343.214,836.533Z" fill="#d2ad5d"/>
    <path id="Trazado_562" data-name="Trazado 562" d="M1349.624,831.34a49.3,49.3,0,0,1-5.227.345c-1.165.006-1.779.555-2.053,1.836l-.046.217.208.076q.941.345,1.872.693c1.526.569,3.1,1.156,4.668,1.681a1.879,1.879,0,0,0,.609.1,2.445,2.445,0,0,0,1.868-1.06,2.156,2.156,0,0,0,.185-2.461C1351.325,832.009,1350.816,831.213,1349.624,831.34Z" fill="#d2ad5d"/>
  </g>
</svg>
