<svg xmlns="http://www.w3.org/2000/svg" width="222.275" height="290.049" viewBox="0 0 222.275 290.049">
  <g id="BT_Fwd_Galerias" transform="translate(-1486.113 -445.042)">
    <g id="Grupo_382" data-name="Grupo 382">
      <path id="Trazado_583" data-name="Trazado 583" d="M1486.113,707.57V652.284l28.78,27.643v55.164Z" fill="#a35423"/>
      <path id="Trazado_584" data-name="Trazado 584" d="M1486.113,652.284V597.467l62.74,58.2v56.878Z" fill="#20262c"/>
      <path id="Trazado_585" data-name="Trazado 585" d="M1486.113,597.467v-7.4h52.05l92.953,88.033v56.992Z" fill="#fff"/>
      <path id="Trazado_586" data-name="Trazado 586" d="M1538.163,590.067h59.8l72.634,68.087h-60.542Z" fill="#fff"/>
      <path id="Trazado_587" data-name="Trazado 587" d="M1597.965,590.067h59.383l51.04,49.178h-57.961Z" fill="#20262c"/>
      <path id="Trazado_588" data-name="Trazado 588" d="M1486.113,472.563v55.286l28.78-27.643V445.042Z" fill="#a35423"/>
      <path id="Trazado_589" data-name="Trazado 589" d="M1486.113,527.849v54.817l62.74-58.2V467.589Z" fill="#20262c"/>
      <path id="Trazado_590" data-name="Trazado 590" d="M1486.113,582.667v7.4h52.05l92.953-88.033V445.042Z" fill="#fff"/>
      <path id="Trazado_591" data-name="Trazado 591" d="M1538.163,590.067h59.8l72.634-68.087h-60.542Z" fill="#fff"/>
      <path id="Trazado_592" data-name="Trazado 592" d="M1597.965,590.067h59.383l51.04-49.178h-57.961Z" fill="#20262c"/>
    </g>
  </g>
</svg>
