<svg xmlns="http://www.w3.org/2000/svg" width="69.818" height="69.818" viewBox="0 0 69.818 69.818">
  <g id="Bt_juegos_Infantiles" transform="translate(-1465.682 -765.38)">
    <path id="Trazado_104" data-name="Trazado 104" d="M1500.591,835.2a34.909,34.909,0,1,1,34.909-34.909A34.95,34.95,0,0,1,1500.591,835.2Zm0-65.208a30.3,30.3,0,1,0,30.3,30.3A30.333,30.333,0,0,0,1500.591,769.99Z" fill="#d2ad5d"/>
    <g id="Grupo_59" data-name="Grupo 59">
      <g id="Grupo_57" data-name="Grupo 57">
        <path id="Trazado_105" data-name="Trazado 105" d="M1492.023,791.211a.977.977,0,0,0,.687-.28l7.947-7.941,8.1,8.13a.944.944,0,0,0,.675.282h.012a.944.944,0,0,0,.68-.3,1,1,0,0,0-.017-1.385l-8.806-8.839a.9.9,0,0,0-.642-.269h0a.9.9,0,0,0-.641.267l-8.654,8.648a1,1,0,0,0-.02,1.385A.946.946,0,0,0,1492.023,791.211Z" fill="#d2ad5d"/>
      </g>
      <g id="Grupo_58" data-name="Grupo 58">
        <path id="Trazado_106" data-name="Trazado 106" d="M1523,811.91a.876.876,0,0,0-.707-.357h0c-.7,0-1.448,0-2.065.006a.26.26,0,0,1-.226-.1q-2.471-2.948-4.944-5.894-3.664-4.365-7.325-8.732a.523.523,0,0,1-.093-.255q-.008-1.464-.007-2.929c0-.856,0-1.712-.005-2.568a.822.822,0,0,0-.205-.55q-1.792-1.774-3.591-3.542-1.4-1.377-2.8-2.756a.485.485,0,0,0-.769.006l-2.485,2.451q-1.932,1.9-3.861,3.812a.891.891,0,0,0-.241.59c-.008,1.537-.008,3.073-.008,4.61v1.441c0,.031,0,.063,0,.1h-11.9l0,8.545c0,3.257,0,6.329,0,7.635a.915.915,0,0,0,.917.915.916.916,0,0,0,.915-.914c0-2.367,0-10.526,0-14.749v-.094h1.352l.664,10.821h-.049c-.223,0-.432,0-.642,0a.794.794,0,0,0-.837.763.748.748,0,0,0,.21.542.88.88,0,0,0,.638.245q3.7,0,7.392,0a.91.91,0,0,0,.662-.253.744.744,0,0,0,.208-.543.8.8,0,0,0-.868-.754h-.66l.666-10.819h1.468l0,14.839a.915.915,0,0,0,1.83,0V798.571h1.223v14.844a.915.915,0,0,0,1.831,0v-1.5h4.23v.356c0,.368,0,.775,0,1.143a.922.922,0,0,0,1.843.005V798.57h1.039v.076c0,4.214,0,12.4,0,14.769a.918.918,0,0,0,1.836,0V802.963c.243.283.466.566.671.827l1.388,1.76q3.292,4.18,6.592,8.358a.752.752,0,0,0,.532.284c1.088.007,2.177.007,3.265.008q1.065,0,2.128,0h0a.536.536,0,0,0,.561-.407c.083-.257.22-.706.341-1.106A.875.875,0,0,0,1523,811.91Zm-24.078-14.693V793.9a1.861,1.861,0,0,1,3.721,0v3.314Zm2.738,1.336h1.261v2.4H1498.7v-.736q0-.836,0-1.67C1499.684,798.553,1500.67,798.553,1501.656,798.553Zm1.263,8.612v3.216H1498.7v-1.119q0-1.052,0-2.1,1.555.008,3.112.005Zm-1.231-1.468c-.99,0-1.981,0-2.972.005h-.02v-.022c.009-.934.006-1.883,0-2.8v-.427c1.059.006,2.118.006,3.177.006l1.029,0V805.7h-1.217Zm-11.262,3.68h-3.548l-.667-10.812h4.879Z" fill="#d2ad5d"/>
      </g>
    </g>
  </g>
</svg>
