<svg xmlns="http://www.w3.org/2000/svg" width="69.63" height="69.63" viewBox="0 0 69.63 69.63">
  <g id="Bt_la_granja" transform="translate(-1356.265 -765.474)">
    <path id="Trazado_116" data-name="Trazado 116" d="M1391.08,765.474a34.815,34.815,0,1,0,34.815,34.815A34.855,34.855,0,0,0,1391.08,765.474Zm0,65.032a30.217,30.217,0,1,1,30.217-30.217A30.251,30.251,0,0,1,1391.08,830.506Z" fill="#402414"/>
    <path id="Trazado_117" data-name="Trazado 117" d="M1407.913,784.772a1.352,1.352,0,0,0-.189-.051,3.412,3.412,0,0,0-1.45.058,3.611,3.611,0,0,0-1.219.649.4.4,0,0,1-.445.026c-.448-.22-.9-.439-1.356-.633a3.441,3.441,0,0,0-1.92-.248,5.085,5.085,0,0,0-1.729.638.7.7,0,0,1-.717.026c-.37-.177-.736-.363-1.111-.528a2.579,2.579,0,0,0-2.08.014c-.416.17-.482.451-.217.811a4.809,4.809,0,0,0,1.5,1.328,3.11,3.11,0,0,0,1.463.4,1.072,1.072,0,0,0-.11.319.481.481,0,0,1-.184.385.415.415,0,0,0-.147.363.455.455,0,0,1-.1.242c-.091.129-.2.25-.3.371a.237.237,0,0,1-.088.069,3.355,3.355,0,0,0-.36.149.262.262,0,0,1-.351-.044c-.2-.19-.262-.183-.485,0a.281.281,0,0,1-.18.079.5.5,0,0,0-.449.154.332.332,0,0,1-.231.056c-.2-.015-.4-.051-.6-.076-.134-.017-.269-.028-.4-.041a4.028,4.028,0,0,0-.876-.072.422.422,0,0,1-.489-.2.258.258,0,0,0-.372-.092c-.059.028-.124.087-.176.077a3.222,3.222,0,0,0-.7-.04,1.577,1.577,0,0,1-.714-.322.477.477,0,0,0-.5-.028.553.553,0,0,1-.66-.025c-.039-.033-.112-.023-.168-.038a2.792,2.792,0,0,1-.366-.1c-.132-.055-.257-.139-.4-.064a.168.168,0,0,1-.232-.04.268.268,0,0,0-.372-.058.351.351,0,0,1-.454-.006.54.54,0,0,0-.6-.036,1.555,1.555,0,0,1-.281.1.376.376,0,0,0-.5-.272.175.175,0,0,1-.086-.019c-.336-.116-.336-.116-.558.163a.326.326,0,0,1-.05.042c-.3-.212-.33-.205-.593.119-.08-.007-.169-.04-.229-.013a1.078,1.078,0,0,1-.883-.033c-.24-.1-.439-.121-.558.192-.282-.235-.516-.121-.753.053a.533.533,0,0,1-.488.1c-.083-.023-.2.042-.29.075-.053.019-.112.091-.147.079a.566.566,0,0,0-.679.209c-.052-.042-.087-.073-.125-.1a.461.461,0,0,0-.764.143.152.152,0,0,1-.1.073.423.423,0,0,0-.419.279c-.094.2-.234.212-.42.178-.3-.057-.377-.014-.531.259-.036.066-.079.159-.137.176a2.334,2.334,0,0,1-.586.111.433.433,0,0,0-.383.177c-.073.1-.134.211-.209.31a.424.424,0,0,1-.145.117,4.37,4.37,0,0,1-.422.183.6.6,0,0,1-.26.042.465.465,0,0,0-.383.094,1.908,1.908,0,0,1-.336.263,1.171,1.171,0,0,0-.514.55c-.078.161-.149.325-.239.479a.585.585,0,0,1-.205.236.915.915,0,0,0-.5.826.456.456,0,0,1-.066.216,1.144,1.144,0,0,0-.171.608,1.2,1.2,0,0,1-.115.53,1.49,1.49,0,0,0-.293.822.312.312,0,0,1-.056.148.634.634,0,0,0-.014.6.644.644,0,0,1,.063.477.653.653,0,0,0,.029.313c.056.222.123.442.191.662a.589.589,0,0,0,.079.156c.087.128.185.248.269.377a.459.459,0,0,0,.732.1c.062-.057.129-.108.228-.19a1.96,1.96,0,0,0-.026,1,1.1,1.1,0,0,1,.044.434.783.783,0,0,0,.252.706.793.793,0,0,1,.194.319,1.369,1.369,0,0,0,.388.669.256.256,0,0,1,.106.262c-.085.459.211.856.212,1.3,0,.081.1.159.141.243a1.82,1.82,0,0,1,.155.353,2.072,2.072,0,0,0,.276.783.312.312,0,0,1,.018.185,4.562,4.562,0,0,0-.048.829c.145,1.107.341,2.208.477,3.316a10.859,10.859,0,0,1-.062,2.778c-.065.476-.117.955-.158,1.434a.57.57,0,0,0,.2.549.6.6,0,0,1,.251.608,1.369,1.369,0,0,0,.012.214,1.153,1.153,0,0,0,.385.889,2.018,2.018,0,0,0,1.919.224c.22-.079.237-.2.1-.387l-.106-.144c.161.052.292.106.428.135.155.032.208-.034.167-.184a1.2,1.2,0,0,0-.06-.186c-.2-.432-.391-.867-.6-1.293a6.5,6.5,0,0,1-.7-3.8,27.443,27.443,0,0,1,.841-3.953c.037-.128.075-.255.113-.382h.073c.1.692.219,1.383.3,2.078a14.578,14.578,0,0,1-.027,3.154c-.043.407-.077.816-.084,1.225a.884.884,0,0,0,.388.747.31.31,0,0,1,.115.2c.021.279.019.559.031.838a.906.906,0,0,0,.612.878,2.544,2.544,0,0,0,1.612.073c.365-.1.394-.19.2-.523a3.136,3.136,0,0,0,.382.121c.113.02.192-.024.134-.163-.045-.11-.083-.223-.135-.329-.38-.781-.769-1.556-1.141-2.34a3.556,3.556,0,0,1-.371-1.831,18.729,18.729,0,0,1,.5-3.077,10.12,10.12,0,0,1,.967-2.616c.163-.286.292-.32.617-.269.377.058.76.078,1.14.11.073.006.15-.02.223-.014.174.015.347.038.52.062.091.012.182.031.272.05s.171.046.257.065a1.345,1.345,0,0,1,.87.393.5.5,0,0,0,.327.129,1.655,1.655,0,0,1,.82.2.4.4,0,0,0,.266.073,2.842,2.842,0,0,1,.643-.055c.165,0,.33-.005.495,0a.4.4,0,0,1,.216.054.573.573,0,0,0,.517.117.44.44,0,0,1,.288.017.835.835,0,0,0,.532.065,1.224,1.224,0,0,1,1.149.256.141.141,0,0,0,.11.042c.137-.024.173.062.206.164.241.771.508,1.534.722,2.312a14.517,14.517,0,0,1,.534,4.73c-.024.421-.014.844-.007,1.266a.456.456,0,0,0,.2.432.589.589,0,0,1,.3.516c.015.231.025.463.036.7a.9.9,0,0,0,.787.993,5.154,5.154,0,0,0,1.077.094,1.455,1.455,0,0,0,.513-.13c.176-.068.187-.145.076-.3-.044-.062-.1-.117-.143-.173.2.054.4.112.595.156a.5.5,0,0,0,.185-.034.74.74,0,0,0-.046-.2c-.329-.612-.659-1.224-1-1.832a6.877,6.877,0,0,1-.738-4.164q.12-1.162.267-2.321c.05-.387.135-.77.2-1.155l.059,0c.1.384.194.767.284,1.153a12.461,12.461,0,0,1,.443,2.722c0,.646-.069,1.293-.125,1.938a.751.751,0,0,0,.4.866.413.413,0,0,1,.243.366c.032.4.071.8.14,1.186a.61.61,0,0,0,.225.381,2.073,2.073,0,0,0,1.862.211c.317-.113.331-.25.1-.486-.016-.017-.029-.036-.065-.08a1.9,1.9,0,0,0,.194.063,1.482,1.482,0,0,0,.314.048c.17,0,.207-.078.128-.226-.042-.079-.083-.158-.13-.234-.347-.568-.7-1.134-1.043-1.7a3.505,3.505,0,0,1-.549-2.156c.042-.486.05-.975.063-1.463a39.353,39.353,0,0,1,.336-4.072.623.623,0,0,1,.3-.474c.1-.064.213-.1.311-.169a3.877,3.877,0,0,0,.513-.371c.186-.173.34-.379.513-.566a.24.24,0,0,1,.136-.076c.382-.037.43-.442.686-.615,0,0,0-.013.007-.016.05-.036.1-.1.152-.1a.318.318,0,0,0,.3-.218.276.276,0,0,1,.134-.141.4.4,0,0,0,.277-.5c-.013-.068-.029-.135-.042-.192.136-.065.256-.132.382-.182a.25.25,0,0,0,.174-.309.13.13,0,0,1,.1-.175.192.192,0,0,0,.128-.226c-.005-.07,0-.141,0-.212.023-.011.038-.019.054-.025.271-.1.293-.151.2-.418a.579.579,0,0,1-.007-.187c0-.081,0-.163,0-.245s.01-.157.013-.235c.007-.22.249-.441-.021-.652a1.145,1.145,0,0,0,.185-1.415c.05-.049.1-.1.151-.149.324-.266.23-.632.233-.974a.173.173,0,0,0-.062-.1.332.332,0,0,1-.035-.438,1.206,1.206,0,0,0,.069-.333c.008-.046-.01-.1.011-.139a.274.274,0,0,0-.109-.425c.061-.135.117-.259.174-.382a.314.314,0,0,0-.026-.351.252.252,0,0,1-.025-.193c.078-.271.175-.538-.191-.689.267-.179.269-.323.005-.7a3.633,3.633,0,0,0,.388-4.39c.374-.058.714-.086,1.04-.166a3.4,3.4,0,0,0,2.286-1.68C1408.464,785.21,1408.341,784.925,1407.913,784.772Z" fill="#402414"/>
  </g>
</svg>
