<svg xmlns="http://www.w3.org/2000/svg" width="222.275" height="290.049" viewBox="0 0 222.275 290.049">
  <g id="BT_Rwd_Galerias" transform="translate(-211.612 -445.042)">
    <g id="Grupo_384" data-name="Grupo 384">
      <path id="Trazado_593" data-name="Trazado 593" d="M433.887,472.563v55.286l-28.78-27.643V445.042Z" fill="#a35423"/>
      <path id="Trazado_594" data-name="Trazado 594" d="M433.887,527.849v54.817l-62.74-58.2V467.589Z" fill="#20262c"/>
      <path id="Trazado_595" data-name="Trazado 595" d="M433.887,582.667v7.4h-52.05l-92.954-88.033V445.042Z" fill="#fff"/>
      <path id="Trazado_596" data-name="Trazado 596" d="M381.837,590.067h-59.8L249.4,521.979h60.542Z" fill="#fff"/>
      <path id="Trazado_597" data-name="Trazado 597" d="M322.035,590.067H262.652l-51.04-49.178h57.961Z" fill="#20262c"/>
      <path id="Trazado_598" data-name="Trazado 598" d="M433.887,707.57V652.284l-28.78,27.643v55.164Z" fill="#a35423"/>
      <path id="Trazado_599" data-name="Trazado 599" d="M433.887,652.284V597.467l-62.74,58.2v56.879Z" fill="#20262c"/>
      <path id="Trazado_600" data-name="Trazado 600" d="M433.887,597.467v-7.4h-52.05L288.883,678.1v56.992Z" fill="#fff"/>
      <path id="Trazado_601" data-name="Trazado 601" d="M381.837,590.067h-59.8L249.4,658.154h60.542Z" fill="#fff"/>
      <path id="Trazado_602" data-name="Trazado 602" d="M322.035,590.067H262.652l-51.04,49.178h57.961Z" fill="#20262c"/>
    </g>
  </g>
</svg>
