<?xml version="1.0" encoding="utf-8"?>
<!-- Generator: Adobe Illustrator 26.0.0, SVG Export Plug-In . SVG Version: 6.00 Build 0)  -->
<svg version="1.1" id="Layer_1" xmlns="http://www.w3.org/2000/svg" xmlns:xlink="http://www.w3.org/1999/xlink" width="69.674" height="69.674"
	 viewBox="0 0 69.7 69.7" style="enable-background:new 0 0 69.7 69.7;" xml:space="preserve">
<style type="text/css">
	.st0{fill:#d2ad5d;}
</style>
<g id="Bt_Chimenea" transform="translate(-1356.307 -857.774)">
	<path id="Trazado_164" class="st0" d="M1391.1,927.4c-19.2,0-34.8-15.6-34.8-34.8c0-19.2,15.6-34.8,34.8-34.8
		c19.2,0,34.8,15.6,34.8,34.8C1426,911.8,1410.4,927.4,1391.1,927.4z M1391.1,862.4c-16.7,0-30.2,13.5-30.2,30.2
		c0,16.7,13.5,30.2,30.2,30.2c16.7,0,30.2-13.5,30.2-30.2l0,0C1421.4,875.9,1407.8,862.4,1391.1,862.4z"/>
</g>
<g>
	<path class="st0" d="M56.4,22.2H13.3c-1,0-1.9,0.8-1.9,1.9v23.2c0,1,0.8,1.9,1.9,1.9h12.4L23,50.6c-0.4,0.2-0.6,0.7-0.4,1.1
		c0.2,0.3,0.4,0.5,0.8,0.5c0.1,0,0.3,0,0.4-0.1l5.6-2.9h11.1l4.9,2.9c0.4,0.3,1,0.1,1.2-0.4c0.2-0.4,0-0.9-0.4-1.1l-2.4-1.4h12.6
		c1,0,1.9-0.8,1.9-1.9V24.1C58.2,23.1,57.4,22.2,56.4,22.2z M56.8,47.3H12.9V24h43.9V47.3z"/>
	<path class="st0" d="M23.4,53c-0.6,0-1.1-0.3-1.4-0.9c-0.4-0.8-0.1-1.7,0.7-2.2l0.1,0h-9.4c-1.4,0-2.6-1.2-2.6-2.6V24.1
		c0-1.4,1.2-2.6,2.6-2.6h43.1c1.4,0,2.6,1.2,2.6,2.6v23.2c0,1.4-1.2,2.6-2.6,2.6h-9.8l0.1,0.1c0.7,0.4,1,1.3,0.7,2.1
		c-0.2,0.4-0.6,0.7-1,0.8C45.9,53,45.4,53,45,52.7l-4.7-2.8H29.6l-5.4,2.9C23.9,52.9,23.6,53,23.4,53z M13.6,46.6H56V24.8H13.6V46.6
		z"/>
</g>
</svg>
