<svg xmlns="http://www.w3.org/2000/svg" width="29.69" height="29.69" viewBox="0 0 29.69 29.69">
  <g id="Icono" transform="translate(0)">
    <path id="Trazado_195" data-name="Trazado 195" d="M107.8,205.969a14.845,14.845,0,1,1,14.845-14.845A14.862,14.862,0,0,1,107.8,205.969Zm0-27.73a12.884,12.884,0,1,0,12.885,12.884A12.9,12.9,0,0,0,107.8,178.239Z" transform="translate(-92.951 -176.279)" fill="#d2ad5d"/>
    <path id="Trazado_196" data-name="Trazado 196" d="M120.566,195.528a.127.127,0,0,0,.073-.23l-2.212-1.565a.128.128,0,0,0-.147,0l-2.212,1.565a.127.127,0,0,0,.073.23Z" transform="translate(-103.45 -184.234)" fill="#d2ad5d"/>
    <path id="Trazado_197" data-name="Trazado 197" d="M121.679,194.419l-9.426-7.018-4.65,3.462v-.991a.915.915,0,0,0-1.83,0v2.354l-2.946,2.194a.755.755,0,0,0-.148,1.076.8.8,0,0,0,1.1.144l8.469-6.306,8.469,6.306a.8.8,0,0,0,1.1-.144A.756.756,0,0,0,121.679,194.419Z" transform="translate(-97.408 -181.321)" fill="#d2ad5d"/>
    <path id="Trazado_198" data-name="Trazado 198" d="M111.541,198.462l-2.273,1.607a.127.127,0,0,0,.073.231h11.688a.127.127,0,0,0,.074-.231l-2.273-1.607a.124.124,0,0,0-.073-.023h-7.142A.126.126,0,0,0,111.541,198.462Z" transform="translate(-100.282 -186.391)" fill="#d2ad5d"/>
    <path id="Trazado_199" data-name="Trazado 199" d="M106.77,213.716v.021a.855.855,0,0,0,.855.855h3.724v-1.732h-3.724A.855.855,0,0,0,106.77,213.716Z" transform="translate(-99.243 -192.975)" fill="#d2ad5d"/>
    <path id="Trazado_200" data-name="Trazado 200" d="M128.956,212.861h-3.725v1.732h3.725a.854.854,0,0,0,.855-.855v-.021A.855.855,0,0,0,128.956,212.861Z" transform="translate(-107.648 -192.975)" fill="#d2ad5d"/>
    <path id="Trazado_201" data-name="Trazado 201" d="M106.77,208.908v.022a.855.855,0,0,0,.855.855h3.724v-1.732h-3.724A.855.855,0,0,0,106.77,208.908Z" transform="translate(-99.243 -190.78)" fill="#d2ad5d"/>
    <path id="Trazado_202" data-name="Trazado 202" d="M128.956,208.053h-3.725v1.732h3.725a.855.855,0,0,0,.855-.855v-.022A.855.855,0,0,0,128.956,208.053Z" transform="translate(-107.648 -190.78)" fill="#d2ad5d"/>
    <path id="Trazado_203" data-name="Trazado 203" d="M106.77,204.1v.021a.855.855,0,0,0,.855.855h3.724v-1.732h-3.724A.855.855,0,0,0,106.77,204.1Z" transform="translate(-99.243 -188.587)" fill="#d2ad5d"/>
    <path id="Trazado_204" data-name="Trazado 204" d="M128.956,203.246h-3.725v1.732h3.725a.855.855,0,0,0,.855-.855V204.1A.854.854,0,0,0,128.956,203.246Z" transform="translate(-107.648 -188.587)" fill="#d2ad5d"/>
    <path id="Trazado_205" data-name="Trazado 205" d="M116.688,210.113h3.845v-6.867h-3.845Zm3.035-3.747a.314.314,0,1,1-.314.314A.314.314,0,0,1,119.723,206.366Z" transform="translate(-103.765 -188.528)" fill="#d2ad5d"/>
  </g>
</svg>
