<svg xmlns="http://www.w3.org/2000/svg" viewBox="0 0 91.29 161.17"><defs><style>.cls-1{fill:#a35423;}.cls-2{fill:#20262c;}.cls-3{fill:#fff;}</style></defs><title>Flecha_Izq_768</title><g id="Layer_2" data-name="Layer 2"><g id="Layer_1-2" data-name="Layer 1"><polygon class="cls-1" points="91 45.73 91.29 46.02 91.29 15.29 91 15.02 75.3 0 75.3 30.66 91 45.73"/><polygon class="cls-2" points="91 76.2 91.29 76.48 91.29 46.02 91 45.74 75.3 30.66 75.3 30.66 56.43 12.53 56.43 43.39 91 76.2"/><polygon class="cls-3" points="91.29 80.59 91.29 76.48 91 76.2 56.43 44.14 56.43 43.39 10.72 0 10.72 31.67 62.37 80.59 91 80.59 91.29 80.59"/><polygon class="cls-3" points="0 42.75 0 53.27 29.14 80.59 62.37 80.59 22.42 42.75 0 42.75"/><polygon class="cls-2" points="29.14 80.59 0 53.27 0 80.59 29.14 80.59"/><polygon class="cls-1" points="91 146.16 91.29 145.88 91.29 115.16 91 115.44 75.3 130.52 75.3 161.18 91 146.16"/><polygon class="cls-2" points="91 115.44 91.29 115.16 91.29 84.7 91 84.98 56.43 117.79 56.43 148.65 91 115.44"/><polygon class="cls-3" points="22.42 118.42 10.72 129.51 10.72 161.18 56.43 117.79 91 84.98 91 84.97 91.29 84.7 91.29 80.59 91 80.59 62.37 80.59 22.42 118.42 22.42 118.42"/><polygon class="cls-3" points="22.42 118.42 62.37 80.59 29.14 80.59 0 107.9 0 118.42 22.42 118.42"/><polygon class="cls-2" points="0 80.59 0 107.9 29.14 80.59 0 80.59"/></g></g></svg>