<svg xmlns="http://www.w3.org/2000/svg" viewBox="0 0 15.92 79.22"><defs><style>.cls-1{fill:#a35423;}.cls-2{fill:#20262c;}.cls-3{fill:#fff;}</style></defs><title>Flecha_Izq_320</title><g id="Layer_2" data-name="Layer 2"><g id="Layer_1-2" data-name="Layer 1"><polygon class="cls-1" points="8.06 0 8.06 15.06 15.92 22.62 15.92 7.52 8.06 0"/><polygon class="cls-2" points="15.92 37.59 15.92 22.62 8.06 15.07 8.06 15.06 0 7.32 0 22.48 15.92 37.59"/><polygon class="cls-2" points="8.06 15.07 15.92 22.62 8.06 15.06 8.06 15.07"/><polygon class="cls-1" points="8.06 79.22 15.92 71.7 15.92 56.6 8.06 64.15 8.06 79.22"/><polygon class="cls-2" points="8.06 64.15 15.92 56.6 15.92 41.63 15.87 41.67 0 56.74 0 71.89 8.06 64.15 8.06 64.15"/><polygon class="cls-2" points="8.06 64.15 15.92 56.6 15.92 56.6 8.06 64.15 8.06 64.15"/><polygon class="cls-3" points="15.87 41.67 15.92 41.63 15.92 39.61 15.92 37.59 15.92 37.59 0 22.48 0 22.82 0 37.99 0 37.99 0 39.61 0 41.22 0 41.22 0 56.4 0 56.74 15.87 41.67"/></g></g></svg>