<?xml version="1.0" encoding="utf-8"?>
<!-- Generator: Adobe Illustrator 27.5.0, SVG Export Plug-In . SVG Version: 6.00 Build 0)  -->
<svg version="1.1" id="Layer_1" xmlns="http://www.w3.org/2000/svg" xmlns:xlink="http://www.w3.org/1999/xlink" x="0px" y="0px"
	 viewBox="0 0 2000 2000" style="enable-background:new 0 0 2000 2000;" xml:space="preserve">
<style type="text/css">
	.st0{fill:#D2AD5D;}
</style>
<path class="st0" d="M1545.7,618.6c-3.1-23.8-12.1-47.5-26.8-70.4c-3.5-5.5-9.7-11.8-16.2-12.7c-6.9-1-17.3,2.4-20.8,8.5
	c-3.9,6.7-3.3,16.6-1.1,23c2.7,7.7,5.9,15.3,9,22.6c3.3,7.7,6.7,15.7,9.3,23.6c2.9,8.9,3.4,19,3.5,26.8c0.3,39.3,0.4,82.1,0.1,134.8
	c-0.1,18.5-11,36.2-26.2,43.6c-0.1-0.5-0.2-0.9-0.3-1.4c-1.6-6.3-3.2-12.8-4.4-19.1c0-0.6,0.7-2.5,1.2-3.6c0.3-0.7,0.5-1.3,0.8-2
	c0.6-1.7,1.5-3.5,2.4-5.4c2-4.2,4.4-8.9,4.4-14c0-9.8,0.1-19.7,0.2-29.5c0.3-37.4,0.5-76.1-1.6-114.1
	c-3.1-55-52.6-102.1-108.3-102.9c-51.3-0.7-103.4-0.6-153.8-0.6c-21.9,0-43.7,0.1-65.6,0l-7.7,0v-22.7l65.5,0
	c47.9,0,95.9,0,143.8-0.1c32.5-0.1,58.4,6.2,81.2,19.8c6.1,3.6,12.7,4.7,18.6,3.1c5.4-1.5,10-5.3,12.9-10.8
	c5.9-11.2,2.2-22.2-10-29.5c-28.2-16.9-60.7-25.5-96.6-25.5c-89.9,0-179.7,0-269.6,0c-151.6,0-308.3,0.1-462.4-0.2
	c-0.1,0-0.2,0-0.3,0c-95.5,0-175,81-181.9,135.7c-5.9,46.6-9.6,151-1.9,208.6c2.7,20,26.4,45.6,51.7,55.9c3.8,1.6,4,1.9,3.4,8.4
	c-0.7,7.1-0.2,14.2,0.2,21c0.2,3.3,0.4,6.7,0.5,10c0,1.9-0.2,4-0.7,6.5c-0.6,2.6-1.4,5.3-2.2,8.1c-1.8,6-3.7,12.3-3.4,18.8
	c2.9,62.6,6.4,126.2,9.9,187.7l1.3,22.8c2.7,47.9,5.4,95.9,8.1,143.8l4.1,73.1c0.5,8.5,0.9,17,1.3,25.5c0.9,17.6,1.8,35.8,3.2,53.7
	c3.5,47.2,41.5,80.1,92.4,80.2c148.1,0.1,296.3,0.1,444.4,0.1l137,0c20.4,0,41.1,0,61.9,0c39.1,0,78.6,0,117.7-0.2
	c47.1-0.2,82.3-29.7,89.7-75.4c1.2-7.5,1.5-15,1.7-22.4c0.1-3,0.2-6.1,0.4-9.1c0.4-7.9,0.9-15.7,1.3-23.6c1.3-23.1,2.7-47,3.8-70.5
	c0.3-6.7-1.8-12.8-5.8-17.1c-3.8-4-9.1-6.3-15-6.4c-12-0.1-21.1,8.8-21.9,21.3l-1.4,22.7c-1.8,28.6-3.6,58.2-4.9,87.4
	c-1.5,34.2-18,50.1-51.8,50.1c-180.4,0.1-360.9,0.1-541.3,0.1l-94.9,0c-40.2,0-81.8,0-122.7-0.1c-27.5-0.1-46.2-16.2-47.7-41
	c-2.7-45.1-5.2-90.9-7.6-135.2c-1.1-21.2-2.3-42.3-3.4-63.4c-1.9-34.8-3.9-69.7-5.9-104.5l-3.6-64.7c-2.5-44-5-89.4-7.7-134.1
	c-0.3-4.2,0.5-5.3,0.7-5.5c0.2-0.2,1.4-1.1,6-1c23.5,0.4,47.4,0.3,70.4,0.2c8.3,0,16.6,0,24.9,0l10.1,0c11.1,0,22.5,0,33.8-0.2
	c11.7-0.2,19.7-7.6,20.9-19.4c1.2-11.3-5.2-19.8-17.1-22.8c-3.7-0.9-7.4-0.8-10.7-0.8c-0.8,0-1.6,0-2.3,0c-41.7,0-83.5,0-125.2,0
	c-3.9,0-6.4-0.2-7.6-0.5c-0.1-1.9,0.9-6.4,1.2-8l2-9.5c3.3-15.4,6.6-31.3,9.8-47c5.6-27.3,21.3-40,49.4-40c0,0,0,0,0,0
	c104.4,0,208.9,0,313.3,0l183.9,0c96.5,0,193,0,289.6,0.1c19.9,0,36.9,11.8,41.5,28.6c4.6,16.9,8,34.5,11.3,51.5
	c1.4,7.4,2.9,14.8,4.4,22.2c0.3,1.3,0.2,2,0.2,2.3c-0.3,0.1-1.1,0.3-2.8,0.3c-5.7-0.1-11.4-0.1-17,0c-2.9,0-5.9,0.1-8.8,0.1
	l-114.8,0c-178.7,0-357.3,0-536,0l-1.6,0c-5.4,0-11.1,0-16.6,1.2c-11.1,2.5-17,10.8-16,22.3c1,11.4,8.4,18.5,19.6,19.1
	c7.3,0.4,14.7,0.3,21.9,0.3c2.4,0,4.9,0,7.3,0c18.5,0,37.1,0,55.8,0l18.5,0c0.6,2.7,1.3,5.5,1.9,8.2c2,8.7,4,17.2,5.9,25.7
	c7.4,33.5,32.1,53.6,66.1,53.6l4,0c41.1,0.1,83.7,0.1,125.5,0c28.4-0.1,52.9-18.5,60.9-45.7c3.3-11.3,6.2-23.3,8.7-36.8
	c0.8-4.2,1.4-5,6.7-5c0,0,0.1,0,0.1,0c105.6,0.3,209.4,0.3,308.3,0c0,0,0.1,0,0.1,0c4.2,0,5.3,0.8,5.6,1.1c0.3,0.3,1,1.5,0.7,5.9
	c-1.1,16.8-2,34-2.9,50.5c-0.5,9.5-1,19-1.6,28.6c-1.1,19.3-2.2,38.6-3.4,57.8c-1.5,25.6-3,51.2-4.4,76.8
	c-1.9,33.9-3.6,64.5-4.9,95.1c-0.3,6.4,1.6,11.9,5.4,16c3.7,4,9,6.3,14.9,6.6c12.2,0.5,21.4-7.9,22.4-20.6
	c0.7-9.6,1.2-19.4,1.7-28.9c0.2-3.6,0.4-7.2,0.6-10.8l2.5-46.2c1.5-28.4,3.1-56.8,4.6-85.2c0.8-14,1.6-28.1,2.4-42.2
	c1.9-33.1,3.9-67.3,5.4-101c0.2-5.2-1.1-10-2.4-14.7c-0.7-2.5-1.3-4.8-1.7-7c-0.8-4.5-1.1-8.7-1-12.5c0-1,0.4-2.3,0.7-3.7
	c0.5-2.1,1.1-4.4,1-7.1c-0.1-3.4-0.8-7-1.4-10.4c-0.9-5.3-1.9-10.8-0.4-13.5c1.4-2.6,6.2-4.8,10.7-6.8c3.6-1.6,7.4-3.3,10.6-5.6
	c20.9-14.9,33.8-34.4,37.4-56.4C1552.7,749.6,1551.4,662.2,1545.7,618.6z M547.4,638c2.3-41.3,33.1-69.1,76.6-69.2
	c54-0.1,107.9-0.1,161.9-0.1c21.2,0,42.4,0,63.5,0l34.7,0c44.6,0,89.3,0,133.9,0.1c111.9,0.1,227.6,0.2,341.4-0.3c0.1,0,0.3,0,0.4,0
	c41,0,68.9,27.9,75.3,55.6c1.1,4.6,1.7,9.3,2.3,14.2c0.3,2.7,0.4,5.5,0.4,8.9c0,29.5,0,59.1,0,88.5v15.6
	c-16.6-10.6-36.2-15.4-62.2-15.4c-0.1,0-0.2,0-0.3,0c-238.9,0.3-481.8,0.2-716.7,0.2l-60.4,0c0,0,0,0,0,0c-18.4,0-35.3,5-51.3,15.4
	c-0.1-9.8-0.2-19.6-0.3-29.1C546.2,693.2,545.9,665.7,547.4,638z M505.1,631.1L505.1,631.1c-1.8,33.6-1.6,67.8-1.5,100.9
	c0.1,13.6,0.1,27.7,0.1,41.6c0,3.7,0,8.8,3.2,12c7.2,7.3,5.7,14.3,2.8,25.2c-0.7,2.4-1.3,4.9-1.8,7.4c-14.4-6.7-25.9-24.2-26-41.1
	c-0.1-8.9-0.2-17.9-0.3-26.8c-0.4-38.2-0.9-77.7,0.6-116.4c2.6-71.2,62-128.4,135.2-130.3c29.3-0.8,58.9-1,88.4-1
	c23.3,0,46.4,0.1,69.2,0.3c21.5,0.1,43.6,0.3,65.5,0.3v22.5l-28.5,0c-25.5,0-50.8,0-76,0c-11.4,0-22.8,0-34.2,0
	c-28.5-0.1-57.9-0.1-86.8,0.5C557.3,527.5,508.1,574.6,505.1,631.1z M884.7,525.3V504h214.7v21.3H884.7z M1085.3,927.6
	c-0.6,2.2-1.1,4.3-1.7,6.5c-2.6,10-5,19.4-8.6,28.2v0c-2.4,5.9-8.7,9.4-16.9,9.4c-43.8,0-87.7,0-131.5,0c-8.6,0-15-3.7-17.6-10.1
	c-3.5-8.7-5.8-17.9-8.2-27.6c-0.5-2.1-1.1-4.2-1.6-6.4H1085.3z"/>
<g>
	<path class="st0" d="M986.2,1255.2c-2.8,1.6-5.2,2.9-7.6,4.3c-14,8.1-27.9,16.2-41.9,24.2c-1.2,0.7-1.7,1.5-1.7,2.9
		c0,14.3,0,28.7,0,43c0,4.7-1.3,8.8-5.1,11.8c-4.4,3.4-9.3,4.2-14.4,1.7c-5.1-2.5-8-6.6-8-12.4c0-9.7,0.1-19.4,0.2-29.1
		c0-0.2-0.1-0.4-0.2-0.9c-3.3,1.8-6.5,3.6-9.7,5.4c-5.6,3.2-11.2,6.4-16.8,9.7c-9.5,5.6-19.5-1.6-20.6-9.9
		c-0.7-5.5,1.3-9.9,5.9-12.8c4.9-3.2,10.1-6,15.2-8.9c3.6-2.1,7.2-4.2,10.8-6.2c0.5-0.3,1-0.7,1.7-1.2c-4.5-2.6-8.7-5-12.9-7.4
		c-4.5-2.6-9-5.1-13.5-7.6c-4.9-2.8-7.3-7.1-6.8-12.7c0.5-5.9,3.8-9.9,9.3-11.9c3.9-1.5,7.6-0.8,11.2,1.2
		c12.8,7.3,25.6,14.5,38.4,21.8c1.4,0.8,2.3,0.7,3.7,0c13-7.6,26.1-15.1,39.1-22.6c3.3-1.9,6.5-3.9,10.1-6c-0.7-0.5-1.3-0.9-1.9-1.2
		c-15.8-9.1-31.6-18.2-47.4-27.4c-1.3-0.8-2.3-0.8-3.7,0c-12.6,7.2-25.2,14.3-37.8,21.5c-4.3,2.5-8.7,2.9-13.3,0.8
		c-9.5-4.5-10.7-17.1-2-23.1c3.7-2.6,7.9-4.7,11.8-6.9c4.6-2.7,9.3-5.3,13.9-8c0.5-0.3,1-0.6,1.6-1.1c-2.1-1.2-3.9-2.4-5.8-3.4
		c-6.9-4-13.8-8-20.7-12c-4.5-2.6-7-6.4-7.1-11.6c-0.1-5.3,2.3-9.4,6.8-12.1c4.5-2.6,9.1-2.7,13.7-0.1c8.2,4.8,16.4,9.6,24.6,14.3
		c0.6,0.3,1.2,0.7,2.1,1.2c0-1,0-1.6,0-2.3c-0.1-9.2-0.1-18.3-0.2-27.5c-0.1-8.1,5.8-14.3,13.7-14.4c7.5-0.1,13.8,6.4,13.8,14.2
		c0.1,14.7,0.2,29.4,0.2,44c0,1.3,0.4,2,1.5,2.7c16.1,9.3,32.2,18.6,48.3,27.9c0.3,0.2,0.6,0.3,1.1,0.6c0.1-0.7,0.2-1.2,0.2-1.8
		c-0.1-18.3-0.2-36.6-0.1-55c0-1.8-0.6-2.7-2.1-3.6c-12.3-7.1-24.4-14.5-36.8-21.5c-7.8-4.4-9.1-12.2-6.6-18
		c3.3-7.4,11.9-10.3,19.3-6.2c5.2,2.9,10.2,6,15.3,9c3.5,2,7,3.9,10.8,6c0-1.2,0-2.2,0-3.3c0-9,0-18,0-27c0-6,3.4-11.1,8.8-13.2
		c5.5-2.1,11.5-0.7,15.4,3.7c2.5,2.8,3.4,6.2,3.3,9.9c-0.1,8.9,0,17.9,0,26.8c0,0.9,0,1.8,0,3.1c2.7-1.6,5.1-3,7.5-4.4
		c6.1-3.6,12.3-7.1,18.4-10.7c7.5-4.3,14.3-1.2,17.5,2.8c5.4,6.6,4,15.9-3.3,20.5c-3,1.9-6.2,3.5-9.3,5.3
		c-9.8,5.8-19.5,11.5-29.2,17.3c-1.2,0.7-1.7,1.6-1.7,3c0,18.5,0,37-0.1,55.5c0,0.3,0.1,0.7,0.1,1.3c0.7-0.3,1.3-0.5,1.8-0.8
		c11.2-6.5,22.4-13.1,33.6-19.6c4.6-2.7,9.3-5.3,14-7.8c1.2-0.7,1.7-1.4,1.7-2.9c0.1-14.9,0.2-29.8,0.3-44.7
		c0.1-7.4,6.2-13.4,13.7-13.5c7.4-0.1,13.7,6,13.7,13.5c0,9.6-0.2,19.3-0.3,28.9c0,0.5,0,0.9,0,1.6c0.6-0.2,1-0.3,1.4-0.5
		c8.4-4.9,16.8-9.9,25.2-14.8c9.2-5.3,20.3,0.6,20.8,11.2c0.2,4.9-1.7,9.1-6.1,11.7c-8.5,5-17,9.8-25.4,14.7
		c-0.7,0.4-1.4,0.8-2.4,1.4c0.7,0.4,1.1,0.7,1.6,0.9c8.5,4.8,17,9.5,25.4,14.4c5.8,3.4,8,10.6,5.4,16.5c-2.9,6.4-9.6,9.9-16,8
		c-2.3-0.7-4.5-2-6.6-3.2c-11.9-6.7-23.8-13.5-35.7-20.2c-0.9-0.5-1.6-0.5-2.6,0c-16.1,9.3-32.2,18.6-48.3,27.8
		c-0.4,0.3-0.8,0.6-1.5,1c0.6,0.5,1.1,0.8,1.5,1.1c16.1,9.3,32.2,18.6,48.3,27.9c1,0.6,1.6,0.4,2.6-0.1c12.9-7.4,26-14.6,38.9-22.1
		c8.6-5,18.6,0.5,20.3,9c1.1,5.7-1.1,11.1-6.6,14.3c-6.7,4-13.6,7.7-20.3,11.6c-2,1.1-4,2.2-6.1,3.4c0.6,0.4,1.1,0.9,1.7,1.2
		c8,4.6,15.9,9.3,24,13.8c4.4,2.5,7.5,5.9,8,11.1c0.5,5.1-1.3,9.3-5.4,12.3c-4.1,3.1-8.7,3.9-13.4,1.7c-3.8-1.9-7.5-4.2-11.2-6.3
		c-5.6-3.2-11.3-6.5-17.3-10c0,1.2,0,2,0,2.8c0.1,9.2,0.2,18.3,0.3,27.5c0,6.4-4,11.7-10.2,13.4c-6.7,1.9-17.1-2.4-17.2-13.6
		c-0.2-14.6-0.3-29.1-0.4-43.7c0-1.5-0.4-2.4-1.8-3.2c-15.8-9.1-31.6-18.3-47.4-27.4c-0.5-0.3-1.1-0.6-1.9-0.9
		c-0.1,0.6-0.2,1.1-0.2,1.5c0,17.9,0.1,35.8,0,53.7c0,2.5,0.6,4,2.9,5.3c11.9,6.9,23.7,13.9,35.5,20.9c4.3,2.6,7.7,5.9,8.3,11.1
		c0.5,5-1.2,9.2-5.1,12.3c-4,3.1-8.5,4.1-13.2,2c-3.6-1.7-7-3.8-10.4-5.8c-5.4-3.1-10.9-6.3-16.3-9.5c-0.4-0.2-0.8-0.4-1.6-0.8
		c0,0.9,0,1.5,0,2.1c0,9.6,0,19.1,0,28.7c0,6.6-4.5,12.1-10.8,13.4c-6.6,1.3-13.1-1.9-15.5-8c-0.8-2.1-1.1-4.4-1.1-6.7
		c-0.1-9,0-18.1,0-27.1c0-0.6,0-1.3,0-2.2c-1.1,0.5-1.9,0.9-2.7,1.4c-7.2,4.2-14.4,8.4-21.6,12.6c-2.7,1.6-5.4,3-8.7,3
		c-5.8,0-11.2-4-12.9-9.6c-1.8-5.9,0.1-11.9,5.3-15.1c7.4-4.6,14.9-8.9,22.4-13.3c5.5-3.3,11-6.7,16.6-9.9c1.3-0.8,1.7-1.6,1.7-3.1
		c-0.1-17.4,0-34.8,0-52.1C986.2,1258.5,986.2,1257.1,986.2,1255.2z"/>
</g>
<g id="Icono_Balon" transform="translate(-942.934 -625.228)">
	<path id="Path_108" class="st0" d="M1943.1,639.5c-547.2-0.1-990.9,443.5-991,990.7c-0.1,547.2,443.5,990.9,990.7,991
		c547.2,0.1,990.9-443.5,991-990.7c0,0,0-0.1,0-0.1C2933.2,1083.5,2490,640.2,1943.1,639.5z M1943.1,2490.4c-475,0-860-385-860-860
		s385-860,860-860s860,385,860,860c0,0,0,0,0,0C2802.5,2105.1,2417.8,2489.9,1943.1,2490.4z"/>
</g>
</svg>
