<svg xmlns="http://www.w3.org/2000/svg" width="115.854" height="115.855" viewBox="0 0 115.854 115.855">
  <g id="Icono_Camping" transform="translate(-897.323 -1319.154)">
    <path id="Trazado_654" data-name="Trazado 654" d="M955.25,1435.009a57.927,57.927,0,1,1,57.927-57.927A57.993,57.993,0,0,1,955.25,1435.009Zm0-108.2a50.276,50.276,0,1,0,50.277,50.277A50.332,50.332,0,0,0,955.25,1326.805Z" fill="#c87337"/>
    <path id="Trazado_655" data-name="Trazado 655" d="M955.244,1331.483a45.6,45.6,0,1,0,45.592,45.6A45.6,45.6,0,0,0,955.244,1331.483ZM948,1393.353l-5.2-28.986-9.693,25.209,5.8,3.777H924.939l14.645-29.876L918.6,1393.214a.578.578,0,0,1-.944-.666l25.142-35.637,17.864,36.442Zm43.893-.294-18.982-26.8,12.975,27.093H962.4l-17.864-36.442s12.509,6.507,25.418,3.177L992.84,1392.4a.578.578,0,1,1-.948.66Z" fill="#402414"/>
  </g>
</svg>
