<svg xmlns="http://www.w3.org/2000/svg" width="115.854" height="115.854" viewBox="0 0 115.854 115.854">
  <g id="Icono_Basquetbol" transform="translate(-897.323 -1657.924)">
    <path id="Trazado_614" data-name="Trazado 614" d="M955.25,1773.778a57.927,57.927,0,1,1,57.927-57.927A57.993,57.993,0,0,1,955.25,1773.778Zm0-108.2a50.277,50.277,0,1,0,50.277,50.277A50.334,50.334,0,0,0,955.25,1665.574Z" fill="#c87337"/>
    <path id="Trazado_615" data-name="Trazado 615" d="M955.25,1670.265a45.36,45.36,0,1,0,45.36,45.36A45.36,45.36,0,0,0,955.25,1670.265Zm18.975,25.546a27.606,27.606,0,0,1,6.759,9.99,1.847,1.847,0,0,1-.025.234,16.683,16.683,0,0,1-1.277,4.221,10.43,10.43,0,0,1-4.505,4.811,9.187,9.187,0,0,1-2.552,1.008,46.353,46.353,0,0,0-.354-13.223,41.256,41.256,0,0,0-3.714-11.178A28.02,28.02,0,0,1,974.225,1695.811Zm-26.243-6.59a26.381,26.381,0,0,1,5.54-.914,5.1,5.1,0,0,0,.508-.06l.129-.02h2.293c.148.016.347.032.508.045.395.031.8.063,1.181.124,1.5.243,2.737.464,3.886.695a13.56,13.56,0,0,1,1.456.413l.261.083a34.4,34.4,0,0,1,3.926,7.812,32.991,32.991,0,0,1,1.526,5.731c.288,1.75.478,3.318.581,4.792a42.89,42.89,0,0,1,.061,4.558c-.038,1.031-.14,2.048-.248,3.125,0,0-.046.451-.063.633-.212-.024-.4-.049-.572-.083a14.966,14.966,0,0,1-6.992-3.684,31.8,31.8,0,0,1-5.225-6.163c-.244-.354-.485-.709-.727-1.063-1.319-1.932-2.682-3.93-4.221-5.777a22.4,22.4,0,0,0-6.039-5.312,16.758,16.758,0,0,0-4.923-1.859A27.332,27.332,0,0,1,947.982,1689.221Zm-12.94,7.805c.53-.566,1.12-1.112,1.691-1.64.177-.163.352-.325.526-.489a14.889,14.889,0,0,1,9.449,3.689,34.467,34.467,0,0,1,5.169,6.053c.487.691.979,1.4,1.412,2.032.818,1.184,1.657,2.4,2.526,3.579a25.209,25.209,0,0,0,7.469,6.933,15.448,15.448,0,0,0,5.7,2.081c-.042.209-.09.428-.147.644-.185.7-.38,1.406-.568,2.086l-.009.032c-.1.371-.2.731-.3,1.088-.356-.065-.712-.128-1.06-.189l-.043-.008c-.762-.133-1.626-.284-2.455-.464-1.931-.423-3.919-.857-5.877-1.4s-4.063-1.188-6.4-1.973a74.885,74.885,0,0,1-8.31-3.383,53.762,53.762,0,0,1-10.907-6.619,25.36,25.36,0,0,1-3.4-3.276A27.505,27.505,0,0,1,935.042,1697.026Zm-1.459,35.458s-.35-.091-.537-.138a27.537,27.537,0,0,1-3.376-5.947,26.93,26.93,0,0,1-1.433-4.583,24.272,24.272,0,0,1-.573-4.172c-.008-.192-.017-.385-.026-.578-.031-.652-.063-1.319-.04-1.955a26.411,26.411,0,0,1,.668-5.267c.055-.228.111-.456.17-.688a37.676,37.676,0,0,0,6.5,5.166,65.957,65.957,0,0,0,11.171,5.742c2.593,1.042,5.016,1.926,7.408,2.7,2.028.66,4.217,1.27,6.889,1.92,1.718.418,3.464.776,5.152,1.122,0,0,.857.176,1.335.276-.061.141-.569,1.338-.66,1.554a11.379,11.379,0,0,0-1.681-.117c-.44,0-.894.021-1.39.064a37.048,37.048,0,0,0-7.53,1.539c-1.536.462-3.077.946-4.567,1.414l-.147.046c-.892.28-1.815.57-2.723.851a39.568,39.568,0,0,1-5.677,1.387c-.875.136-1.79.208-2.675.279l-.478.038c-.344.028-.7.042-1.059.042a16.132,16.132,0,0,1-2.733-.245C934.906,1732.825,934.233,1732.651,933.583,1732.484Zm18.409,10.816a.408.408,0,0,1-.154.044h-.006a27.514,27.514,0,0,1-8.089-2.31,27.916,27.916,0,0,1-7.321-4.912c.681.064,1.378.1,2.079.1.763,0,1.563-.038,2.379-.112a40.476,40.476,0,0,0,8.412-1.816q1.277-.395,2.552-.8l.09-.028c1.476-.462,3.149-.985,4.758-1.468a35.536,35.536,0,0,1,6.143-1.311,14.07,14.07,0,0,1,1.637-.1c.088,0,.176,0,.263,0a35.116,35.116,0,0,1-5.3,7.142A28.456,28.456,0,0,1,951.992,1743.3Zm13.373-1.65a26.271,26.271,0,0,1-7.037,1.722c-.235.022-.484.041-.754.059a33.91,33.91,0,0,0,7.348-7.393,36.606,36.606,0,0,0,2.972-4.749,5.379,5.379,0,0,1,2.659,3.266,11.749,11.749,0,0,1,.524,4.032A26.781,26.781,0,0,1,965.365,1741.65Zm8.589-5.253-.005-.043a11.75,11.75,0,0,0-1.1-3.979,8.072,8.072,0,0,0-3.713-3.782c.149-.353.285-.678.417-1,.178-.442.322-.812.449-1.158l.208.026c.981.123,1.995.25,3.02.339,1.4.122,2.808.2,4.053.268.766.042,1.53.053,2.269.064h.04c.246,0,.509.005.829.005h.2A28.11,28.11,0,0,1,973.954,1736.4Zm7.734-12.312c-.331,0-.667.008-.969.014h-.069c-.419.007-.9.015-1.347.015-.384,0-.731-.006-1.058-.017-1.48-.053-3.089-.146-5.065-.294-.681-.051-1.352-.135-2.062-.224l-.052-.006c.056-.191.115-.405.168-.624.3-1.233.589-2.467.86-3.667a12.979,12.979,0,0,0,5.8-2.323,13.363,13.363,0,0,0,4.645-5.575,27.869,27.869,0,0,1-.85,12.7Z" fill="#402414"/>
  </g>
</svg>
