<svg xmlns="http://www.w3.org/2000/svg" width="115.854" height="115.855" viewBox="0 0 115.854 115.855">
  <g id="Icono_Comida" transform="translate(-1257.409 -1319.154)">
    <path id="Trazado_656" data-name="Trazado 656" d="M1315.335,1435.009a57.927,57.927,0,1,1,57.928-57.927A57.992,57.992,0,0,1,1315.335,1435.009Zm0-108.2a50.276,50.276,0,1,0,50.277,50.277A50.333,50.333,0,0,0,1315.335,1326.805Z" fill="#c87337"/>
    <path id="Trazado_657" data-name="Trazado 657" d="M1315.336,1331.483a45.6,45.6,0,1,0,45.6,45.6A45.6,45.6,0,0,0,1315.336,1331.483Zm-.936,37.087c-1.176,1.337-2.374,2.655-3.541,4a1.233,1.233,0,0,0-.309.742c.012,2.265.056,4.529.095,6.794.033,1.829.074,3.657.108,5.486.038,2.028.071,4.056.11,6.085q.049,2.5.109,4.995c.035,1.519.036,3.041.117,4.558a3.641,3.641,0,0,1-3.791,3.761,6.493,6.493,0,0,1-2.7-.329,3,3,0,0,1-2.11-2.76c-.057-2.292-.025-4.587-.01-6.88.007-.975.085-1.949.1-2.924.045-2.846.072-5.692.114-8.538.028-1.938.068-3.875.108-5.813.032-1.538.086-3.075.092-4.613a1.108,1.108,0,0,0-.341-.643c-.812-.873-1.683-1.693-2.459-2.595a18.6,18.6,0,0,1-1.516-2.129,3.076,3.076,0,0,1-.4-2.309c.14-.763,1.81-12.662,2.237-15.641a.772.772,0,0,1,.765-.663h.089a.773.773,0,0,1,.774.762c.043,4.232.429,8.465.434,12.7a2.938,2.938,0,0,0,.1.627c.15.648.435.884,1.015.856a1,1,0,0,0,.95-.978c.078-1.042,1.186-10.291,1.47-13.267a.774.774,0,0,1,1.54,0c.27,2.76,1.323,12.413,1.353,12.952.045.81.473,1.316,1.1,1.294.648-.023.979-.472.979-1.331,0-4.283.387-8.567.43-12.85a.772.772,0,0,1,.773-.762h.194a.772.772,0,0,1,.765.663c.419,2.931,2.041,13.874,2.184,15.165A4.4,4.4,0,0,1,1314.4,1368.57Zm18.168-4.257a3.732,3.732,0,0,0-.108.547,29.318,29.318,0,0,1-.964,6.065,34.9,34.9,0,0,1-2.572,6.259,6.868,6.868,0,0,0-.686,2,9.724,9.724,0,0,0,.091,2.262c.111,1.046.271,2.087.421,3.129.154,1.059.327,2.115.481,3.173.173,1.183.346,2.366.495,3.552.159,1.259.3,2.522.43,3.785.059.572.1,1.148.116,1.723.046,1.537.091,3.075.108,4.613a3.412,3.412,0,0,1-2.961,3.456,6.439,6.439,0,0,1-3.692-.307,3.313,3.313,0,0,1-1.958-2.877q.008-25,.01-50a2.326,2.326,0,0,1,1.041-2.206,5.022,5.022,0,0,1,1.023-.336h.218a15.444,15.444,0,0,1,1.815.8,12.341,12.341,0,0,1,3.149,2.915,15.349,15.349,0,0,1,3.1,6.01c.181.712.3,1.44.444,2.161Z" fill="#402414"/>
  </g>
</svg>
