<?xml version="1.0" encoding="UTF-8"?>
<svg id="Layer_1" xmlns="http://www.w3.org/2000/svg" viewBox="0 0 115.854 115.854">
    <defs>
        <style>.cls-1{fill:#402414;}.cls-2{fill:none;stroke:#c87337;stroke-miterlimit:10;stroke-width:7.00px;}
        </style>
    </defs>
    <path class="cls-1" d="m57.93,11.90c-25.49,0-46.15,20.66-46.15,46.15s20.66,46.15,46.15,46.15,46.15-20.66,46.15-46.15-20.66-46.15-46.15-46.15Zm21.8,16.25c-.2.22-.78.4-1.3.58.03.57-.05,1.12-.27,1.4-.04.05-.08.1-.14.14.14.51.16,1.08.47,2.19.28,1.01-2.11,1.47-3.05.68-.52-.44-.63-1.01-.63-1.43l-8.12,6.04-4.03,3.02c-.67.5-1.19,1.18-1.51,1.95l-1.88,4.54c-.44,1.06-.67,2.2-.67,3.36v1.34s5.19-2.55,7.71-1.57c.25.1.49.21.73.33.15-.15.32-.27.53-.34,1.32-.42,2.49.69,3.12,1.25,2.06,1.79,3.15,2.96,4.57,5.16,1.24,1.92-1.9-2.19-3.74-3.77-1.84-1.58-2.13-1.54-2.82-1.6-.19-.01-.36-.01-.52,0,1.65,1.24,3.06,3.34,4.55,7.07.74,1.84,2.03,5.6,1.79,7.26-.19,1.37-.95,4.04-1.25,5.39-.36,1.64-.34,4.18-1.06,5.38-1.22,2.04-5.83,4.09-7.44,5.45-.46.39-1.51,1.86-1.51,1.86,0,0,2.14,1.01,2.21,1.93.03.4-.66.5-1.05.44-.72-.12-1.1-1.38-1.75-1.7-.35-.17-1.22.06-1.54.28-.76.51-1.77,2.19-1.96,3.09-.4,1.85.05,5.38-.28,7.58-.19,1.22-4.68,1.01-4.93-.35-.28-1.53.9-10.18-1.1-8.26l-2.39,1.46-.25-2.46-5.51-.35-1.12,2.67s-1.4.7-2.95.28c-1.54-.42-2.09-2.02-2.37-3.7-.28-1.68-5.1-1.58-5.1-1.58,0,0,1.02-5.38.46-7.07-.34-1.02-1.07-1.99-1.59-2.6-.36-.42-.45-1.01-.23-1.52l3.22-7.53s2.74-4.3,5.4-4.86c2.67-.56,4.26-.89,4.26-.89l.16-4.21,3.93-6.03.98-1.96s.18-1.81.3-2.68c.24-1.73,1.13-2.73,2.1-2.89,1.01-.17,2.53-.79,2.53-.79l-1.7-1.63-.56-2.39s-1.13-.95-1.12-1.4c.03-1.17,2.38-2.72,3.46-3.16.79-.32,2.43-.07,2.85,1.89.42,1.96.42,5.19,1.12,5.33.7.14,1.58.67,6.45-2.95,1.86-1.38,7.86-4.91,7.86-4.91l1.72-2.91c-.11-.5-.26-.98-.36-1.22-.37-.84-.95-1.81-1.25-2.23-1.2-1.7-1.51-2.64-1.46-3.61.02-.44.52-1.63,1.48-.94.96.69,1.98,3.19,1.98,3.19,0,0,.15-.08,2.1-.64.88-.25,3.09,4.87,2.45,5.57Z"/>
    <circle class="cls-2" cx="57.93" cy="57.93" r="53.5"/>
</svg>