<svg xmlns="http://www.w3.org/2000/svg" width="115.853" height="115.855" viewBox="0 0 115.853 115.855">
  <g id="Icono_Hiking" transform="translate(-1437.452 -1319.154)">
    <path id="Trazado_658" data-name="Trazado 658" d="M1495.378,1435.009a57.927,57.927,0,1,1,57.927-57.927A57.992,57.992,0,0,1,1495.378,1435.009Zm0-108.2a50.276,50.276,0,1,0,50.277,50.277A50.333,50.333,0,0,0,1495.378,1326.805Z" fill="#c87337"/>
    <path id="Trazado_659" data-name="Trazado 659" d="M1495.427,1331.323a45.759,45.759,0,1,0,45.714,45.759A45.736,45.736,0,0,0,1495.427,1331.323Zm2.008,17.1a5.91,5.91,0,1,1-5.979,5.874A5.923,5.923,0,0,1,1497.435,1348.425Zm-21.75,28.851c.886-3.76,1.745-7.526,2.7-11.267a13.4,13.4,0,0,1,1.338-3.228,5.035,5.035,0,0,1,4.474-2.563c.7.13,1.418.227,2.113.4a1.566,1.566,0,0,1,1.186,2.03q-1.837,7.386-3.686,14.769c-.14.558-.263,1.122-.431,1.671a1.583,1.583,0,0,1-1.971,1.132q-2.251-.521-4.5-1.064A1.487,1.487,0,0,1,1475.685,1377.276Zm13.432,12.827c-1.189,4.423-2.347,8.855-3.52,13.282a3.024,3.024,0,0,1-3.693,2.242,2.988,2.988,0,0,1-2.207-3.7q2.134-8.166,4.307-16.323c.025-.1.056-.19.133-.452,1.135,1.921,2.972,2.811,4.6,3.945A.788.788,0,0,1,1489.117,1390.1Zm25.99-22.314c-.573,4.344-1.132,8.691-1.7,13.035q-1.025,7.8-2.059,15.6c-.354,2.692-.694,5.386-1.038,8.08-.114.89-.388,1.225-1.01,1.22a.922.922,0,0,1-1.019-1.1c.21-2.089.442-4.175.662-6.263q.468-4.452.93-8.9.519-4.944,1.045-9.885c.049-.47.09-.941.146-1.537h-.725l-6.427,0a2.981,2.981,0,0,1-2.655-1.41q-1.492-2.271-2.99-4.538c-.122-.186-.251-.367-.478-.7-.221,1.018-.41,1.882-.6,2.747-.619,2.874-1.227,5.751-1.867,8.621a.652.652,0,0,0,.3.815c1.908,1.33,3.772,2.726,5.706,4.017a4.306,4.306,0,0,1,1.982,3.161c.575,3.782,1.24,7.55,1.881,11.322a3.041,3.041,0,0,1-2.474,3.6,3,3,0,0,1-3.486-2.47q-.894-5.074-1.713-10.16a1.532,1.532,0,0,0-.7-1.139q-4.535-3.053-9.039-6.148a5.137,5.137,0,0,1-2.264-6q1.84-7.3,3.706-14.585a3.669,3.669,0,0,1,4.321-3.034c1.33.134,2.653.341,3.977.528a3.86,3.86,0,0,1,2.789,1.843c1.562,2.4,3.152,4.777,4.71,7.177a.919.919,0,0,0,.9.468c1.709-.022,3.419-.008,5.129-.01.2,0,.4-.018.644-.029.172-1.585.342-3.135.507-4.686.1-.944.58-1.315,1.552-1.186C1514.882,1366.4,1515.235,1366.819,1515.107,1367.789Z" fill="#402414"/>
  </g>
</svg>
