<svg xmlns="http://www.w3.org/2000/svg" width="115.854" height="115.854" viewBox="0 0 115.854 115.854">
  <g id="Icono_Alberca" transform="translate(-897.323 -1487.784)">
    <path id="Trazado_606" data-name="Trazado 606" d="M955.25,1603.638a57.927,57.927,0,1,1,57.927-57.927A57.993,57.993,0,0,1,955.25,1603.638Zm0-108.2a50.277,50.277,0,1,0,50.277,50.277A50.334,50.334,0,0,0,955.25,1495.434Z" fill="#c87337"/>
    <path id="Trazado_607" data-name="Trazado 607" d="M955.25,1500.125a45.586,45.586,0,1,0,45.586,45.586A45.586,45.586,0,0,0,955.25,1500.125Zm17.275,36.989c4.718-1,10.054,2.349,10.054,7.632,0,3.24-1.256,4.967-1.735,4.831a32.821,32.821,0,0,0-13.115-.682c-1.243.153-1.345.108-1.69-1.081A8.5,8.5,0,0,1,972.525,1537.114Zm-43.7,1.16a72.316,72.316,0,0,1,15.889-8.7,3.452,3.452,0,0,1,2.9.205,24.154,24.154,0,0,1,7.544,6.282,50.685,50.685,0,0,1,7.645,12.238c.168.379.284.782.431,1.195-3.122.778-6.16,1.49-9.173,2.3a57.55,57.55,0,0,1-15.525,2.247c-2.369-.026-4.735-.283-7.1-.442a2.044,2.044,0,0,1-.424-.164,76.854,76.854,0,0,1,18.179-9.183,25.642,25.642,0,0,0-3.907-6.292.84.84,0,0,0-1.1-.211q-5.454,2.114-10.9,4.25c-.621.245-1.194.612-1.812.863a2.657,2.657,0,0,1-3.336-1.136A2.593,2.593,0,0,1,928.825,1538.274Zm61.507,20.258c-1.985-.561-3.948-1.206-5.951-1.692a31.022,31.022,0,0,0-14.528-.085c-4.857,1.136-9.68,2.42-14.511,3.667a47.671,47.671,0,0,1-15.017,1.569,37.469,37.469,0,0,1-20.838-7.366q-.167-.127-.323-.267c-.655-.576-.8-1.205-.371-1.752.485-.616,1.057-.532,1.722-.245,2.121.917,4.217,1.929,6.408,2.639a45.475,45.475,0,0,0,19.445,1.738c5.047-.578,9.858-2.128,14.761-3.306a58.12,58.12,0,0,1,13.384-1.964,32.942,32.942,0,0,1,15.509,4.211,8.6,8.6,0,0,1,1.311.736,3.49,3.49,0,0,1,.619.759C991.964,1558.292,991.25,1558.791,990.332,1558.532Z" fill="#402414"/>
  </g>
</svg>
