<svg xmlns="http://www.w3.org/2000/svg" width="115.854" height="115.854" viewBox="0 0 115.854 115.854">
  <g id="Icono_Asadores" transform="translate(-1077.366 -1487.784)">
    <path id="Trazado_608" data-name="Trazado 608" d="M1135.292,1603.638a57.927,57.927,0,1,1,57.928-57.927A57.992,57.992,0,0,1,1135.292,1603.638Zm0-108.2a50.277,50.277,0,1,0,50.277,50.277A50.334,50.334,0,0,0,1135.292,1495.434Z" fill="#c87337"/>
    <path id="Trazado_609" data-name="Trazado 609" d="M1135.293,1500.095a45.616,45.616,0,1,0,45.616,45.616A45.616,45.616,0,0,0,1135.293,1500.095Zm5.423,26.358a8.067,8.067,0,0,1,1.005-2.6c1.676-2.647,2.107-5.343.437-8.338a5.65,5.65,0,0,1,.518.258,5.338,5.338,0,0,1,2.061,6.984c-.435.935-1,1.817-1.436,2.753a6.744,6.744,0,0,0,.1,5.995c.083.175.163.352.282.609A5.188,5.188,0,0,1,1140.716,1526.453Zm-8.163-1.747a9.78,9.78,0,0,1,1.1-3c1.768-2.986,1.931-5.677.512-8.467l-.826-1.625,1.614.847c.09.047.165.084.229.116a2.584,2.584,0,0,1,.352.2,6.518,6.518,0,0,1,2.183,8.241c-.23.525-.494,1.035-.749,1.529s-.5.973-.72,1.466a7.277,7.277,0,0,0,.036,6.021c.054.124.106.249.168.4l.695,1.658-1.368-.644A6.168,6.168,0,0,1,1132.553,1524.706Zm-7.165,1.59a8.055,8.055,0,0,1,1.005-2.6c1.675-2.646,2.106-5.342.437-8.338.263.13.4.181.518.258a5.339,5.339,0,0,1,2.061,6.984c-.435.936-1,1.817-1.436,2.753a6.738,6.738,0,0,0,.1,5.995c.083.175.162.352.281.609A5.186,5.186,0,0,1,1125.388,1526.3Zm25.028,49.889a1.723,1.723,0,0,1-3.306.972l-6-20.393a21.468,21.468,0,0,1-11.64,0l-6,20.393a1.722,1.722,0,0,1-3.3-.972l6.069-20.637c-5.909-2.829-9.92-8.341-9.92-14.677h37.948c0,6.336-4.011,11.848-9.92,14.677Zm3.648-36.421h-37.542a1.585,1.585,0,0,1,0-3.169h37.542a1.585,1.585,0,0,1,0,3.169Z" fill="#402414"/>
  </g>
</svg>
