<svg xmlns="http://www.w3.org/2000/svg" width="115.854" height="115.854" viewBox="0 0 115.854 115.854">
  <g id="Icono_Futbol" transform="translate(-1077.366 -1657.924)">
    <path id="Trazado_616" data-name="Trazado 616" d="M1135.293,1773.778a57.927,57.927,0,1,1,57.927-57.927A57.993,57.993,0,0,1,1135.293,1773.778Zm0-108.2a50.277,50.277,0,1,0,50.277,50.277A50.334,50.334,0,0,0,1135.293,1665.574Z" fill="#c87337"/>
    <g id="Grupo_402" data-name="Grupo 402">
      <path id="Trazado_617" data-name="Trazado 617" d="M1155.31,1732.554c1.363-2.212,2.525-4.1,3.688-5.985C1155.61,1729.7,1155.234,1730.331,1155.31,1732.554Z" fill="#402414"/>
      <path id="Trazado_618" data-name="Trazado 618" d="M1135.147,1737.024c-2.815-.979-5.667-1.851-8.507-2.758-.329-.106-.713-.343-.992-.259-2.114.642-4.208,1.349-6.494,2.1a25.9,25.9,0,0,0,19.571,5.409,34.692,34.692,0,0,0-1.9-3.224A3.769,3.769,0,0,0,1135.147,1737.024Z" fill="#402414"/>
      <path id="Trazado_619" data-name="Trazado 619" d="M1111.312,1706.049a25.564,25.564,0,0,0-.991,16.636c3.031-5,.729-10.518,1.763-15.689C1112.125,1706.793,1111.688,1706.495,1111.312,1706.049Z" fill="#402414"/>
      <path id="Trazado_620" data-name="Trazado 620" d="M1151.859,1708.994a1.7,1.7,0,0,0-1.367.65c-1.765,2.716-3.462,5.476-5.132,8.252a2.151,2.151,0,0,0-.264,1.4c.512,2.579,1.057,5.153,1.7,7.7a1.914,1.914,0,0,0,1.134,1.237c7.192,1.314,6.454,1.956,10.25-4.521.832-1.42,1.755-2.9,1.306-4.647-.026-.472-.04-.878-.073-1.283C1158.879,1711.2,1157.852,1709.977,1151.859,1708.994Z" fill="#402414"/>
      <path id="Trazado_621" data-name="Trazado 621" d="M1123.55,1720.094c1.183-.87,2.172-2.012,3.384-2.83,2.92-1.969,4.688-4.357,3.528-8.072a.832.832,0,0,1-.008-.151q-.378-3.326-.756-6.649c-2.175-.83-4.333-1.713-6.538-2.453a2.156,2.156,0,0,0-1.762.264q-3.471,2.835-6.768,5.879a3.623,3.623,0,0,0-.936,1.99c-.223,1.4-.243,2.829-.355,4.361a29.822,29.822,0,0,0,.327,3.677,2.4,2.4,0,0,0,1.135,1.537c2.309,1.033,4.67,1.961,7.056,2.8A2.148,2.148,0,0,0,1123.55,1720.094Z" fill="#402414"/>
      <path id="Trazado_622" data-name="Trazado 622" d="M1089.72,1715.731a45.573,45.573,0,1,0,45.573-45.466A45.626,45.626,0,0,0,1089.72,1715.731Zm73.5.11a27.928,27.928,0,1,1-27.928-27.928A27.959,27.959,0,0,1,1163.221,1715.841Z" fill="#402414"/>
      <path id="Trazado_623" data-name="Trazado 623" d="M1124.958,1692.11a2.132,2.132,0,0,0-1.052,1.162c-.433,1.29-.712,2.632-1.141,4.3a5.7,5.7,0,0,0,1.177.891c2.016.826,4.049,1.616,6.1,2.352a2.638,2.638,0,0,0,1.552.068c3.15-.957,6.282-1.973,9.413-2.991.351-.114.812-.281.962-.562,1.885-3.549.838-5.928-3.042-7.015a5.462,5.462,0,0,0-.595-.122A23.764,23.764,0,0,0,1124.958,1692.11Z" fill="#402414"/>
      <path id="Trazado_624" data-name="Trazado 624" d="M1150.053,1706.214a2.828,2.828,0,0,0,1.222,1.028c2.1.54,4.231.957,6.859,1.529,0-1.783.543-3.719-.1-5.1a22.118,22.118,0,0,0-9.379-9.928,5.938,5.938,0,0,0-3.67-.288c-.421.073-.643,1.409-.915,2.182a3.38,3.38,0,0,0-.3,1.327,4,4,0,0,0,.481,1.993C1146.122,1701.423,1148.091,1703.816,1150.053,1706.214Z" fill="#402414"/>
      <path id="Trazado_625" data-name="Trazado 625" d="M1132.595,1715.436a1.841,1.841,0,0,0-1.47.284c-2.3,1.912-4.552,3.891-6.8,5.871a5.5,5.5,0,0,0-.706,1.062c.87,3.093,1.715,6.162,2.619,9.213a1.441,1.441,0,0,0,.825.805c2.87.959,5.748,1.9,8.65,2.752a1.936,1.936,0,0,0,1.519-.331q3.735-3,7.346-6.145a1.976,1.976,0,0,0,.525-1.561c-.447-2.538-.967-5.067-1.589-7.568a2.171,2.171,0,0,0-1.237-1.272C1139.075,1717.44,1135.842,1716.414,1132.595,1715.436Z" fill="#402414"/>
    </g>
  </g>
</svg>
