<svg xmlns="http://www.w3.org/2000/svg" width="28" height="28" viewBox="0 0 28 28">
  <g id="Grupo_27" data-name="Grupo 27" transform="translate(-1878.905 -505.065)">
    <path id="Trazado_79" data-name="Trazado 79" d="M1899.8,533.065h-13.773c-.089-.017-.177-.039-.267-.05a6.94,6.94,0,0,1-2.177-.588,7.584,7.584,0,0,1-4.656-7.226c-.039-4.091-.019-8.182,0-12.273a8.064,8.064,0,0,1,.23-1.972,7.507,7.507,0,0,1,4.911-5.433,15.4,15.4,0,0,1,1.958-.458H1899.8c.4.073.81.119,1.2.224a7.569,7.569,0,0,1,5.454,4.955,15.688,15.688,0,0,1,.448,1.93v13.781c-.073.4-.12.809-.224,1.2a7.57,7.57,0,0,1-4.951,5.459A15.693,15.693,0,0,1,1899.8,533.065Zm-6.887-25.512q-3.033,0-6.065,0a5.531,5.531,0,0,0-1.88.28,5.223,5.223,0,0,0-3.557,5.107c-.008,4.083-.014,8.165.01,12.247a5.9,5.9,0,0,0,.284,1.821,5.16,5.16,0,0,0,5.089,3.565c4.079.007,8.159.013,12.239-.011a5.863,5.863,0,0,0,1.82-.283,5.148,5.148,0,0,0,3.561-5.065q.018-6.15,0-12.3a5.169,5.169,0,0,0-2.227-4.4,5.232,5.232,0,0,0-3.184-.963C1896.974,507.557,1894.944,507.553,1892.913,507.553Z" fill="#dcb860"/>
    <path id="Trazado_80" data-name="Trazado 80" d="M1892.873,526.284a7.22,7.22,0,1,1,7.255-7.179A7.241,7.241,0,0,1,1892.873,526.284Zm4.757-7.211a4.717,4.717,0,1,0-4.733,4.711A4.718,4.718,0,0,0,1897.63,519.073Z" fill="#dcb860"/>
    <path id="Trazado_81" data-name="Trazado 81" d="M1900.388,509.748a1.818,1.818,0,1,1-1.787,1.835A1.829,1.829,0,0,1,1900.388,509.748Z" fill="#dcb860"/>
  </g>
</svg>
