<svg xmlns="http://www.w3.org/2000/svg" width="23.746" height="23.746" viewBox="0 0 23.746 23.746">
  <g id="Grupo_24" data-name="Grupo 24" transform="translate(-1881.211 -552.188)">
    <path id="Trazado_72" data-name="Trazado 72" d="M1881.211,564.612a4.58,4.58,0,0,1,2.874-4.175,4.961,4.961,0,0,1,5.244.613.307.307,0,0,0,.38.035q2.633-1.332,5.275-2.648c.191-.1.251-.172.194-.392a4.986,4.986,0,1,1,5.825,3.479,5.1,5.1,0,0,1-3.952-.826.3.3,0,0,0-.361-.029q-2.739,1.389-5.488,2.764a.24.24,0,0,0-.157.294c.048.539.061,1.081.062,1.622,0,.132.012.2.145.251q2.591,1.058,5.175,2.127c.153.064.23,0,.33-.082a5.15,5.15,0,0,1,6.2-.205,4.588,4.588,0,0,1,1.758,5.243,4.944,4.944,0,0,1-4.673,3.251,4.782,4.782,0,0,1-4.939-5.5c.037-.2-.014-.282-.21-.361q-2.444-.987-4.877-2a.37.37,0,0,0-.449.066,4.959,4.959,0,0,1-5.043.985,4.632,4.632,0,0,1-3.257-3.791C1881.229,565.121,1881.232,564.9,1881.211,564.612Zm21.329,6.6a2.554,2.554,0,1,0-2.511,2.431A2.494,2.494,0,0,0,1902.54,571.216Zm-13.8-6.511a2.554,2.554,0,1,0-2.528,2.415A2.5,2.5,0,0,0,1888.74,564.705Zm13.8-7.808a2.553,2.553,0,1,0-2.534,2.438A2.487,2.487,0,0,0,1902.54,556.9Z" fill="#dcb860"/>
  </g>
</svg>
