<svg xmlns="http://www.w3.org/2000/svg" width="69.631" height="69.63" viewBox="0 0 69.631 69.63">
  <g id="Bt_Agua" transform="translate(-1466.024 -857.796)">
    <path id="Trazado_178" data-name="Trazado 178" d="M1500.839,927.426a34.815,34.815,0,1,1,34.816-34.815A34.854,34.854,0,0,1,1500.839,927.426Zm0-65.032a30.217,30.217,0,1,0,30.218,30.217A30.251,30.251,0,0,0,1500.839,862.394Z" fill="#d2ad5d"/>
    <g id="Grupo_117" data-name="Grupo 117">
      <g id="Grupo_116" data-name="Grupo 116">
        <path id="Trazado_179" data-name="Trazado 179" d="M1500.739,882.355a6.527,6.527,0,0,0-3.678,2.244.642.642,0,0,1-.446.148c-1.522.01-3.044.005-4.566.006a5.044,5.044,0,0,0-5.168,5.176q0,2.833,0,5.668v.457h7.542v-3.747c.838,0,1.646-.01,2.453.012.107,0,.222.163.313.268a6.148,6.148,0,0,0,4.8,2.227,6.015,6.015,0,0,0,4.69-2.109,1.09,1.09,0,0,1,.934-.411c1.468.022,2.936.009,4.43.009v-7.55h-.4c-1.431,0-2.861.006-4.291-.008a.68.68,0,0,1-.466-.191,6.48,6.48,0,0,0-3.635-2.2c0-.531-.005-1.066.006-1.6,0-.072.078-.152.136-.212.226-.235.45-.473.7-.688a.612.612,0,0,1,.364-.144c.827-.013,1.653,0,2.48-.008a1.258,1.258,0,1,0,.005-2.508c-.814,0-1.628.012-2.441-.012a.7.7,0,0,1-.473-.232,2.5,2.5,0,0,0-4.031,0,.565.565,0,0,1-.52.25c-.8-.013-1.6-.008-2.4,0a1.26,1.26,0,1,0,.008,2.509c.814,0,1.628-.011,2.441.01a.886.886,0,0,1,.443.221c.123.093.19.274.32.341a.93.93,0,0,1,.462,1.052C1500.717,881.665,1500.739,882.006,1500.739,882.355Z" fill="#d2ad5d"/>
        <path id="Trazado_180" data-name="Trazado 180" d="M1517.079,882.2a14.719,14.719,0,0,0-1.751.109,2.439,2.439,0,0,0-1.987,2.4q-.016,3.814,0,7.631a2.51,2.51,0,0,0,2.454,2.474c.418.01.837,0,1.283,0Z" fill="#d2ad5d"/>
        <path id="Trazado_181" data-name="Trazado 181" d="M1490.64,899.862c1.22,0,2.44,0,3.66,0a1.261,1.261,0,1,0-.009-2.509q-3.641,0-7.281,0a1.261,1.261,0,1,0,.009,2.509C1488.226,899.864,1489.433,899.862,1490.64,899.862Z" fill="#d2ad5d"/>
      </g>
      <path id="Trazado_182" data-name="Trazado 182" d="M1490.1,910.794h0a2.618,2.618,0,0,1-2.341-3.788l2.341-4.682,2.341,4.682A2.617,2.617,0,0,1,1490.1,910.794Z" fill="#d2ad5d"/>
    </g>
  </g>
</svg>
