<svg xmlns="http://www.w3.org/2000/svg" width="69.63" height="69.534" viewBox="0 0 69.63 69.534">
  <g id="Bt_Agenda" transform="translate(-1630.61 -950.759)">
    <path id="Trazado_511" data-name="Trazado 511" d="M1665.425,1020.293a34.767,34.767,0,1,1,34.815-34.767A34.831,34.831,0,0,1,1665.425,1020.293Zm0-64.943a30.176,30.176,0,1,0,30.217,30.176A30.231,30.231,0,0,0,1665.425,955.35Z" fill="#d2ad5d"/>
    <g id="Grupo_318" data-name="Grupo 318">
      <path id="Trazado_512" data-name="Trazado 512" d="M1678.346,970.733c-.763.053-1.534.011-2.342.011,0-.375,0-.7,0-1.028a.966.966,0,0,0-1.087-1.093q-3.159,0-6.319,0a.972.972,0,0,0-1.083,1.063c-.005.339,0,.678,0,1.036h-4.2c0-.393.009-.748,0-1.1a.933.933,0,0,0-1.014-1q-3.2-.006-6.4,0a.937.937,0,0,0-1.049,1.041c-.006.35,0,.7,0,1.03a.807.807,0,0,1-.143.043q-1.135,0-2.271.005a1.647,1.647,0,0,0-1.823,1.806q0,1.548,0,3.094v2.481h.019c-.008.163-.018.285-.018.407q0,11.018,0,22.036a1.655,1.655,0,0,0,1.858,1.858q12.955,0,25.91.009a1.767,1.767,0,0,0,1.863-1.874c-.027-7.331-.013-14.663-.012-21.994v-.442h0v-.444c0-1.678-.044-3.357.016-5.032A1.736,1.736,0,0,0,1678.346,970.733Zm-1.312,28.486h-23.212v-17.9h23.212Zm-.5-26.343a1.538,1.538,0,0,1,1.561,1.562,1.568,1.568,0,0,1-1.6,1.582,1.6,1.6,0,0,1-1.554-1.6A1.569,1.569,0,0,1,1676.531,972.876Zm-5.5,0a1.559,1.559,0,0,1,1.6,1.535,1.576,1.576,0,1,1-3.151.048A1.561,1.561,0,0,1,1671.029,972.872Zm-5.437,0a1.58,1.58,0,0,1,1.576,1.566,1.6,1.6,0,0,1-1.569,1.582,1.571,1.571,0,0,1-1.584-1.595A1.555,1.555,0,0,1,1665.592,972.873Zm-5.426.006a1.569,1.569,0,1,1-1.617,1.551A1.528,1.528,0,0,1,1660.166,972.879Zm-5.546-.005a1.553,1.553,0,0,1,1.587,1.551,1.575,1.575,0,1,1-1.587-1.551Z" fill="#d2ad5d"/>
      <path id="Trazado_513" data-name="Trazado 513" d="M1657.042,985.522q8.406,0,16.811,0a1,1,0,0,0,1.151-1.088c-.006-.69-.388-1.042-1.14-1.043q-4.193,0-8.384,0v0q-4.233,0-8.467,0c-.752,0-1.084.344-1.08,1.086A.984.984,0,0,0,1657.042,985.522Z" fill="#d2ad5d"/>
    </g>
  </g>
</svg>
