<svg xmlns="http://www.w3.org/2000/svg" width="69.904" height="69.904" viewBox="0 0 69.904 69.904">
  <g id="Bt_alberca" transform="translate(-1575.335 -765.337)">
    <path id="Trazado_118" data-name="Trazado 118" d="M1610.287,835.241a34.952,34.952,0,1,1,34.952-34.952A34.992,34.992,0,0,1,1610.287,835.241Zm0-65.288a30.336,30.336,0,1,0,30.336,30.336A30.37,30.37,0,0,0,1610.287,769.953Z" fill="#d2ad5d"/>
    <g id="J66gPq.tif">
      <path id="Trazado_119" data-name="Trazado 119" d="M1615.6,802.807c-2.077.517-4.1.991-6.1,1.528a38.311,38.311,0,0,1-10.332,1.495c-1.576-.017-3.151-.189-4.726-.294a1.344,1.344,0,0,1-.282-.109,51.15,51.15,0,0,1,12.1-6.111,17.052,17.052,0,0,0-2.6-4.187.559.559,0,0,0-.734-.141q-3.63,1.407-7.253,2.829c-.414.163-.795.407-1.207.574a1.767,1.767,0,0,1-2.219-.756,1.725,1.725,0,0,1,.46-2.295,48.114,48.114,0,0,1,10.573-5.789,2.293,2.293,0,0,1,1.932.137,16.075,16.075,0,0,1,5.021,4.18,33.7,33.7,0,0,1,5.087,8.144C1615.427,802.264,1615.5,802.532,1615.6,802.807Z" fill="#d2ad5d"/>
      <path id="Trazado_120" data-name="Trazado 120" d="M1634.71,807.917c.009.744-.467,1.076-1.078.9-1.321-.373-2.627-.8-3.96-1.126a20.651,20.651,0,0,0-9.668-.057c-3.232.756-6.441,1.611-9.656,2.44a31.716,31.716,0,0,1-9.993,1.045,24.937,24.937,0,0,1-13.867-4.9c-.074-.057-.146-.116-.216-.178-.435-.383-.533-.8-.247-1.166.323-.41.7-.354,1.147-.163,1.411.61,2.806,1.284,4.264,1.757a30.275,30.275,0,0,0,12.94,1.156,82.392,82.392,0,0,0,9.823-2.2,38.606,38.606,0,0,1,8.907-1.307,21.911,21.911,0,0,1,10.32,2.8,5.81,5.81,0,0,1,.873.49A2.33,2.33,0,0,1,1634.71,807.917Z" fill="#d2ad5d"/>
      <path id="Trazado_121" data-name="Trazado 121" d="M1627.318,802.862a21.856,21.856,0,0,0-8.727-.455c-.827.1-.895.072-1.125-.719a5.655,5.655,0,0,1,4.316-7.12c3.14-.667,6.691,1.563,6.691,5.079C1628.473,801.8,1627.637,802.952,1627.318,802.862Z" fill="#d2ad5d"/>
    </g>
  </g>
</svg>
