<svg xmlns="http://www.w3.org/2000/svg" width="69.378" height="69.378" viewBox="0 0 69.378 69.378">
  <g id="Bt_asador" transform="translate(-1137.371 -765.6)">
    <path id="Trazado_88" data-name="Trazado 88" d="M1172.06,834.978a34.689,34.689,0,1,1,34.689-34.689A34.729,34.729,0,0,1,1172.06,834.978Zm0-64.8a30.108,30.108,0,1,0,30.108,30.108A30.142,30.142,0,0,0,1172.06,770.181Z" fill="#402414"/>
    <g id="Grupo_53" data-name="Grupo 53">
      <g id="Grupo_44" data-name="Grupo 44">
        <path id="Trazado_89" data-name="Trazado 89" d="M1172.06,808.115c6.916,0,12.523-4.934,12.523-11.021h-25.046C1159.537,803.181,1165.144,808.115,1172.06,808.115Z" fill="#402414"/>
        <path id="Trazado_90" data-name="Trazado 90" d="M1172.06,808.369c-7.046,0-12.778-5.058-12.778-11.274v-.255h25.556v.255C1184.838,803.311,1179.106,808.369,1172.06,808.369Zm-12.265-11.02c.154,5.819,5.6,10.511,12.265,10.511s12.111-4.692,12.265-10.511Z" fill="#402414"/>
      </g>
      <g id="Grupo_45" data-name="Grupo 45">
        <rect id="Rectángulo_24" data-name="Rectángulo 24" width="26.87" height="2.092" rx="1.046" transform="translate(1158.625 794.272)" fill="#402414"/>
        <path id="Trazado_91" data-name="Trazado 91" d="M1184.449,796.618h-24.778a1.3,1.3,0,1,1,0-2.6h24.778a1.3,1.3,0,1,1,0,2.6Zm-24.778-2.091a.791.791,0,1,0,0,1.582h24.778a.791.791,0,1,0,0-1.582Z" fill="#402414"/>
      </g>
      <g id="Grupo_48" data-name="Grupo 48">
        <g id="Grupo_46" data-name="Grupo 46">
          <rect id="Rectángulo_25" data-name="Rectángulo 25" width="2.274" height="19.24" rx="1.137" transform="translate(1174.752 803.677) rotate(-16.389)" fill="#402414"/>
          <path id="Trazado_92" data-name="Trazado 92" d="M1180.949,822.115a1.4,1.4,0,0,1-.665-.17,1.384,1.384,0,0,1-.668-.83l-4.787-16.276a1.393,1.393,0,0,1,.942-1.727,1.392,1.392,0,0,1,1.728.942l4.787,16.276a1.393,1.393,0,0,1-1.337,1.785Zm-4.784-18.551a.9.9,0,0,0-.25.036.884.884,0,0,0-.6,1.1l4.787,16.276a.883.883,0,1,0,1.694-.5l-4.787-16.276a.883.883,0,0,0-.846-.634Z" fill="#402414"/>
        </g>
        <g id="Grupo_47" data-name="Grupo 47">
          <rect id="Rectángulo_26" data-name="Rectángulo 26" width="19.24" height="2.274" rx="1.137" transform="translate(1161.757 821.493) rotate(-73.608)" fill="#402414"/>
          <path id="Trazado_93" data-name="Trazado 93" d="M1163.171,822.115a1.4,1.4,0,0,1-.394-.057h0a1.394,1.394,0,0,1-.942-1.728l4.787-16.276a1.392,1.392,0,0,1,2.67.785l-4.787,16.276a1.392,1.392,0,0,1-1.333,1Zm-.251-.545a.885.885,0,0,0,1.1-.6L1168.8,804.7a.883.883,0,1,0-1.694-.5l-4.787,16.276a.886.886,0,0,0,.6,1.1Z" fill="#402414"/>
        </g>
      </g>
      <g id="Grupo_52" data-name="Grupo 52">
        <g id="Grupo_49" data-name="Grupo 49">
          <path id="Trazado_94" data-name="Trazado 94" d="M1173.168,785c.169-.326.343-.663.495-1.009a4.3,4.3,0,0,0-1.441-5.44,1.79,1.79,0,0,0-.232-.13c-.043-.021-.092-.045-.152-.076l-1.065-.559.545,1.072a5.378,5.378,0,0,1-.338,5.588,6.5,6.5,0,0,0-.729,1.981,4.073,4.073,0,0,0,2.133,4.447l.9.424-.459-1.094c-.041-.1-.076-.181-.111-.262a4.8,4.8,0,0,1-.024-3.975C1172.836,785.64,1173.005,785.314,1173.168,785Z" fill="#402414"/>
          <path id="Trazado_95" data-name="Trazado 95" d="M1173.778,791.809l-1.5-.708a4.331,4.331,0,0,1-2.273-4.728,6.741,6.741,0,0,1,.759-2.058,5.148,5.148,0,0,0,.331-5.344l-.908-1.783,1.918,1a1.967,1.967,0,0,1,.267.15,4.548,4.548,0,0,1,1.527,5.75c-.156.357-.332.7-.5,1.023l0,0c-.161.312-.327.634-.467.951a4.558,4.558,0,0,0,.025,3.771Zm-2.416-13.429.183.361a5.616,5.616,0,0,1-.345,5.833,6.221,6.221,0,0,0-.7,1.9,3.811,3.811,0,0,0,1.991,4.165l.3.143-.312-.743a5.048,5.048,0,0,1-.024-4.178c.146-.332.316-.661.481-.98v0c.166-.321.338-.653.488-.994a4.056,4.056,0,0,0-1.355-5.129,1.253,1.253,0,0,0-.2-.11c-.046-.022-.1-.048-.16-.081Z" fill="#402414"/>
        </g>
        <g id="Grupo_50" data-name="Grupo 50">
          <path id="Trazado_96" data-name="Trazado 96" d="M1167.481,791.212a3.424,3.424,0,0,1-1.958-3.738,5.313,5.313,0,0,1,.663-1.715,4.98,4.98,0,0,0,.288-5.5,3.677,3.677,0,0,1,.342.17,3.524,3.524,0,0,1,1.361,4.61c-.288.617-.661,1.2-.948,1.817a4.45,4.45,0,0,0,.066,3.957C1167.35,790.925,1167.4,791.042,1167.481,791.212Z" fill="#402414"/>
          <path id="Trazado_97" data-name="Trazado 97" d="M1168,791.719l-.618-.275a3.664,3.664,0,0,1-2.1-4.023,5.5,5.5,0,0,1,.7-1.8,4.72,4.72,0,0,0,.281-5.243l-.4-.712.883.432a1.587,1.587,0,0,1,.218.114,3.769,3.769,0,0,1,1.451,4.929c-.147.316-.316.625-.481.923s-.326.592-.467.894a4.215,4.215,0,0,0,.066,3.74Zm-.92-10.782a5.279,5.279,0,0,1-.675,4.958,4.986,4.986,0,0,0-.629,1.632,3.172,3.172,0,0,0,1.138,3.037,4.643,4.643,0,0,1,.088-3.819c.147-.317.318-.626.482-.925s.326-.591.466-.891A3.244,3.244,0,0,0,1167.076,780.937Z" fill="#402414"/>
        </g>
        <g id="Grupo_51" data-name="Grupo 51">
          <path id="Trazado_98" data-name="Trazado 98" d="M1177.6,791.316a3.424,3.424,0,0,1-1.958-3.738,5.313,5.313,0,0,1,.663-1.715,4.98,4.98,0,0,0,.288-5.5,3.661,3.661,0,0,1,.342.17,3.524,3.524,0,0,1,1.361,4.61c-.288.617-.661,1.2-.948,1.817a4.449,4.449,0,0,0,.066,3.956C1177.467,791.029,1177.52,791.146,1177.6,791.316Z" fill="#402414"/>
          <path id="Trazado_99" data-name="Trazado 99" d="M1178.113,791.823l-.618-.275a3.664,3.664,0,0,1-2.1-4.023,5.516,5.516,0,0,1,.7-1.8,4.723,4.723,0,0,0,.281-5.244l-.4-.711.884.432a1.579,1.579,0,0,1,.218.114,3.769,3.769,0,0,1,1.45,4.929c-.147.316-.316.625-.481.923s-.327.592-.467.894a4.219,4.219,0,0,0,.066,3.74Zm-.92-10.783a5.28,5.28,0,0,1-.675,4.959,5.012,5.012,0,0,0-.629,1.633,3.171,3.171,0,0,0,1.138,3.036,4.648,4.648,0,0,1,.088-3.819c.147-.317.318-.626.482-.925s.326-.591.466-.892A3.244,3.244,0,0,0,1177.193,781.04Z" fill="#402414"/>
        </g>
      </g>
    </g>
  </g>
</svg>
