<svg xmlns="http://www.w3.org/2000/svg" width="69.748" height="69.748" viewBox="0 0 69.748 69.748">
  <g id="Bt_Basket" transform="translate(-1246.511 -765.415)">
    <path id="Trazado_107" data-name="Trazado 107" d="M1281.385,765.415a34.874,34.874,0,1,0,34.874,34.874A34.914,34.914,0,0,0,1281.385,765.415Zm0,65.142a30.268,30.268,0,1,1,30.268-30.268A30.3,30.3,0,0,1,1281.385,830.557Z" fill="#d2ad5d"/>
    <path id="Trazado_108" data-name="Trazado 108" d="M1274.919,786.048a14.724,14.724,0,0,1,3.961,3.487c1.018,1.222,1.923,2.548,2.8,3.835l.485.71a21.422,21.422,0,0,0,3.532,4.162,10.218,10.218,0,0,0,4.783,2.515c.124.024.252.042.4.059l.258.03.067-.681c.07-.687.141-1.4.168-2.1a29.149,29.149,0,0,0-.041-3.068c-.07-.991-.2-2.045-.391-3.221a22.241,22.241,0,0,0-1.03-3.869,23.236,23.236,0,0,0-2.649-5.271l-.05-.073-.256-.082a9.3,9.3,0,0,0-1-.283c-.771-.155-1.6-.3-2.6-.465-.258-.042-.538-.065-.816-.086l-.351-.03-1.569,0-.087.013a2.982,2.982,0,0,1-.312.037,17.878,17.878,0,0,0-3.751.618,18.5,18.5,0,0,0-4.84,2.082l-.547.334.627.135A10.916,10.916,0,0,1,1274.919,786.048Z" fill="#d2ad5d"/>
    <path id="Trazado_109" data-name="Trazado 109" d="M1266.314,795.985a36.107,36.107,0,0,0,7.329,4.449,50.326,50.326,0,0,0,5.573,2.269c1.566.525,2.968.957,4.286,1.321s2.634.651,3.935.935c.557.121,1.135.222,1.676.317l.937.168.267-.973c.127-.455.257-.925.381-1.4.04-.149.072-.3.1-.445l.053-.264-.266-.039a10.053,10.053,0,0,1-3.71-1.356,16.577,16.577,0,0,1-4.908-4.558c-.58-.786-1.14-1.6-1.681-2.382-.289-.42-.618-.895-.944-1.357a23.281,23.281,0,0,0-3.489-4.084,10.176,10.176,0,0,0-6.461-2.525l-.109-.006-.44.409c-.381.353-.774.717-1.131,1.1a18.629,18.629,0,0,0-3.747,5.939l-.056.143.1.117A17.075,17.075,0,0,0,1266.314,795.985Z" fill="#d2ad5d"/>
    <path id="Trazado_110" data-name="Trazado 110" d="M1270.076,812.125c.245,0,.49-.01.726-.029l.323-.026c.594-.047,1.208-.1,1.8-.188a26.6,26.6,0,0,0,3.824-.934c.606-.188,1.223-.381,1.819-.568l.1-.031c.994-.312,2.021-.634,3.044-.942a24.358,24.358,0,0,1,4.974-1.017,8.439,8.439,0,0,1,1.99.033l.2.029.637-1.506-1.2-.247c-1.123-.231-2.284-.469-3.429-.747-1.778-.433-3.232-.838-4.578-1.276-1.591-.517-3.2-1.106-4.927-1.8a43.744,43.744,0,0,1-7.411-3.808,24.975,24.975,0,0,1-4.293-3.412l-.319-.324-.225.9a17.889,17.889,0,0,0-.453,3.566c-.016.441.007.911.027,1.326l.017.383a16.535,16.535,0,0,0,.388,2.828,18.2,18.2,0,0,0,.971,3.1,18.612,18.612,0,0,0,2.283,4.024l.055.072.449.115c.437.113.89.23,1.341.307A11.1,11.1,0,0,0,1270.076,812.125Z" fill="#d2ad5d"/>
    <path id="Trazado_111" data-name="Trazado 111" d="M1287.936,810.263l.21-.371-.608-.013a9.613,9.613,0,0,0-1.122.071,24.078,24.078,0,0,0-4.143.883c-1.062.32-2.166.665-3.178.981l-.059.019c-.568.177-1.135.355-1.7.53a26.8,26.8,0,0,1-5.56,1.2,15.93,15.93,0,0,1-2.928.01l-.749-.07.551.513a18.88,18.88,0,0,0,4.952,3.322,18.62,18.62,0,0,0,5.473,1.563l.021,0h.018a.544.544,0,0,0,.216-.057,19.254,19.254,0,0,0,5.035-3.768A23.667,23.667,0,0,0,1287.936,810.263Z" fill="#d2ad5d"/>
    <path id="Trazado_112" data-name="Trazado 112" d="M1292.491,791.674a30.681,30.681,0,0,1,.233,8.751l-.039.358.35-.08a6.418,6.418,0,0,0,1.774-.7,7.207,7.207,0,0,0,3.112-3.327,11.385,11.385,0,0,0,.871-2.88,1.584,1.584,0,0,0,.021-.191v-.052l-.019-.049a18.69,18.69,0,0,0-4.573-6.758,19,19,0,0,0-3.834-2.8l-.721-.4.368.737A27.316,27.316,0,0,1,1292.491,791.674Z" fill="#d2ad5d"/>
    <path id="Trazado_113" data-name="Trazado 113" d="M1299.709,796.455l-.348.762a8.656,8.656,0,0,1-3.013,3.616,8.4,8.4,0,0,1-3.757,1.507l-.177.023-.039.174c-.181.8-.373,1.621-.573,2.443-.035.143-.073.282-.109.405l-.049.293.3.037c.477.06.928.116,1.389.15,1.319.1,2.4.162,3.39.2.222.008.455.012.715.012.295,0,.6-.005.879-.01h.071c.2,0,.424-.007.644-.009l.188,0,.054-.18a18.834,18.834,0,0,0,.575-8.591Z" fill="#d2ad5d"/>
    <path id="Trazado_114" data-name="Trazado 114" d="M1289.94,810.377l-.227-.117-.118.227a24.338,24.338,0,0,1-1.963,3.135,22.347,22.347,0,0,1-4.847,4.878l-.715.52.882-.057c.183-.012.351-.026.51-.041a17.728,17.728,0,0,0,4.765-1.165,18.062,18.062,0,0,0,3.866-2.074l.106-.074,0-.13a8.064,8.064,0,0,0-.362-2.776A3.833,3.833,0,0,0,1289.94,810.377Z" fill="#d2ad5d"/>
    <path id="Trazado_115" data-name="Trazado 115" d="M1297.587,807.573c-.485-.007-.985-.014-1.493-.043-.827-.045-1.765-.1-2.69-.177-.682-.06-1.355-.144-2.006-.226l-.341-.042-.07.191c-.083.228-.178.473-.3.765-.088.216-.178.431-.277.666l-.093.222.216.107a5.132,5.132,0,0,1,2.361,2.406,7.591,7.591,0,0,1,.71,2.57l.233-.025,0,0-.232.051.054.507.374-.346a19.016,19.016,0,0,0,4.506-6.264l.161-.361h-.526C1297.968,807.577,1297.794,807.576,1297.587,807.573Z" fill="#d2ad5d"/>
  </g>
</svg>
