<svg xmlns="http://www.w3.org/2000/svg" width="70.235" height="70.234" viewBox="0 0 70.235 70.234">
  <g id="Grupo_66" data-name="Grupo 66" transform="translate(-154.426 -200.159)">
    <path id="Trazado_122" data-name="Trazado 122" d="M189.543,270.393a35.117,35.117,0,1,1,35.118-35.117A35.157,35.157,0,0,1,189.543,270.393Zm0-65.6a30.48,30.48,0,1,0,30.48,30.48A30.514,30.514,0,0,0,189.543,204.8Z" fill="#402414"/>
    <g id="Grupo_65" data-name="Grupo 65">
      <path id="Trazado_123" data-name="Trazado 123" d="M194.323,246.152l-11.941-24.359s8.362,4.35,16.99,2.124l10.65,22.235Z" fill="#402414"/>
      <path id="Trazado_124" data-name="Trazado 124" d="M181.224,221.793l-11.941,24.359h9.337l-3.875-2.525,6.479-16.851,3.473,19.375h8.468Z" fill="#402414"/>
      <path id="Trazado_125" data-name="Trazado 125" d="M164.515,246.155h0a.387.387,0,0,1-.1-.541l16.806-23.821.3.912-16.477,23.354A.386.386,0,0,1,164.515,246.155Z" fill="#402414"/>
      <path id="Trazado_126" data-name="Trazado 126" d="M214.037,245.956l-15.293-21.591.628-.448,15.3,21.6a.387.387,0,0,1-.093.535h0A.385.385,0,0,1,214.037,245.956Z" fill="#402414"/>
    </g>
  </g>
</svg>
