<svg xmlns="http://www.w3.org/2000/svg" width="70.234" height="70.235" viewBox="0 0 70.234 70.235">
  <g id="Grupo_85" data-name="Grupo 85" transform="translate(-784.015 -152.596)">
    <path id="Trazado_134" data-name="Trazado 134" d="M819.132,222.831a35.118,35.118,0,1,1,35.117-35.117A35.157,35.157,0,0,1,819.132,222.831Zm0-65.6a30.479,30.479,0,1,0,30.479,30.48A30.514,30.514,0,0,0,819.132,157.234Z" fill="#402414"/>
    <g id="Grupo_84" data-name="Grupo 84">
      <path id="Trazado_135" data-name="Trazado 135" d="M824.59,179.362a.3.3,0,0,0,.176-.554l-5.321-3.763a.3.3,0,0,0-.352,0l-5.322,3.763a.305.305,0,0,0,.177.554Z" fill="#402414"/>
      <path id="Trazado_136" data-name="Trazado 136" d="M841.233,183.764l-22.1-16.879-10.9,8.327v-2.385a2.145,2.145,0,1,0-4.29,0v5.661l-6.908,5.276a1.847,1.847,0,0,0,2.242,2.936l19.859-15.167L838.991,186.7a1.847,1.847,0,1,0,2.242-2.936Z" fill="#402414"/>
      <path id="Trazado_137" data-name="Trazado 137" d="M810.5,181.119l-5.467,3.866a.306.306,0,0,0,.177.555h28.112a.305.305,0,0,0,.176-.555l-5.467-3.866a.3.3,0,0,0-.176-.056H810.68A.3.3,0,0,0,810.5,181.119Z" fill="#402414"/>
      <path id="Trazado_138" data-name="Trazado 138" d="M801.767,201.647v.053a2.057,2.057,0,0,0,2.057,2.056h8.958v-4.165h-8.958A2.056,2.056,0,0,0,801.767,201.647Z" fill="#402414"/>
      <path id="Trazado_139" data-name="Trazado 139" d="M834.44,199.591h-8.958v4.165h8.958A2.057,2.057,0,0,0,836.5,201.7v-.053A2.056,2.056,0,0,0,834.44,199.591Z" fill="#402414"/>
      <path id="Trazado_140" data-name="Trazado 140" d="M801.767,195.471v.053a2.057,2.057,0,0,0,2.057,2.056h8.958v-4.165h-8.958A2.056,2.056,0,0,0,801.767,195.471Z" fill="#402414"/>
      <path id="Trazado_141" data-name="Trazado 141" d="M834.44,193.415h-8.958v4.165h8.958a2.057,2.057,0,0,0,2.057-2.056v-.053A2.056,2.056,0,0,0,834.44,193.415Z" fill="#402414"/>
      <path id="Trazado_142" data-name="Trazado 142" d="M801.767,189.295v.053a2.057,2.057,0,0,0,2.057,2.056h8.958v-4.165h-8.958A2.056,2.056,0,0,0,801.767,189.295Z" fill="#402414"/>
      <path id="Trazado_143" data-name="Trazado 143" d="M834.44,187.239h-8.958V191.4h8.958a2.057,2.057,0,0,0,2.057-2.056v-.053A2.056,2.056,0,0,0,834.44,187.239Z" fill="#402414"/>
      <path id="Trazado_144" data-name="Trazado 144" d="M814.509,203.756h9.247V187.239h-9.247Zm7.3-9.013a.755.755,0,1,1-.754.754A.755.755,0,0,1,821.808,194.743Z" fill="#402414"/>
    </g>
  </g>
</svg>
