<svg xmlns="http://www.w3.org/2000/svg" width="170.761" height="148.66" viewBox="0 0 170.761 148.66">
  <g id="Bt_Logo_Inicio" transform="translate(-89.654)">
    <rect id="Fondo_logo" width="170.761" height="148.66" transform="translate(89.654)" fill="#402414"/>
    <g id="Logo">
      <g id="Grupo_75" data-name="Grupo 75">
        <g id="Grupo_74" data-name="Grupo 74">
          <path id="Trazado_128" data-name="Trazado 128" d="M179.871,94.013c-.457-4.875-5.7-9.737-5.7-9.737a5.93,5.93,0,0,1-1.726,3.686c-1.262,1.444-7.261,7.66-1.346,11.841a6.135,6.135,0,0,0,1.9.918,2.954,2.954,0,0,1-.969-.947c-2.412-3.7,3.41-7.012,3.41-7.012-.272,2.289.565,2.367,1.507,4.963a2.368,2.368,0,0,1-.951,2.9A6.341,6.341,0,0,0,179.871,94.013Z" fill="#ffca05"/>
          <path id="Trazado_129" data-name="Trazado 129" d="M188.246,101.457l-.967-3.184L174.3,102.234l-14.077-4.293-.971,3.182,9.343,2.85-9.009,2.745.971,3.185,13.743-4.191,12.648,3.857.975-3.184L180,103.973Z" fill="#ffca05"/>
          <g id="Grupo_73" data-name="Grupo 73">
            <path id="Trazado_130" data-name="Trazado 130" d="M174.259,116.827c-.894-.018-1.8-.065-2.688-.137a42.347,42.347,0,0,1-4.884-.682l.233-1.184a41.338,41.338,0,0,0,4.75.665c.864.07,1.744.115,2.612.131Zm3.052-.051-.064-1.2a41.281,41.281,0,0,0,7.325-1.052l.28,1.175A42.59,42.59,0,0,1,177.311,116.776Zm-13.593-1.47a42.462,42.462,0,0,1-7.135-2.677l.522-1.087a41.389,41.389,0,0,0,6.931,2.6Zm24.072-.422-.361-1.15a41,41,0,0,0,6.829-2.849l.562,1.066A42.224,42.224,0,0,1,187.79,114.884Zm-33.908-3.677a42.763,42.763,0,0,1-6.238-4.373l.777-.922a41.385,41.385,0,0,0,6.061,4.247Zm43.583-.771-.635-1.023a42,42,0,0,0,5.911-4.459l.806.9A42.779,42.779,0,0,1,197.465,110.436Zm-52.079-5.654A42.3,42.3,0,0,1,140.426,99l.977-.7a41.882,41.882,0,0,0,4.822,5.623Zm60.351-1.059-.87-.835a41.55,41.55,0,0,0,4.624-5.78l1.008.664A42.547,42.547,0,0,1,205.737,103.723Zm-66.995-7.268a42.659,42.659,0,0,1-3.373-6.831l1.127-.436a41.3,41.3,0,0,0,3.274,6.636Zm-4.369-9.715a42.324,42.324,0,0,1-1.559-7.457l1.2-.138a41.083,41.083,0,0,0,1.515,7.245ZM216.1,85.3l-1.163-.311a41.667,41.667,0,0,0,1.251-7.293l.007-.077,1.2.1,0,.071A42.213,42.213,0,0,1,216.1,85.3Zm-83.534-9.058c-.021-.617-.035-1.246-.035-1.866,0-1.162.045-2.344.142-3.513.06-.74.142-1.491.241-2.232l1.194.162c-.1.718-.175,1.449-.235,2.169-.091,1.135-.138,2.283-.138,3.414,0,.6.012,1.213.039,1.814Zm84.967-1.578-1.2-.009v-.373a41.288,41.288,0,0,0-.6-7.006l1.193-.205a42.978,42.978,0,0,1,.613,7.211C217.54,74.411,217.54,74.539,217.536,74.665ZM134.61,65.872l-1.179-.247a42.3,42.3,0,0,1,2.214-7.286l1.119.452A41.124,41.124,0,0,0,134.61,65.872Zm80.515-1.493a41.455,41.455,0,0,0-2.42-6.995l1.1-.495a42.2,42.2,0,0,1,2.5,7.2Zm-77.149-8.3-1.08-.531a42.038,42.038,0,0,1,3.969-6.5l.967.716A41.369,41.369,0,0,0,137.976,56.083Zm73.412-1.353a41.749,41.749,0,0,0-4.086-6.174l.94-.752a42.658,42.658,0,0,1,4.208,6.355Zm-67.705-7.281-.915-.787a43.051,43.051,0,0,1,5.461-5.314l.759.935A42.039,42.039,0,0,0,143.683,47.449Zm61.685-1.139a41.15,41.15,0,0,0-5.486-4.97l.728-.963a42.689,42.689,0,0,1,5.644,5.115ZM151.355,40.5l-.693-.987a42.681,42.681,0,0,1,6.606-3.795l.5,1.1A41.355,41.355,0,0,0,151.355,40.5Zm46.1-.857a41.085,41.085,0,0,0-6.55-3.448l.46-1.113a42.3,42.3,0,0,1,6.746,3.549ZM160.5,35.664l-.424-1.128a42.306,42.306,0,0,1,7.345-2.032l.214,1.189A40.98,40.98,0,0,0,160.5,35.664Zm27.62-.509a41.038,41.038,0,0,0-7.2-1.7l.171-1.192a42.228,42.228,0,0,1,7.414,1.748Zm-17.551-1.886-.13-1.2a42.225,42.225,0,0,1,4.54-.244h.006c1.017,0,2.052.038,3.074.11l-.088,1.2c-1-.072-1.992-.118-2.992-.109A41.274,41.274,0,0,0,170.573,33.269Z" fill="#ffca05"/>
          </g>
          <path id="Trazado_131" data-name="Trazado 131" d="M211.811,41.858A48.729,48.729,0,0,0,178.08,25.365c-1.025-.064-2.064-.1-3.091-.1a49.062,49.062,0,0,0-3,98.029c1.028.062,2.069.1,3.094.1a49.111,49.111,0,0,0,44.243-27.968l-5.028-.082a44.561,44.561,0,0,1-39.215,23.529c-.936,0-1.878-.03-2.81-.088a44.539,44.539,0,0,1,2.717-88.992c.93,0,1.88.03,2.808.088A44.539,44.539,0,0,1,219.488,77.1a44.7,44.7,0,0,1-1.8,10.064H197.55a360.412,360.412,0,0,1-20.658-36.607c1.8-3.78,2.722-5.956,2.781-6.1L175.509,42.7c-.01.019-.39.917-1.13,2.539-.734-1.606-1.115-2.5-1.132-2.539l-4.166,1.759c.059.139.985,2.319,2.785,6.1-.769,1.585-1.658,3.377-2.664,5.356a369.883,369.883,0,0,1-18.66,32.276l3.794,2.459a373.508,373.508,0,0,0,18.921-32.734c.392-.769.767-1.507,1.118-2.218q.538,1.066,1.124,2.218a372.87,372.87,0,0,0,18.919,32.734l.67,1.032h19.378l6.467-.029a49.048,49.048,0,0,0-9.122-49.8Z" fill="#ffca05"/>
          <path id="Trazado_132" data-name="Trazado 132" d="M153.622,57.639v5.267h-3.544V61.1h-3.515V71.811h3.511V70.1h3.54v5.267H143.079V57.639Z" fill="#ffca05"/>
          <path id="Trazado_133" data-name="Trazado 133" d="M204.7,57.639v3.455h-5.263v3.718h5.255V75.353H195.96V71.82h5.257V68.369H195.95V57.639Z" fill="#ffca05"/>
        </g>
      </g>
    </g>
  </g>
</svg>
