<svg xmlns="http://www.w3.org/2000/svg" width="22.708" height="24.39" viewBox="0 0 22.708 24.39">
  <g id="Boton_telefono" transform="translate(-1881.856 -596.966)">
    <path id="Trazado_73" data-name="Trazado 73" d="M1881.861,603.039a5.613,5.613,0,0,1,1.016-3.533,6.345,6.345,0,0,1,3.129-2.381,2.482,2.482,0,0,1,1.1-.147,1.767,1.767,0,0,1,1.45.974,11.164,11.164,0,0,1,.584,1.372,17.468,17.468,0,0,1,.745,2.784,2.8,2.8,0,0,1,.037.671,1.41,1.41,0,0,1-.731,1.177,14.267,14.267,0,0,1-1.289.636c-.381.173-.774.319-1.162.478a.53.53,0,0,0-.334.729,24.2,24.2,0,0,0,6.4,9.746.549.549,0,0,0,.886-.062,7.184,7.184,0,0,1,1.5-1.477,3.545,3.545,0,0,1,.455-.264,1.748,1.748,0,0,1,1.8.084,15.488,15.488,0,0,1,3.2,2.582,4.615,4.615,0,0,1,.576.784,1.642,1.642,0,0,1-.049,1.8,4.579,4.579,0,0,1-1.653,1.526,6.24,6.24,0,0,1-5.138.512,11.7,11.7,0,0,1-2.86-1.433,20.265,20.265,0,0,1-5.6-5.453,23.469,23.469,0,0,1-2.859-5.24,18,18,0,0,1-1.2-5.218C1881.849,603.471,1881.861,603.255,1881.861,603.039Z" fill="#dcb860"/>
    <path id="Trazado_74" data-name="Trazado 74" d="M1903.407,611.21a.958.958,0,0,1-.926-.653,1.065,1.065,0,0,1-.005-.568,8.932,8.932,0,0,0-3.97-9.274,9.364,9.364,0,0,0-3.17-1.294.948.948,0,0,1-.8-.908.929.929,0,0,1,.725-.916,1.142,1.142,0,0,1,.244-.026,1.108,1.108,0,0,1,.21.02,10.877,10.877,0,0,1,8.844,10.7,10.38,10.38,0,0,1-.214,2.106.959.959,0,0,1-.876.813Z" fill="#dcb860"/>
    <path id="Trazado_75" data-name="Trazado 75" d="M1899.737,610.907a1.1,1.1,0,0,1-.15-.011.943.943,0,0,1-.805-.994c.013-.127.032-.255.053-.383.024-.156.049-.312.062-.469a5.658,5.658,0,0,0-1.191-3.991,5.857,5.857,0,0,0-3.487-2.206.949.949,0,0,1-.834-1.028.939.939,0,0,1,.931-.842.985.985,0,0,1,.185.018,7.75,7.75,0,0,1,4.836,3.06,7.492,7.492,0,0,1,1.5,4.53v.145l.02,0-.037.312c-.041.365-.083.729-.147,1.089A.931.931,0,0,1,1899.737,610.907Z" fill="#dcb860"/>
    <path id="Trazado_76" data-name="Trazado 76" d="M1896.052,610.6a1.022,1.022,0,0,1-.155-.012.949.949,0,0,1-.635-.385.89.89,0,0,1-.154-.67,2.77,2.77,0,0,0-.148-1.625,2.7,2.7,0,0,0-1.957-1.613.949.949,0,0,1-.648-.438.869.869,0,0,1,.036-1.023.882.882,0,0,1,.745-.4,1.194,1.194,0,0,1,.233.025,4.658,4.658,0,0,1,3.735,4.474l-.033.281c-.023.207-.046.415-.082.619A.946.946,0,0,1,1896.052,610.6Z" fill="#dcb860"/>
  </g>
</svg>
