<svg xmlns="http://www.w3.org/2000/svg" width="28" height="28" viewBox="0 0 28 28">
  <g id="Grupo_26" data-name="Grupo 26" transform="translate(-1878.905 -459.485)">
    <path id="Trazado_77" data-name="Trazado 77" d="M1898.276,487.484c2.233,0,4.353,0,6.473,0,1.677,0,2.153-.468,2.154-2.118q0-11.895,0-23.789c0-1.6-.485-2.087-2.083-2.088q-11.895-.006-23.79,0c-1.656,0-2.122.473-2.122,2.151q0,11.844,0,23.689c0,1.678.467,2.153,2.117,2.155q5.923.006,11.845,0c.29,0,.579-.033.9-.053V476.658h-3.552v-4.292h3.612c0-1.153-.026-2.239.005-3.324.088-3.058,1.792-4.988,4.816-5.313a36.714,36.714,0,0,1,3.858-.022v4.024c-.944,0-1.833-.029-2.719.008a1.435,1.435,0,0,0-1.5,1.521c-.041,1.016-.009,2.034-.009,3.139h4.142l-.538,4.3h-3.6Z" fill="#dcb860"/>
    <path id="Trazado_78" data-name="Trazado 78" d="M1898.276,487.484V476.7h3.6l.538-4.3h-4.142c0-1.1-.032-2.123.009-3.139a1.435,1.435,0,0,1,1.5-1.521c.886-.037,1.775-.008,2.719-.008v-4.024a36.714,36.714,0,0,0-3.858.022c-3.024.325-4.728,2.255-4.816,5.313-.031,1.085-.005,2.171-.005,3.324h-3.612v4.292h3.552v10.827s-8.795,0-12.744,0c-1.65,0-2.117-.477-2.117-2.155q0-11.844,0-23.689c0-1.678.466-2.151,2.122-2.151q11.895,0,23.79,0c1.6,0,2.083.488,2.083,2.088q.006,11.9,0,23.789c0,1.65-.477,2.115-2.154,2.118C1902.629,487.487,1900.509,487.484,1898.276,487.484Z" fill="#dcb860"/>
  </g>
</svg>
