<svg xmlns="http://www.w3.org/2000/svg" viewBox="0 0 21.41 101.98"><defs><style>.cls-1{fill:#a35423;}.cls-2{fill:#20262c;}.cls-3{fill:#fff;}</style></defs><title>Flecha_Izq_414</title><g id="Layer_2" data-name="Layer 2"><g id="Layer_1-2" data-name="Layer 1"><polygon class="cls-1" points="21 28.72 21.41 29.11 21.41 9.68 21 9.29 11.29 0 11.29 19.39 21 28.72"/><polygon class="cls-2" points="21 48 21.41 48.39 21.41 29.12 21 28.72 11.29 19.4 11.29 19.39 0 8.55 0 28.07 21 48"/><polygon class="cls-1" points="21 92.69 21.41 92.3 21.41 72.86 21 73.26 11.29 82.58 11.29 101.98 21 92.69"/><polygon class="cls-2" points="11.29 82.58 11.29 82.58 21 73.26 21.41 72.86 21.41 53.59 21 53.98 0 73.91 0 93.43 11.29 82.58"/><polygon class="cls-3" points="21 50.99 21.41 50.99 21.41 48.39 21 48.01 21 48 0 28.07 0 28.53 0 48.04 3.11 50.99 21 50.99"/><polygon class="cls-3" points="21 53.98 21 53.97 21.41 53.59 21.41 50.99 21 50.99 3.11 50.99 0 53.94 0 73.45 0 73.91 21 53.98"/><polygon class="cls-3" points="0 48.04 0 50.99 0 53.94 3.11 50.99 0 48.04"/></g></g></svg>