<svg xmlns="http://www.w3.org/2000/svg" viewBox="0 0 91.29 161.17"><defs><style>.cls-1{fill:#a35423;}.cls-2{fill:#20262c;}.cls-3{fill:#fff;}</style></defs><title>Flecha_Der_768</title><g id="Layer_2" data-name="Layer 2"><g id="Layer_1-2" data-name="Layer 1"><polygon class="cls-1" points="0.29 115.44 0 115.16 0 145.88 0.29 146.16 15.99 161.18 15.99 130.52 0.29 115.44"/><polygon class="cls-2" points="0.29 84.98 0 84.7 0 115.16 0.29 115.44 15.99 130.52 15.99 130.52 34.86 148.65 34.86 117.79 0.29 84.98"/><polygon class="cls-3" points="0 80.59 0 84.7 0.29 84.97 34.86 117.04 34.86 117.79 80.58 161.17 80.58 129.5 28.92 80.59 0.29 80.59 0 80.59"/><polygon class="cls-3" points="91.29 118.42 91.29 107.9 62.15 80.59 28.92 80.59 68.87 118.42 91.29 118.42"/><polygon class="cls-2" points="62.15 80.59 91.29 107.9 91.29 80.59 62.15 80.59"/><polygon class="cls-1" points="0.29 15.01 0 15.29 0 46.01 0.29 45.73 15.99 30.65 15.99 0 0.29 15.01"/><polygon class="cls-2" points="0.29 45.73 0 46.01 0 76.47 0.29 76.2 34.86 43.39 34.86 12.53 0.29 45.73"/><polygon class="cls-3" points="68.87 42.75 80.58 31.67 80.58 0 34.86 43.39 0.29 76.2 0.29 76.2 0 76.47 0 80.59 0.29 80.59 28.92 80.59 68.87 42.75 68.87 42.75"/><polygon class="cls-3" points="68.87 42.75 28.92 80.59 62.15 80.59 91.29 53.27 91.29 42.75 68.87 42.75"/><polygon class="cls-2" points="91.29 80.59 91.29 53.27 62.15 80.59 91.29 80.59"/></g></g></svg>