<svg xmlns="http://www.w3.org/2000/svg" viewBox="0 0 15.92 79.22"><defs><style>.cls-1{fill:#a35423;}.cls-2{fill:#20262c;}.cls-3{fill:#fff;}</style></defs><title>Flecha_Der_320</title><g id="Layer_2" data-name="Layer 2"><g id="Layer_1-2" data-name="Layer 1"><polygon class="cls-1" points="7.86 79.22 7.86 64.15 0 56.6 0 71.7 7.86 79.22"/><polygon class="cls-2" points="0 41.63 0 56.6 7.86 64.15 7.86 64.15 15.92 71.89 15.92 56.74 0 41.63"/><polygon class="cls-2" points="7.86 64.15 0 56.6 7.86 64.15 7.86 64.15"/><polygon class="cls-1" points="7.86 0 0 7.52 0 22.61 7.86 15.07 7.86 0"/><polygon class="cls-2" points="7.86 15.07 0 22.62 0 37.59 0.05 37.54 15.92 22.48 15.92 7.33 7.86 15.07 7.86 15.07"/><polygon class="cls-2" points="7.86 15.07 0 22.61 0 22.62 7.86 15.07 7.86 15.07"/><polygon class="cls-3" points="0.05 37.54 0 37.59 0 39.61 0 41.63 0 41.63 15.92 56.74 15.92 56.4 15.92 41.22 15.92 41.22 15.92 39.61 15.92 37.99 15.92 37.99 15.92 22.82 15.92 22.48 0.05 37.54"/></g></g></svg>