<svg xmlns="http://www.w3.org/2000/svg" viewBox="0 0 21.41 101.98"><defs><style>.cls-1{fill:#a35423;}.cls-2{fill:#20262c;}.cls-3{fill:#fff;}</style></defs><title>Flecha_Der_414</title><g id="Layer_2" data-name="Layer 2"><g id="Layer_1-2" data-name="Layer 1"><polygon class="cls-1" points="0.41 73.26 0 72.86 0 92.3 0.41 92.69 10.12 101.98 10.12 82.58 0.41 73.26"/><polygon class="cls-2" points="0.41 53.98 0 53.59 0 72.86 0.41 73.26 10.12 82.58 10.12 82.58 21.41 93.43 21.41 73.91 0.41 53.98"/><polygon class="cls-1" points="0.41 9.28 0 9.68 0 29.11 0.41 28.72 10.12 19.39 10.12 0 0.41 9.28"/><polygon class="cls-2" points="10.12 19.39 10.12 19.39 0.41 28.72 0 29.11 0 48.39 0.41 48 21.41 28.07 21.41 8.55 10.12 19.39"/><polygon class="cls-3" points="0.41 50.99 0 50.99 0 53.59 0.41 53.97 0.41 53.98 21.41 73.91 21.41 73.45 21.41 53.94 18.3 50.99 0.41 50.99"/><polygon class="cls-3" points="0.41 48 0.41 48.01 0 48.39 0 50.99 0.41 50.99 18.3 50.99 21.41 48.04 21.41 28.52 21.41 28.07 0.41 48"/><polygon class="cls-3" points="21.41 53.93 21.41 50.99 21.41 48.04 18.3 50.99 21.41 53.93"/></g></g></svg>