<svg xmlns="http://www.w3.org/2000/svg" width="115.854" height="115.855" viewBox="0 0 115.854 115.855">
  <g id="Icono_Cabanas" transform="translate(-1077.366 -1319.154)">
    <path id="Trazado_651" data-name="Trazado 651" d="M1135.292,1435.009a57.927,57.927,0,1,1,57.928-57.927A57.993,57.993,0,0,1,1135.292,1435.009Zm0-108.2a50.276,50.276,0,1,0,50.277,50.277A50.333,50.333,0,0,0,1135.292,1326.805Z" fill="#c87337"/>
    <path id="Trazado_652" data-name="Trazado 652" d="M1135.293,1331.483a45.6,45.6,0,1,0,45.6,45.6A45.6,45.6,0,0,0,1135.293,1331.483Zm-9.5,69.6h-13.4a3.077,3.077,0,0,1-3.076-3.077v-.078a3.077,3.077,0,0,1,3.076-3.077h13.4Zm0-9.24h-13.4a3.076,3.076,0,0,1-3.076-3.076v-.079a3.076,3.076,0,0,1,3.076-3.076h13.4Zm0-9.239h-13.4a3.077,3.077,0,0,1-3.076-3.077v-.078a3.077,3.077,0,0,1,3.076-3.077h13.4Zm22.554-15.471a.455.455,0,0,1,.264.084l8.179,5.784a.457.457,0,0,1-.264.829h-42.057a.457.457,0,0,1-.264-.829l8.179-5.784a.458.458,0,0,1,.264-.084Zm-21.074-3.374,7.961-5.63a.458.458,0,0,1,.527,0l7.961,5.63a.457.457,0,0,1-.264.83h-15.921A.457.457,0,0,1,1127.273,1363.758Zm14.937,37.324h-13.834v-24.711h13.834Zm19.061-3.077a3.077,3.077,0,0,1-3.076,3.077h-13.4v-6.232h13.4a3.077,3.077,0,0,1,3.076,3.077Zm0-9.239a3.076,3.076,0,0,1-3.076,3.076h-13.4v-6.231h13.4a3.076,3.076,0,0,1,3.076,3.076Zm0-9.24a3.077,3.077,0,0,1-3.076,3.077h-13.4v-6.232h13.4a3.077,3.077,0,0,1,3.076,3.077Zm5.407-3.394a2.753,2.753,0,0,1-1.675-.567l-29.71-22.691-29.711,22.691a2.763,2.763,0,1,1-3.354-4.392l10.335-7.893v-8.469a3.21,3.21,0,0,1,6.419,0v3.567l16.311-12.457,33.064,25.252a2.763,2.763,0,0,1-1.679,4.959Z" fill="#402414"/>
  </g>
</svg>
