<svg xmlns="http://www.w3.org/2000/svg" width="115.854" height="115.854" viewBox="0 0 115.854 115.854">
  <g id="Motocicletas" transform="translate(-1077.366 -1828.014)">
    <path id="Trazado_642" data-name="Trazado 642" d="M1135.292,1943.868a57.927,57.927,0,1,1,57.928-57.927A57.993,57.993,0,0,1,1135.292,1943.868Zm0-108.2a50.277,50.277,0,1,0,50.277,50.277A50.334,50.334,0,0,0,1135.292,1835.664Z" fill="#c87337"/>
    <g id="Grupo_405" data-name="Grupo 405">
      <path id="Trazado_643" data-name="Trazado 643" d="M1114.625,1889.387a4.195,4.195,0,1,0,4.195,4.194A4.195,4.195,0,0,0,1114.625,1889.387Zm0,5.761a1.567,1.567,0,1,1,1.567-1.567A1.566,1.566,0,0,1,1114.625,1895.148Z" fill="#402414"/>
      <path id="Trazado_644" data-name="Trazado 644" d="M1137.064,1931.148a45.414,45.414,0,0,0,.562-90.734q-1.159-.058-2.333-.059t-2.335.059a45.416,45.416,0,0,0,.355,90.729c.657.028,1.316.05,1.98.05C1135.887,1931.193,1136.475,1931.171,1137.064,1931.148Zm29.573-37.567a10.676,10.676,0,1,1-10.676-10.676A10.676,10.676,0,0,1,1166.637,1893.581Zm-9.307-18.593h1.5a.555.555,0,0,1,.543.445l.652,3.259a.554.554,0,0,1-.543.662h-1.5a.554.554,0,0,1-.543-.445l-.652-3.258A.554.554,0,0,1,1157.33,1874.988Zm-46.9,1.31a1.31,1.31,0,0,1,1.31-1.31h2.133v-.522a1.214,1.214,0,0,1,1.212-1.212h18.238a1.213,1.213,0,0,1,1.212,1.212v.522h5.154v-.589a1.374,1.374,0,0,1,1.375-1.375h3.354l-.873-4.075h-3.711a1.383,1.383,0,0,1,0-2.766h5.085a3.356,3.356,0,0,1,3.356,3.357v1.373h.873a4.148,4.148,0,0,1,4.148,4.148h1.776a1.113,1.113,0,0,1,1.085.866l.469,2.069a1.112,1.112,0,0,1-1.084,1.358H1146.7l-6.289,13h-9.765l-6.4-13H1110.43Zm-3.705,2.367a1.639,1.639,0,0,1,1.639-1.639h1.053v2.328h-2.692Zm7.9,25.593a10.677,10.677,0,1,1,10.677-10.677A10.677,10.677,0,0,1,1114.625,1904.258Zm13.648-9.641-5.884-12.23h-16.02a1.049,1.049,0,0,1,0-2.1h17.339l5.884,12.23a1.259,1.259,0,0,0,1.135.713h9.625a1.26,1.26,0,0,0,1.139-.72l5.787-12.223h13.482a1.049,1.049,0,0,1,0,2.1h-12.153l-5.788,12.223a1.259,1.259,0,0,1-1.139.72h-12.272A1.26,1.26,0,0,1,1128.273,1894.617Z" fill="#402414"/>
      <path id="Trazado_645" data-name="Trazado 645" d="M1130.811,1878.627h1.31l1.382-3.639h.333v-.522a.513.513,0,0,0-.513-.512h-18.238a.513.513,0,0,0-.512.512v.522h.309a1.31,1.31,0,0,1,1.31,1.31l9.032.325A9.778,9.778,0,0,1,1130.811,1878.627Z" fill="#402414"/>
      <path id="Trazado_646" data-name="Trazado 646" d="M1151.766,1893.581a4.195,4.195,0,1,0,4.2-4.194A4.195,4.195,0,0,0,1151.766,1893.581Zm5.762,0a1.568,1.568,0,1,1-1.567-1.567A1.567,1.567,0,0,1,1157.528,1893.581Z" fill="#402414"/>
    </g>
  </g>
</svg>
