<svg xmlns="http://www.w3.org/2000/svg" width="115.855" height="115.854" viewBox="0 0 115.855 115.854">
  <g id="Icono_Voleibol" transform="translate(-1257.408 -1657.924)">
    <path id="Trazado_626" data-name="Trazado 626" d="M1315.336,1773.778a57.927,57.927,0,1,1,57.927-57.927A57.994,57.994,0,0,1,1315.336,1773.778Zm0-108.2a50.277,50.277,0,1,0,50.277,50.277A50.334,50.334,0,0,0,1315.336,1665.574Z" fill="#c87337"/>
    <path id="Trazado_627" data-name="Trazado 627" d="M1315.336,1670.247a45.378,45.378,0,1,0,45.378,45.378A45.378,45.378,0,0,0,1315.336,1670.247Zm-3.091,17.868a29.885,29.885,0,0,1,3.3-.187,27.01,27.01,0,0,1,15.328,4.782,27.381,27.381,0,0,1,10.191,12.873,39.94,39.94,0,0,0-24.121-8.16,44.54,44.54,0,0,0-5.1.3A39.557,39.557,0,0,1,1312.245,1688.115Zm-13.74,9.041c.068-1.128.234-2.276.4-3.386l.044-.305a.713.713,0,0,1,.256-.4,28.954,28.954,0,0,1,9.221-4.163c.2-.052.4-.117.609-.187l-.172,1.527a39.3,39.3,0,0,0-.005,8.394,38.127,38.127,0,0,0,3.152,11.707c.251.559.533,1.11.805,1.642.217.424.433.848.636,1.279a.476.476,0,0,1,.026.278,36.923,36.923,0,0,1-6.544,8.008c-.251.225-.51.442-.769.659l-.227.19a36.524,36.524,0,0,1-4.392-7.543A38.31,38.31,0,0,1,1298.505,1697.156Zm-7.024,32.741c-.122,0-.215-.023-.384-.34a27.476,27.476,0,0,1-3-8.064c-.134-.732-.226-1.489-.316-2.221-.046-.382-.093-.764-.146-1.145a3.2,3.2,0,0,0-.078-.368l-.026-.1v-3.8c.045-.319.087-.639.13-.958.091-.692.186-1.407.307-2.1a27.3,27.3,0,0,1,6.1-13.1c.42-.5.87-.967,1.381-1.468a43.023,43.023,0,0,0,7.928,28.214q-.552.33-1.1.662c-1.068.647-2.076,1.258-3.134,1.824a36.373,36.373,0,0,1-7.386,2.92A1.077,1.077,0,0,1,1291.481,1729.9Zm9.172,9.277a.456.456,0,0,1-.222-.055l-.536-.364a24.525,24.525,0,0,1-4.93-4.013c-.481-.556-.949-1.137-1.4-1.7l-.315-.391c.538-.214,1.073-.42,1.6-.624,1.489-.574,2.9-1.116,4.282-1.772a39.29,39.29,0,0,0,16.7-14.773.912.912,0,0,1,.921-.526h.069a37.816,37.816,0,0,1,11.121,2.1c-.19.369-.376.74-.562,1.111-.508,1.009-1.032,2.053-1.608,3.036a37.843,37.843,0,0,1-12.378,12.888,36.849,36.849,0,0,1-12.686,5.074A.378.378,0,0,1,1300.653,1739.174Zm40.454-12.992a27.841,27.841,0,0,1-6.388,9.643,27.163,27.163,0,0,1-12.463,7.006c-1.011.254-2.074.412-3.1.565-.493.073-.987.147-1.478.231-.126.022-.252.049-.378.075l-.133.028h-3.581l-.708-.1c-.533-.074-1.066-.148-1.6-.228a29.872,29.872,0,0,1-6.7-1.844l-.069-.029a41.754,41.754,0,0,0,26.112-23.066l.169.083c.361.178.724.357,1.081.546a40.63,40.63,0,0,1,9.148,6.6C1341.2,1725.865,1341.219,1725.907,1341.107,1726.182Zm1.424-4.762c-.062.333-.109.661-.157,1l-.707-.578c-.862-.706-1.675-1.373-2.534-2.011a39.08,39.08,0,0,0-16.911-7.231c-1.46-.248-2.958-.366-4.406-.48q-.606-.048-1.209-.1a.571.571,0,0,1-.566-.343,34.246,34.246,0,0,1-3.893-11.009c.34-.016.678-.035,1.016-.054.967-.053,1.968-.109,2.943-.109h.042a38.463,38.463,0,0,1,25.03,9.065c1.432,1.183,1.432,1.183,1.72,2.971A25.176,25.176,0,0,1,1342.531,1721.42Z" fill="#402414"/>
  </g>
</svg>
