<svg xmlns="http://www.w3.org/2000/svg" width="115.853" height="115.854" viewBox="0 0 115.853 115.854">
  <g id="Icono_La_Granja" transform="translate(-1437.452 -1828.014)">
    <path id="Trazado_649" data-name="Trazado 649" d="M1495.378,1943.868a57.927,57.927,0,1,1,57.927-57.927A57.992,57.992,0,0,1,1495.378,1943.868Zm0-108.2a50.277,50.277,0,1,0,50.277,50.277A50.334,50.334,0,0,0,1495.378,1835.664Z" fill="#c87337"/>
    <path id="Trazado_650" data-name="Trazado 650" d="M1495.378,1840.393a45.381,45.381,0,1,0,45.382,45.381A45.381,45.381,0,0,0,1495.378,1840.393Zm25.779,23.484a5.1,5.1,0,0,1-3.433,2.524c-.49.12-1,.162-1.562.249,1.2,2.335,1.184,4.568-.584,6.593.4.565.394.781-.006,1.05.549.226.4.629.286,1.035a.378.378,0,0,0,.038.29.473.473,0,0,1,.039.527c-.086.184-.169.37-.262.574a.411.411,0,0,1,.165.638c-.032.054-.006.139-.018.208a1.819,1.819,0,0,1-.1.5.5.5,0,0,0,.052.656.265.265,0,0,1,.093.158c-.005.513.136,1.064-.35,1.464-.082.067-.152.149-.227.223a1.718,1.718,0,0,1-.278,2.125c.4.317.043.648.032.979,0,.118-.016.235-.019.353s0,.246,0,.369a.9.9,0,0,0,.01.28c.139.4.106.478-.3.628a.773.773,0,0,0-.08.038c0,.1-.007.212,0,.317a.292.292,0,0,1-.193.341.2.2,0,0,0-.146.262.374.374,0,0,1-.261.464c-.189.075-.369.175-.573.274.019.084.043.185.063.287a.594.594,0,0,1-.416.758.417.417,0,0,0-.2.212.475.475,0,0,1-.442.327c-.08.007-.153.1-.229.154-.006,0,0,.02-.01.024-.385.26-.457.869-1.03.924a.358.358,0,0,0-.2.115c-.259.28-.491.589-.769.849a5.754,5.754,0,0,1-.771.557c-.148.1-.32.158-.468.254a.938.938,0,0,0-.45.712,59.014,59.014,0,0,0-.505,6.115c-.02.733-.032,1.467-.094,2.2a5.263,5.263,0,0,0,.824,3.239c.517.856,1.046,1.7,1.567,2.558.07.115.132.234.195.352.118.222.063.334-.192.34a2.261,2.261,0,0,1-.472-.072,2.946,2.946,0,0,1-.291-.095c.054.066.074.095.1.119.353.356.332.561-.145.73a3.114,3.114,0,0,1-2.8-.315.922.922,0,0,1-.338-.573c-.1-.588-.162-1.185-.211-1.781a.62.62,0,0,0-.364-.55,1.13,1.13,0,0,1-.6-1.3c.085-.968.194-1.94.188-2.91a18.707,18.707,0,0,0-.665-4.089c-.135-.579-.284-1.154-.427-1.731l-.088-.005c-.1.577-.23,1.152-.3,1.733q-.224,1.742-.4,3.487a10.338,10.338,0,0,0,1.108,6.254c.508.912,1,1.831,1.5,2.751a1.163,1.163,0,0,1,.069.295.761.761,0,0,1-.278.049c-.3-.064-.594-.152-.894-.233.071.084.15.167.215.259.167.235.15.35-.114.452a2.162,2.162,0,0,1-.771.2,7.714,7.714,0,0,1-1.617-.142,1.345,1.345,0,0,1-1.183-1.491c-.016-.348-.031-.7-.053-1.044a.886.886,0,0,0-.448-.775.683.683,0,0,1-.3-.649c-.011-.633-.026-1.269.011-1.9a21.816,21.816,0,0,0-.8-7.1c-.321-1.168-.721-2.314-1.085-3.471-.048-.154-.1-.282-.308-.247a.215.215,0,0,1-.166-.063,1.835,1.835,0,0,0-1.725-.384,1.259,1.259,0,0,1-.8-.1.667.667,0,0,0-.432-.026.858.858,0,0,1-.776-.175.6.6,0,0,0-.326-.082c-.247-.011-.5,0-.743,0a4.344,4.344,0,0,0-.965.081.6.6,0,0,1-.4-.108,2.467,2.467,0,0,0-1.232-.3.743.743,0,0,1-.491-.194,2.018,2.018,0,0,0-1.307-.589c-.129-.029-.256-.069-.386-.1s-.271-.058-.408-.076c-.26-.036-.52-.07-.781-.092-.111-.01-.225.029-.336.02-.571-.048-1.145-.078-1.711-.166-.488-.075-.682-.025-.928.405a15.24,15.24,0,0,0-1.452,3.929,28.093,28.093,0,0,0-.745,4.622,5.34,5.34,0,0,0,.558,2.749c.558,1.177,1.143,2.342,1.713,3.513.078.16.135.33.2.495.087.209-.032.275-.2.244a4.773,4.773,0,0,1-.573-.18c.291.5.248.634-.3.784a3.816,3.816,0,0,1-2.42-.109,1.358,1.358,0,0,1-.919-1.319c-.018-.419-.016-.84-.047-1.258a.467.467,0,0,0-.173-.3,1.327,1.327,0,0,1-.582-1.122c.011-.614.061-1.229.126-1.84a21.881,21.881,0,0,0,.04-4.737c-.116-1.044-.3-2.081-.446-3.121l-.11,0c-.056.192-.114.383-.169.574a41.3,41.3,0,0,0-1.263,5.937,9.757,9.757,0,0,0,1.045,5.708c.314.641.6,1.293.9,1.942a1.794,1.794,0,0,1,.091.28c.061.226-.019.325-.251.276-.2-.044-.4-.124-.642-.2l.158.216c.2.283.179.463-.152.581a3.031,3.031,0,0,1-2.882-.336,1.735,1.735,0,0,1-.578-1.335,2.154,2.154,0,0,1-.018-.321.892.892,0,0,0-.377-.914.856.856,0,0,1-.3-.824q.093-1.08.237-2.154a16.328,16.328,0,0,0,.094-4.172c-.2-1.664-.5-3.317-.717-4.98a6.727,6.727,0,0,1,.073-1.245.477.477,0,0,0-.028-.278,3.141,3.141,0,0,1-.415-1.177,2.727,2.727,0,0,0-.232-.53c-.064-.126-.212-.243-.212-.364,0-.672-.446-1.268-.318-1.957a.388.388,0,0,0-.159-.394,2.064,2.064,0,0,1-.584-1,1.2,1.2,0,0,0-.29-.48,1.178,1.178,0,0,1-.38-1.06,1.655,1.655,0,0,0-.065-.651,2.942,2.942,0,0,1,.039-1.5c-.15.124-.25.2-.343.285a.69.69,0,0,1-1.1-.144c-.126-.194-.273-.375-.4-.566a.881.881,0,0,1-.119-.235c-.1-.33-.2-.66-.287-.995a.988.988,0,0,1-.043-.469.976.976,0,0,0-.095-.717.95.95,0,0,1,.022-.9.487.487,0,0,0,.084-.223,2.235,2.235,0,0,1,.44-1.235,1.808,1.808,0,0,0,.172-.8,1.72,1.72,0,0,1,.257-.913.69.69,0,0,0,.1-.324,1.373,1.373,0,0,1,.747-1.241.886.886,0,0,0,.308-.355c.134-.231.242-.478.359-.718a1.749,1.749,0,0,1,.771-.826,3.01,3.01,0,0,0,.505-.4.693.693,0,0,1,.576-.142.91.91,0,0,0,.39-.064,6.229,6.229,0,0,0,.634-.274.616.616,0,0,0,.216-.176c.114-.148.206-.313.315-.465a.651.651,0,0,1,.575-.266,3.488,3.488,0,0,0,.881-.167c.087-.026.15-.166.206-.264.231-.41.339-.474.8-.389.279.052.49.035.63-.267a.638.638,0,0,1,.63-.42.226.226,0,0,0,.157-.109.693.693,0,0,1,1.148-.214c.056.043.109.089.187.153a.848.848,0,0,1,1.02-.314c.053.018.141-.091.221-.119.143-.05.31-.148.436-.113a.8.8,0,0,0,.732-.142c.356-.262.708-.433,1.131-.08.179-.47.478-.435.839-.288a1.619,1.619,0,0,0,1.325.049c.091-.041.224.01.345.019.394-.486.442-.5.89-.178a.439.439,0,0,0,.074-.063c.335-.42.334-.419.839-.245a.262.262,0,0,0,.129.029.564.564,0,0,1,.748.408,2.292,2.292,0,0,0,.422-.151.817.817,0,0,1,.9.055.527.527,0,0,0,.682.01.4.4,0,0,1,.557.086.253.253,0,0,0,.349.06c.219-.113.407.013.606.1a4.022,4.022,0,0,0,.55.155c.084.022.193.008.252.056a.826.826,0,0,0,.99.038.716.716,0,0,1,.754.043,2.357,2.357,0,0,0,1.073.483,4.8,4.8,0,0,1,1.053.06c.079.015.177-.073.266-.116a.387.387,0,0,1,.558.138.632.632,0,0,0,.734.3,6.019,6.019,0,0,1,1.315.108c.2.02.4.037.6.062.3.037.6.091.907.114a.5.5,0,0,0,.346-.085.751.751,0,0,1,.676-.231.419.419,0,0,0,.27-.118c.335-.273.422-.284.729,0a.391.391,0,0,0,.526.066,5.058,5.058,0,0,1,.541-.223.368.368,0,0,0,.132-.1c.153-.183.311-.364.447-.559a.664.664,0,0,0,.152-.362.624.624,0,0,1,.22-.545.719.719,0,0,0,.277-.579,1.6,1.6,0,0,1,.166-.479,4.671,4.671,0,0,1-2.2-.6,7.186,7.186,0,0,1-2.251-1.994c-.4-.541-.3-.962.325-1.218a3.88,3.88,0,0,1,3.125-.02c.563.247,1.112.527,1.668.793a1.054,1.054,0,0,0,1.077-.04,7.672,7.672,0,0,1,2.6-.958,5.171,5.171,0,0,1,2.884.372c.689.292,1.363.621,2.035.951a.6.6,0,0,0,.669-.039,5.455,5.455,0,0,1,1.831-.975,5.111,5.111,0,0,1,2.177-.086,2.111,2.111,0,0,1,.284.076C1521.3,1862.85,1521.486,1863.279,1521.157,1863.877Z" fill="#402414"/>
  </g>
</svg>
