<svg xmlns="http://www.w3.org/2000/svg" width="115.854" height="115.854" viewBox="0 0 115.854 115.854">
  <g id="Tirolesa" transform="translate(-1257.409 -1828.014)">
    <path id="Trazado_647" data-name="Trazado 647" d="M1315.335,1943.868a57.927,57.927,0,1,1,57.928-57.927A57.992,57.992,0,0,1,1315.335,1943.868Zm0-108.2a50.277,50.277,0,1,0,50.277,50.277A50.334,50.334,0,0,0,1315.335,1835.664Z" fill="#c87337"/>
    <path id="Trazado_648" data-name="Trazado 648" d="M1315.336,1840.312a45.461,45.461,0,1,0,45.461,45.462A45.462,45.462,0,0,0,1315.336,1840.312Zm-28.1,43.081a6.09,6.09,0,1,1,6.091,6.091A6.091,6.091,0,0,1,1287.237,1883.393Zm54.021,25.284a3.391,3.391,0,0,1-4.593.632l-7-4.953a2.451,2.451,0,0,0-2.7-.083l-9.674,5.992a9,9,0,0,1-11.077-1.263l-9.082-9.015a5.9,5.9,0,0,1,.073-8.447l2.657-2.547a6.25,6.25,0,0,1,3.021-1.6l2.274-.485a4.6,4.6,0,0,0,2.4-1.356l5.252-5.616a3.566,3.566,0,0,1,5.257,4.818l-4.964,5.527a6.716,6.716,0,0,1-4.74,2.222l-.376.014a1.3,1.3,0,0,0-.854,2.228l6.1,5.922a1.884,1.884,0,0,0,2.186.315l10.171-5.345a4.332,4.332,0,0,1,4.609.365l10.462,7.823A3.392,3.392,0,0,1,1341.258,1908.677Zm-31.183-40.184c0-.061.007-.121.009-.182l2.672.476a3.035,3.035,0,0,0,5.757,1.025l2.678.477a5.715,5.715,0,0,1-4.739,3.865v2.617a3.573,3.573,0,0,0-2.707.254v-3.209A5.709,5.709,0,0,1,1310.075,1868.493Zm6.377,21.3v8.267h-2.707v-5.253Zm28.11-18.047a1.333,1.333,0,0,1-1.546,1.079l-55.828-9.946a1.333,1.333,0,1,1,.468-2.625l22.724,4.048a1.844,1.844,0,0,1-.368-1.1,1.867,1.867,0,1,1,2.9,1.554l5.316.947a1.845,1.845,0,0,1-.386-1.125,1.867,1.867,0,1,1,2.872,1.568l22.77,4.057A1.333,1.333,0,0,1,1344.562,1871.749Z" fill="#402414"/>
  </g>
</svg>
