<svg xmlns="http://www.w3.org/2000/svg" width="115.855" height="115.854" viewBox="0 0 115.855 115.854">
  <g id="Icono_Juegos_Infantiles" transform="translate(-1437.451 -1657.924)">
    <path id="Trazado_628" data-name="Trazado 628" d="M1495.378,1773.778a57.927,57.927,0,1,1,57.928-57.927A57.993,57.993,0,0,1,1495.378,1773.778Zm0-108.2a50.277,50.277,0,1,0,50.277,50.277A50.334,50.334,0,0,0,1495.378,1665.574Z" fill="#c87337"/>
    <g id="Grupo_403" data-name="Grupo 403">
      <path id="Trazado_629" data-name="Trazado 629" d="M1498.444,1706.269a2.785,2.785,0,0,0-5.57,0v4.964h5.569Z" fill="#402414"/>
      <path id="Trazado_630" data-name="Trazado 630" d="M1492.548,1716.825h6.313v-3.595h-1.889q-2.213,0-4.427-.007.006,1.25,0,2.5Z" fill="#402414"/>
      <path id="Trazado_631" data-name="Trazado 631" d="M1474.848,1729.435h5.313l.995-16.186h-7.3Z" fill="#402414"/>
      <path id="Trazado_632" data-name="Trazado 632" d="M1492.545,1726.116q.006,1.574,0,3.146v1.677h6.315v-4.815h-1.66Q1494.876,1726.125,1492.545,1726.116Z" fill="#402414"/>
      <path id="Trazado_633" data-name="Trazado 633" d="M1495.378,1670.265a45.36,45.36,0,1,0,45.361,45.36A45.36,45.36,0,0,0,1495.378,1670.265Zm-13.815,29.45,12.956-12.947a1.35,1.35,0,0,1,.96-.4h0a1.353,1.353,0,0,1,.961.4L1509.626,1700a1.5,1.5,0,0,1,.025,2.074,1.422,1.422,0,0,1-1.019.448h-.018a1.416,1.416,0,0,1-1.01-.422l-12.127-12.173-11.9,11.889a1.464,1.464,0,0,1-1.029.42,1.42,1.42,0,0,1-1.017-.45A1.5,1.5,0,0,1,1481.563,1699.715Zm47.053,36.335a.8.8,0,0,1-.84.61h0q-1.593,0-3.186,0c-1.63,0-3.259,0-4.889-.012a1.133,1.133,0,0,1-.8-.426q-4.942-6.252-9.871-12.512l-2.076-2.635c-.308-.391-.641-.814-1.005-1.239v15.648a1.374,1.374,0,0,1-2.748,0c0-3.551,0-15.8,0-22.111v-.113h-1.554v22.224a1.38,1.38,0,0,1-2.76-.007c0-.552,0-1.16,0-1.711l0-.534h-6.333l0,2.251a1.37,1.37,0,0,1-2.74,0l0-22.223h-1.831v22.223a1.37,1.37,0,0,1-2.74,0l0-22.216h-2.2l-1,16.2h.988a1.191,1.191,0,0,1,1.3,1.129,1.111,1.111,0,0,1-.311.813,1.362,1.362,0,0,1-.99.379q-5.535,0-11.067,0a1.317,1.317,0,0,1-.956-.367,1.115,1.115,0,0,1-.313-.811,1.188,1.188,0,0,1,1.252-1.143c.314,0,.627,0,.961,0h.073l-.994-16.2h-2.024v.14c0,6.323,0,18.538,0,22.082a1.372,1.372,0,0,1-2.342.967,1.356,1.356,0,0,1-.4-.969c0-1.955,0-6.555,0-11.43l0-12.793h17.81c0-.048,0-.095,0-.143v-2.156c0-2.3,0-4.6.012-6.9a1.328,1.328,0,0,1,.36-.882q2.885-2.86,5.781-5.708,1.86-1.835,3.72-3.67a.726.726,0,0,1,1.151-.008q2.091,2.064,4.185,4.125,2.689,2.649,5.375,5.3a1.228,1.228,0,0,1,.307.824q.009,1.923.008,3.844,0,2.193.011,4.386a.781.781,0,0,0,.139.381q5.48,6.54,10.966,13.073,3.7,4.411,7.4,8.824a.391.391,0,0,0,.338.155c.924-.01,2.048-.009,3.091-.008h0a1.321,1.321,0,0,1,1.263,1.7C1528.946,1734.993,1528.741,1735.666,1528.616,1736.05Z" fill="#402414"/>
      <path id="Trazado_634" data-name="Trazado 634" d="M1497.021,1723.925h1.822v-4.843l-1.541-.005q-2.377,0-4.756-.007l0,.638c0,1.374.007,2.794-.007,4.192,0,.012,0,.023,0,.033h.03C1494.055,1723.922,1495.538,1723.924,1497.021,1723.925Z" fill="#402414"/>
    </g>
  </g>
</svg>
