<svg xmlns="http://www.w3.org/2000/svg" width="115.854" height="115.854" viewBox="0 0 115.854 115.854">
  <g id="Icono_Cabalgatas" transform="translate(-1437.451 -1487.784)">
    <path id="Trazado_612" data-name="Trazado 612" d="M1494.93,1603.636a57.927,57.927,0,1,1,58.374-57.476A57.993,57.993,0,0,1,1494.93,1603.636Zm.839-108.2a50.276,50.276,0,1,0,49.885,50.665A50.334,50.334,0,0,0,1495.769,1495.436Z" fill="#c87337"/>
    <path id="Trazado_613" data-name="Trazado 613" d="M1495.378,1500.061a45.651,45.651,0,1,0,45.651,45.65A45.65,45.65,0,0,0,1495.378,1500.061Zm27.056,33.122a2.759,2.759,0,0,1-2.662,2.53c-1.2.107-1.926-.571-2.262-2.106-.063-.287-.078-.675-.268-.829-1.1-.9-2.252-1.742-2.857-2.2-.431,1.8-.919,4.391-1.7,6.89a4.114,4.114,0,0,0,.384,3.818c1.59,2.179,1.18,4.191-.181,6.178a1.329,1.329,0,0,0,.392,2.161,28.886,28.886,0,0,0,3,1.414,21.145,21.145,0,0,1,2.72,1.228,2.541,2.541,0,0,1,1.054,3.114c-1.108,4.241-3.894,6.968-7.8,8.675a5.2,5.2,0,0,1-1.224.19c.069-1.446.334-2.659,1.407-3.407.4-.281,1.136-.092,1.719-.118a6.181,6.181,0,0,0,3.09-4.255c.249-1.585-.282-2.172-1.824-2.491-2.046-.424-4.058-1.008-6.3-1.578a8.122,8.122,0,0,0-.674,1.984c-.307,2.956-.436,5.931-.761,8.884-.276,2.513.308,4.567,2.537,5.971a.834.834,0,0,1,.162.153c.6.662.506,1.218-.357,1.355a11.9,11.9,0,0,1-3.092.074.871.871,0,0,1-.735-1.323,1.677,1.677,0,0,0-.1-1.746,3.837,3.837,0,0,1-.465-1.47c-.065-2.595-.059-5.193-.081-7.79a4.933,4.933,0,0,0-.054-1.1c-.481-2.015-.993-4.023-1.506-6.083-.84.209-1.8.468-2.77.685a29.3,29.3,0,0,1-11.608.674,12.085,12.085,0,0,0-4.776.064c-.036.01-.083.008-.106.031-.258.253-.67.472-.744.772a14.49,14.49,0,0,1-2.8,6.308c.581.3,1.038.582,1.529.78a4.4,4.4,0,0,1,2.88,3.66,11.44,11.44,0,0,0,.261,1.308c.435,1.6.282,1.868-1.372,2.149.246.956.28.994,1.293,1.342a4.448,4.448,0,0,1,2.962,2.169,1.116,1.116,0,0,1-.257,1.047,2.767,2.767,0,0,1-3.723-1.474,1.521,1.521,0,0,0-.489-.711,15,15,0,0,1-4.5-5.438,4.436,4.436,0,0,0-.736-1.089,5.384,5.384,0,0,1-1.986-3.753c-.271-.032-.489-.05-.7-.085-.994-.161-3.131-1.85-2.838-2.326a10.781,10.781,0,0,1,2.129-2.1c.155-.139.432-.135.608-.259.346-.244.661-.533,1.043-.847-3.454-3.469-6.8-6.855-6.281-12.3a2.411,2.411,0,0,0-.871,1.085c-.374,1.508-.721,3.031-.943,4.568-.484,3.357-1.543,6.436-4.081,8.819a6.923,6.923,0,0,1-5.3,1.916,13.515,13.515,0,0,0,3.558-9.109,11.407,11.407,0,0,1,2.023-5.831,7.923,7.923,0,0,1,5.773-3.593,2.419,2.419,0,0,0,1.22-.629,13.3,13.3,0,0,1,5.825-3.128c2.656-.7,5.237-.021,7.854.206,4.618.4,8.979-.39,12.778-3.223a6.275,6.275,0,0,0,1.452-1.884,64.5,64.5,0,0,1,3.514-6.043c2.447-3.263,5.717-5.421,9.952-5.251,2.029.081,3.6-.132,4.559-2.084.036-.074.176-.1.351-.186-.051.79-.1,1.508-.162,2.509l2-2.393c-.154.909-.276,1.487-.346,2.072a6.959,6.959,0,0,0-.163,2.184c.742,3.43,1.591,6.837,2.387,10.257A3.507,3.507,0,0,1,1522.434,1533.183Z" fill="#402414"/>
  </g>
</svg>
