<svg xmlns="http://www.w3.org/2000/svg" width="115.854" height="115.854" viewBox="0 0 115.854 115.854">
  <g id="Fogatas" transform="translate(-1257.409 -1487.784)">
    <path id="Trazado_610" data-name="Trazado 610" d="M1315.335,1603.638a57.927,57.927,0,1,1,57.928-57.927A57.992,57.992,0,0,1,1315.335,1603.638Zm0-108.2a50.277,50.277,0,1,0,50.277,50.277A50.334,50.334,0,0,0,1315.335,1495.434Z" fill="#c87337"/>
    <path id="Trazado_611" data-name="Trazado 611" d="M1315.336,1500.08a45.631,45.631,0,1,0,45.631,45.631A45.632,45.632,0,0,0,1315.336,1500.08Zm-23.38,61.105c-.23-.431-.413-.89-.617-1.337v-1.236a6.223,6.223,0,0,0,.353-.81,2.049,2.049,0,0,1,2.346-1.685c2.851.091,5.714.081,8.561-.087,1.562-.092,2.609.354,3.291,2.318-3.576,1.5-7.153,3.1-10.806,4.475C1293.777,1563.315,1292.649,1562.484,1291.956,1561.185Zm20.362,8.442a16.041,16.041,0,0,1-2.389,1.348h-.872c-1.575-1.071-3.234-2.027-4.7-3.247-1.343-1.117-1.409-2.091-.272-3.4,1.7-1.963,3.537-3.793,5.365-5.625a1.532,1.532,0,0,1,1.174-.214c.8.12,1.589.363,2.546.595.195,2.92.475,5.831.515,8.747C1313.694,1568.43,1312.9,1569.168,1312.318,1569.627Zm-.326-22.614c-.037-.688-.006-1.38-.006-2.027a7.283,7.283,0,0,0-1.608,11.408c-3.72-1.046-7.092-2.441-8.9-6.01a11.151,11.151,0,0,1-.044-9.9,67.079,67.079,0,0,1,3.335-6.136,14.3,14.3,0,0,0,2.148-4.513c.245-1.413.3-2.858.447-4.337,1.791,1.2,3.527,2.557,4.01,4.882a9.733,9.733,0,0,1,.028,2.928,3.737,3.737,0,0,0,.776,3.136,2.88,2.88,0,0,0,3.154,1,3.057,3.057,0,0,0,1.951-2.825,7.6,7.6,0,0,0-.472-2.113,30.213,30.213,0,0,1-1.213-3.353,11.7,11.7,0,0,1,1.446-8.026,13.7,13.7,0,0,1,4.2-4.707c.153-.109.316-.2.539-.349-.1,1.176-.2,2.276-.269,3.379a23.628,23.628,0,0,0,.616,7.346,16.25,16.25,0,0,0,2.815,5.271c1.43,2.011,2.916,3.984,4.285,6.035a10.848,10.848,0,0,1,1.965,6.993,9.578,9.578,0,0,1-2.541,6.065,18.114,18.114,0,0,1-9.375,4.968c.159-.148.32-.293.475-.445a9.75,9.75,0,0,0,2.7-10.127c-.359-1.327-.916-2.6-1.383-3.9l-.191.037c-.08.666-.127,1.337-.245,2a9.921,9.921,0,0,1-2.124,4.747,4.19,4.19,0,0,1-3.11,1.678C1313.254,1550.2,1312.106,1549.155,1311.992,1547.013Zm14.592,19.928a7.623,7.623,0,0,1-5.515,2.3,2.665,2.665,0,0,1-2.042-1.326c-1.063-2.817-1.878-5.739-2.827-8.761,2.294-.379,4.094-.665,5.766.95a39.563,39.563,0,0,0,4.252,3.179A2.231,2.231,0,0,1,1326.584,1566.941Zm12.108-6.179a2.989,2.989,0,0,1-3.316,1.323c-3.295-1.108-6.546-2.365-9.867-3.582.369-1.724,1.121-2.459,2.725-2.467a76.335,76.335,0,0,0,7.933-.523c1.533-.169,2.179.793,2.76,1.947A2.891,2.891,0,0,1,1338.692,1560.762Z" fill="#402414"/>
  </g>
</svg>
