<svg xmlns="http://www.w3.org/2000/svg" width="115.854" height="115.854" viewBox="0 0 115.854 115.854">
  <g id="Ciclismo" transform="translate(-897.323 -1828.014)">
    <path id="Trazado_635" data-name="Trazado 635" d="M955.25,1943.868a57.927,57.927,0,1,1,57.927-57.927A57.993,57.993,0,0,1,955.25,1943.868Zm0-108.2a50.277,50.277,0,1,0,50.277,50.277A50.333,50.333,0,0,0,955.25,1835.664Z" fill="#c87337"/>
    <g id="Grupo_404" data-name="Grupo 404">
      <path id="Trazado_636" data-name="Trazado 636" d="M944.368,1888.014c-.44-.758-.848-1.534-1.218-2.212l-.022-.028-4.743,4.7c-.019-.012.016.029.05.029q3.3.006,6.61.008a9.551,9.551,0,0,0-.574-2.347A1.245,1.245,0,0,1,944.368,1888.014Z" fill="#402414"/>
      <path id="Trazado_637" data-name="Trazado 637" d="M947.607,1881.226l-2.268,2.259,0,0a12.64,12.64,0,0,1,2.874,7.021h.848c.142,0,.355-.044.414-.142.392-.64.853-1.169.492-2.109C949.077,1885.935,948.371,1883.541,947.607,1881.226Z" fill="#402414"/>
      <path id="Trazado_638" data-name="Trazado 638" d="M937.528,1892.658a1.64,1.64,0,0,0-.842.282,1.756,1.756,0,0,1-2.818-1.752,1.856,1.856,0,0,1,1.589-1.373,1.568,1.568,0,0,0,.79-.407q2.641-2.631,5.269-5.275a9.519,9.519,0,0,0-2.043-1.248,1.272,1.272,0,0,1-.3-.076,9.476,9.476,0,1,0,5.732,10.436,5.185,5.185,0,0,0,.032-.6h-1.713C941.325,1892.646,939.427,1892.634,937.528,1892.658Z" fill="#402414"/>
      <path id="Trazado_639" data-name="Trazado 639" d="M955.25,1840.32a45.454,45.454,0,1,0,45.454,45.454A45.454,45.454,0,0,0,955.25,1840.32Zm32.368,51.7a12.635,12.635,0,0,1-2.768,7.486l-.09.112c-.079.1-.159.192-.242.287a12.609,12.609,0,0,1-11.073,4.285c-.086-.01-.171-.02-.257-.032l-.163-.023a12.62,12.62,0,0,1-5.319-2.115l-.035-.024q-.209-.146-.411-.3l-.1-.075q-.174-.136-.344-.277c-.048-.039-.1-.079-.142-.12-.1-.085-.2-.173-.3-.262-.054-.049-.107-.1-.16-.149-.092-.086-.183-.174-.272-.264-.051-.051-.1-.1-.153-.157q-.138-.142-.27-.288c-.042-.046-.083-.093-.124-.14-.1-.111-.194-.224-.288-.338l-.077-.1q-.164-.2-.32-.414l-.021-.029a12.7,12.7,0,0,1,4.1-18.616c.131-.076.264-.152.4-.226-.5-1.169-1-2.344-1.524-3.568-.144.128-.263.218-.361.326q-5.769,6.393-11.539,12.783a1.1,1.1,0,0,0-.31,1.127,3.116,3.116,0,0,1-2.665,3.788.728.728,0,0,0-.516.378c-.243,1.006-.427,2.027-.63,3.039a1.119,1.119,0,0,1,.718,1.531.475.475,0,0,1-.362.206c-.877.018-1.755.01-2.615.01-.35-1.321-.219-1.551.97-1.691.253-1.208.51-2.437.722-3.452a16.767,16.767,0,0,0-1.57-1.838c-.28-.247-.8-.227-1.27-.343-.018.163-.039.324-.062.484a12.695,12.695,0,1,1-4.422-11.139q1.23-1.227,2.466-2.45a1.091,1.091,0,0,0,.335-1.448,3.379,3.379,0,0,1-.177-.6l.574-.29c-.745-2.121-1.482-4.223-2.241-6.385a2.931,2.931,0,0,1-2.6.34,22.585,22.585,0,0,1-3.205-2.089,1.218,1.218,0,0,1-.167-1.514c.232-.512.657-.575,1.18-.572,3.273.025,6.547.012,9.821.024a2.011,2.011,0,0,1,1.046.155,1.577,1.577,0,0,1,.525.921c.027.118-.339.413-.571.488-1.6.524-3.222,1.011-4.915,1.534.787,2.248,1.558,4.449,2.347,6.7l.649-.088c.107.26.2.488.333.813l16.6-5.171c-.2-.48-.393-.924-.579-1.368a1.1,1.1,0,0,1,.733-1.646c.962-.319,1.935-.608,2.9-.913a1.731,1.731,0,0,0,1.33-1.886,1.556,1.556,0,0,1,2.2-1.554,1.527,1.527,0,0,1,.351,2.615,3.169,3.169,0,0,0-1.12,1.464,1.982,1.982,0,0,1-1.486,1.231c-.786.192-1.547.487-2.319.739a2.236,2.236,0,0,0-.234.115q1.047,2.457,2.091,4.9l1.506,3.514a12.7,12.7,0,0,1,16.468,11.319l0,.067c.009.17.016.341.018.513l0,.1c0,.04,0,.08,0,.12,0,.137,0,.274-.007.41Z" fill="#402414"/>
      <path id="Trazado_640" data-name="Trazado 640" d="M975.557,1882.2a2.248,2.248,0,0,1-.776-.149,9.541,9.541,0,0,0-2.4.343q1.449,3.372,2.911,6.739a2.168,2.168,0,0,0,.807.89,1.792,1.792,0,0,1,.8,2.215,1.746,1.746,0,0,1-2.114,1.014,1.766,1.766,0,0,1-1.21-2.076,1.2,1.2,0,0,0,.016-.642c-1.013-2.41-2.048-4.81-3.1-7.271a8.989,8.989,0,0,0-3.174,2.722,9.489,9.489,0,1,0,8.24-3.785Z" fill="#402414"/>
      <path id="Trazado_641" data-name="Trazado 641" d="M949.953,1879.938c.893,2.714,1.762,5.367,2.64,8.018.236.714.628.783,1.146.217q3.36-3.676,6.719-7.355l5.063-5.544-.075-.165Zm4.7,5a.6.6,0,0,0-.353.386c-.108.452-.16.98-.8.83s-.413-.686-.357-1.1c-.277-.134-.664-.209-.7-.358a4.272,4.272,0,0,1,.007-1.267c.006-.059.266-.13.41-.133.72-.013,1.441.008,2.16-.012.372-.01.511.12.528.5C955.593,1884.742,955.607,1884.728,954.649,1884.935Z" fill="#402414"/>
    </g>
  </g>
</svg>
