<svg xmlns="http://www.w3.org/2000/svg" width="39.771" height="39.759" viewBox="0 0 39.771 39.759">
  <g id="LogoWhatsapp" transform="translate(0 0.003)">
    <path id="Trazado_1306" data-name="Trazado 1306" d="M0,39.756c.862-3.04,1.713-5.913,2.464-8.811a2.88,2.88,0,0,0-.179-1.87,19.85,19.85,0,1,1,8.856,8.639,3.29,3.29,0,0,0-1.978-.222c-2.774.639-5.521,1.392-8.28,2.1C.657,39.652.419,39.68,0,39.756Zm4.9-4.728c1.7-.422,3.171-.728,4.6-1.17a2.513,2.513,0,0,1,2.246.263A15.52,15.52,0,0,0,22.306,36.13,16.51,16.51,0,0,0,36.264,18.013C35.185,8.536,25.887,1.64,16.646,3.717,5.2,6.289-.033,18.531,5.961,28.638a2.426,2.426,0,0,1,.225,1.617C5.847,31.794,5.377,33.3,4.9,35.028Z" transform="translate(0 0)" fill="#402415"/>
    <path id="Trazado_1307" data-name="Trazado 1307" d="M38.876,46.051a5.2,5.2,0,0,1,1.943-4.1,2.137,2.137,0,0,1,3.535.806,9.948,9.948,0,0,0,.5,1.15c1.041,1.736,1.364,3.356-.51,4.811-.195.152-.167.864.01,1.175A12.505,12.505,0,0,0,50.83,55.41a1.53,1.53,0,0,0,1.321-.419c1.887-2.117,1.865-2.138,4.379-.958.3.141.6.286.91.424,1.925.884,2.067,1.286,1.147,3.242a5.023,5.023,0,0,1-5.195,2.544c-5.569-.707-12.8-7.029-14.223-12.464C39.02,47.215,38.969,46.627,38.876,46.051Z" transform="translate(-29.052 -30.885)" fill="#402415"/>
  </g>
</svg>
