<svg xmlns="http://www.w3.org/2000/svg" width="36.998" height="41.782" viewBox="0 0 36.998 41.782">
  <path id="regalo" d="M1843.789,106.158h-7.356c-.062,0-.124,0-.228-.01.33-.258.633-.487.927-.726a10.937,10.937,0,0,0,2.983-3.544,7.306,7.306,0,0,0,.854-3.841,4.733,4.733,0,0,0-4.319-4.561,7.442,7.442,0,0,0-4.6,1.1,11.788,11.788,0,0,0-3.421,3.193,24.537,24.537,0,0,0-3.518,6.8c-.082.233-.162.468-.243.7,0,0-.011.008-.034.024-.123-.451-.237-.9-.366-1.34a19.434,19.434,0,0,0-2.695-5.875,8.706,8.706,0,0,0-2.8-2.7,5.715,5.715,0,0,0-4.736-.61,4.438,4.438,0,0,0-3.2,3.88,6.264,6.264,0,0,0,2.013,5.406,12.586,12.586,0,0,0,2.579,1.946.567.567,0,0,1,.178.146h-8.854v10.573h2.623v18.5h31.722v-18.5h2.653V106.148C1843.9,106.151,1843.845,106.158,1843.789,106.158Zm-15.609-1.316a20.366,20.366,0,0,1,2.939-5.427,8.327,8.327,0,0,1,2.808-2.469,4.534,4.534,0,0,1,2.084-.53,1.876,1.876,0,0,1,2,2.161,5.242,5.242,0,0,1-.748,2.306,8.519,8.519,0,0,1-2.213,2.4,20.106,20.106,0,0,1-5.124,2.835.477.477,0,0,1-.163.041c-.667,0-1.334,0-2.052,0C1827.876,105.695,1828.02,105.265,1828.18,104.842Zm-13.612-3.591a3.284,3.284,0,0,1-.6-2.11,1.717,1.717,0,0,1,1.734-1.65,3.542,3.542,0,0,1,2.692,1.169,10.877,10.877,0,0,1,1.96,2.848,20.231,20.231,0,0,1,1.4,3.784c-.449-.136-.849-.25-1.244-.38a15.282,15.282,0,0,1-4.465-2.2A5.928,5.928,0,0,1,1814.568,101.251Zm-4.966,7.564h13.19v5.256l-13.19,0Zm2.644,23.757V116.721H1822.8v15.85Zm26.405.006h-10.542V116.723h10.542Zm-10.55-18.51V108.82h13.2v5.248Z" transform="translate(-1806.96 -93.439)" fill="#dcb860"/>
</svg>
